<mxfile host="Electron" agent="Mozilla/5.0 (Windows NT 10.0; Win64; x64) AppleWebKit/537.36 (KHTML, like Gecko) draw.io/24.7.8 Chrome/128.0.6613.36 Electron/32.0.1 Safari/537.36" version="24.7.8">
  <diagram name="PÃ¡gina-1" id="SHAUQ2cGIxPxnnaKapfz">
    <mxGraphModel dx="1793" dy="1055" grid="1" gridSize="10" guides="1" tooltips="1" connect="1" arrows="1" fold="1" page="1" pageScale="1" pageWidth="827" pageHeight="1169" math="0" shadow="0">
      <root>
        <mxCell id="0" />
        <mxCell id="1" parent="0" />
        <mxCell id="n1cjui-AUTv7zVWOq074-311" value="" style="group" vertex="1" connectable="0" parent="1">
          <mxGeometry width="1371" height="793.67" as="geometry" />
        </mxCell>
        <mxCell id="n1cjui-AUTv7zVWOq074-307" value="&lt;h1 style=&quot;margin-top: 0px;&quot;&gt;Data Manager: Case Study&lt;/h1&gt;&lt;p&gt;Designed by Vagner Silva&lt;/p&gt;" style="text;html=1;whiteSpace=wrap;overflow=hidden;rounded=0;" vertex="1" parent="n1cjui-AUTv7zVWOq074-311">
          <mxGeometry width="327" height="120" as="geometry" />
        </mxCell>
        <mxCell id="n1cjui-AUTv7zVWOq074-310" value="" style="group" vertex="1" connectable="0" parent="n1cjui-AUTv7zVWOq074-311">
          <mxGeometry x="1" y="40.67" width="1370" height="753" as="geometry" />
        </mxCell>
        <mxCell id="n1cjui-AUTv7zVWOq074-139" value="" style="rounded=1;whiteSpace=wrap;html=1;arcSize=0;dashed=1;dashPattern=1 1;" vertex="1" parent="n1cjui-AUTv7zVWOq074-310">
          <mxGeometry y="48" width="216" height="635" as="geometry" />
        </mxCell>
        <mxCell id="n1cjui-AUTv7zVWOq074-243" value="" style="rounded=1;whiteSpace=wrap;html=1;" vertex="1" parent="n1cjui-AUTv7zVWOq074-310">
          <mxGeometry x="22" y="214.82999999999998" width="180" height="238.17" as="geometry" />
        </mxCell>
        <mxCell id="n1cjui-AUTv7zVWOq074-176" value="" style="rounded=1;whiteSpace=wrap;html=1;" vertex="1" parent="n1cjui-AUTv7zVWOq074-310">
          <mxGeometry x="40" y="81.5" width="160" height="87.5" as="geometry" />
        </mxCell>
        <mxCell id="n1cjui-AUTv7zVWOq074-13" value="" style="rounded=0;whiteSpace=wrap;html=1;fillColor=#fcfcfc;strokeColor=#6c8ebf;" vertex="1" parent="n1cjui-AUTv7zVWOq074-310">
          <mxGeometry x="250" y="23" width="1120" height="730" as="geometry" />
        </mxCell>
        <mxCell id="n1cjui-AUTv7zVWOq074-7" value="" style="verticalLabelPosition=bottom;html=1;verticalAlign=top;align=center;strokeColor=none;fillColor=#00BEF2;shape=mxgraph.azure.azure_subscription;" vertex="1" parent="n1cjui-AUTv7zVWOq074-310">
          <mxGeometry x="232" width="50" height="40" as="geometry" />
        </mxCell>
        <mxCell id="n1cjui-AUTv7zVWOq074-12" value="&lt;span style=&quot;color: rgb(0, 0, 0); font-family: Helvetica; font-style: normal; font-variant-ligatures: normal; font-variant-caps: normal; font-weight: 400; letter-spacing: normal; orphans: 2; text-align: center; text-indent: 0px; text-transform: none; widows: 2; word-spacing: 0px; -webkit-text-stroke-width: 0px; white-space: nowrap; background-color: rgb(251, 251, 251); text-decoration-thickness: initial; text-decoration-style: initial; text-decoration-color: initial; float: none; font-size: 14px; display: inline !important;&quot;&gt;&lt;font style=&quot;font-size: 14px;&quot;&gt;data subscription&lt;/font&gt;&lt;/span&gt;" style="text;whiteSpace=wrap;html=1;strokeWidth=3;fontSize=14;" vertex="1" parent="n1cjui-AUTv7zVWOq074-310">
          <mxGeometry x="286" y="7" width="40" height="30" as="geometry" />
        </mxCell>
        <mxCell id="n1cjui-AUTv7zVWOq074-140" value="" style="group" vertex="1" connectable="0" parent="n1cjui-AUTv7zVWOq074-310">
          <mxGeometry x="270" y="253" width="1060" height="332.70000000000005" as="geometry" />
        </mxCell>
        <mxCell id="n1cjui-AUTv7zVWOq074-15" value="" style="rounded=1;whiteSpace=wrap;html=1;fillColor=#CCE5FF;" vertex="1" parent="n1cjui-AUTv7zVWOq074-140">
          <mxGeometry x="5.560000000000002" y="176.02999999999997" width="281" height="130" as="geometry" />
        </mxCell>
        <mxCell id="n1cjui-AUTv7zVWOq074-14" value="" style="image;aspect=fixed;html=1;points=[];align=center;fontSize=12;image=img/lib/azure2/general/Resource_Groups.svg;" vertex="1" parent="n1cjui-AUTv7zVWOq074-140">
          <mxGeometry y="170.02999999999997" width="26.56" height="25" as="geometry" />
        </mxCell>
        <mxCell id="n1cjui-AUTv7zVWOq074-74" value="&lt;font style=&quot;font-size: 5px;&quot;&gt;On-premises networks&lt;/font&gt;" style="rounded=1;whiteSpace=wrap;html=1;shadow=0;strokeWidth=2;fillColor=#F04D22;fontSize=12;fontColor=#FFFFFF;align=center;strokeColor=none;arcSize=6;verticalAlign=top;" vertex="1" parent="n1cjui-AUTv7zVWOq074-140">
          <mxGeometry x="26.560000000000002" y="189.02999999999997" width="74" height="90" as="geometry" />
        </mxCell>
        <mxCell id="n1cjui-AUTv7zVWOq074-75" style="edgeStyle=orthogonalEdgeStyle;rounded=0;orthogonalLoop=1;jettySize=auto;html=1;exitX=0.5;exitY=1;exitDx=0;exitDy=0;" edge="1" parent="n1cjui-AUTv7zVWOq074-140">
          <mxGeometry relative="1" as="geometry">
            <mxPoint x="42.56" y="189.02999999999997" as="sourcePoint" />
            <mxPoint x="42.56" y="189.02999999999997" as="targetPoint" />
          </mxGeometry>
        </mxCell>
        <mxCell id="n1cjui-AUTv7zVWOq074-23" value="" style="rounded=1;whiteSpace=wrap;html=1;shadow=0;strokeWidth=2;fillColor=none;fontSize=12;fontColor=#000000;align=center;strokeColor=#FFFFFF;" vertex="1" parent="n1cjui-AUTv7zVWOq074-140">
          <mxGeometry x="40.56" y="211.27643598615913" width="20.00000000000001" height="53.72304498269897" as="geometry" />
        </mxCell>
        <mxCell id="n1cjui-AUTv7zVWOq074-25" value="" style="verticalLabelPosition=bottom;html=1;verticalAlign=top;strokeColor=none;fillColor=#FFFFFF;shape=mxgraph.azure.computer;rounded=0;shadow=0;fontSize=12;fontColor=#000000;align=center;" vertex="1" parent="n1cjui-AUTv7zVWOq074-140">
          <mxGeometry x="44.31" y="214.72653979238748" width="12.500000000000007" height="11.089619377162634" as="geometry" />
        </mxCell>
        <mxCell id="n1cjui-AUTv7zVWOq074-26" value="" style="verticalLabelPosition=bottom;html=1;verticalAlign=top;strokeColor=none;fillColor=#FFFFFF;shape=mxgraph.azure.computer;rounded=0;shadow=0;fontSize=12;fontColor=#000000;align=center;" vertex="1" parent="n1cjui-AUTv7zVWOq074-140">
          <mxGeometry x="44.31" y="231.97705882352938" width="12.500000000000007" height="11.089619377162634" as="geometry" />
        </mxCell>
        <mxCell id="n1cjui-AUTv7zVWOq074-27" value="" style="verticalLabelPosition=bottom;html=1;verticalAlign=top;strokeColor=none;fillColor=#FFFFFF;shape=mxgraph.azure.computer;rounded=0;shadow=0;fontSize=12;fontColor=#000000;align=center;" vertex="1" parent="n1cjui-AUTv7zVWOq074-140">
          <mxGeometry x="44.31" y="249.22757785467127" width="12.500000000000007" height="11.089619377162634" as="geometry" />
        </mxCell>
        <mxCell id="n1cjui-AUTv7zVWOq074-39" value="" style="rounded=1;whiteSpace=wrap;html=1;shadow=0;strokeWidth=2;fillColor=none;fontSize=12;fontColor=#000000;align=center;strokeColor=#FFFFFF;" vertex="1" parent="n1cjui-AUTv7zVWOq074-140">
          <mxGeometry x="68.06" y="211.02999999999997" width="20.00000000000001" height="53.72304498269897" as="geometry" />
        </mxCell>
        <mxCell id="n1cjui-AUTv7zVWOq074-40" value="" style="verticalLabelPosition=bottom;html=1;verticalAlign=top;strokeColor=none;fillColor=#FFFFFF;shape=mxgraph.azure.computer;rounded=0;shadow=0;fontSize=12;fontColor=#000000;align=center;" vertex="1" parent="n1cjui-AUTv7zVWOq074-140">
          <mxGeometry x="71.81" y="214.48010380622833" width="12.500000000000007" height="11.089619377162634" as="geometry" />
        </mxCell>
        <mxCell id="n1cjui-AUTv7zVWOq074-41" value="" style="verticalLabelPosition=bottom;html=1;verticalAlign=top;strokeColor=none;fillColor=#FFFFFF;shape=mxgraph.azure.computer;rounded=0;shadow=0;fontSize=12;fontColor=#000000;align=center;" vertex="1" parent="n1cjui-AUTv7zVWOq074-140">
          <mxGeometry x="71.81" y="231.73062283737016" width="12.500000000000007" height="11.089619377162634" as="geometry" />
        </mxCell>
        <mxCell id="n1cjui-AUTv7zVWOq074-42" value="" style="verticalLabelPosition=bottom;html=1;verticalAlign=top;strokeColor=none;fillColor=#FFFFFF;shape=mxgraph.azure.computer;rounded=0;shadow=0;fontSize=12;fontColor=#000000;align=center;" vertex="1" parent="n1cjui-AUTv7zVWOq074-140">
          <mxGeometry x="71.81" y="248.98114186851205" width="12.500000000000007" height="11.089619377162634" as="geometry" />
        </mxCell>
        <mxCell id="n1cjui-AUTv7zVWOq074-44" value="Gateway" style="shadow=0;dashed=0;html=1;strokeColor=none;shape=mxgraph.mscae.enterprise.gateway;fillColor=#FFFFFF;rounded=0;fontSize=12;fontColor=#FFFFFF;align=center;labelPosition=center;verticalLabelPosition=top;verticalAlign=bottom;" vertex="1" parent="n1cjui-AUTv7zVWOq074-140">
          <mxGeometry x="58.059999999999974" y="281.9282006920415" width="12.500000000000007" height="12.32179930795848" as="geometry" />
        </mxCell>
        <mxCell id="n1cjui-AUTv7zVWOq074-125" value="" style="rounded=1;whiteSpace=wrap;html=1;shadow=0;strokeWidth=2;fillColor=#8BC63E;fontSize=12;fontColor=#000000;align=center;strokeColor=none;arcSize=3;" vertex="1" parent="n1cjui-AUTv7zVWOq074-140">
          <mxGeometry x="112.83000000000004" y="183" width="157.17" height="118.03" as="geometry" />
        </mxCell>
        <mxCell id="n1cjui-AUTv7zVWOq074-126" value="" style="rounded=1;whiteSpace=wrap;html=1;shadow=0;strokeWidth=2;fillColor=none;fontSize=12;fontColor=#000000;align=center;strokeColor=#FFFFFF;" vertex="1" parent="n1cjui-AUTv7zVWOq074-140">
          <mxGeometry x="120" y="231.97999999999996" width="40" height="58.59" as="geometry" />
        </mxCell>
        <mxCell id="n1cjui-AUTv7zVWOq074-127" value="&lt;font style=&quot;font-size: 7px;&quot;&gt;Azure Vnet&lt;/font&gt;" style="shadow=0;dashed=0;html=1;strokeColor=none;fillColor=#FFFFFF;labelPosition=center;verticalLabelPosition=bottom;verticalAlign=top;shape=mxgraph.office.clouds.azure;rounded=1;fontSize=12;fontColor=#FFFFFF;align=center;" vertex="1" parent="n1cjui-AUTv7zVWOq074-140">
          <mxGeometry x="112.8329113924051" y="180.65605922551254" width="41.394936708860754" height="24.025056947608203" as="geometry" />
        </mxCell>
        <mxCell id="n1cjui-AUTv7zVWOq074-128" value="&lt;font style=&quot;font-size: 6px;&quot;&gt;Gateway&lt;/font&gt;" style="shadow=0;dashed=0;html=1;strokeColor=none;shape=mxgraph.mscae.enterprise.gateway;fillColor=#FFFFFF;rounded=0;fontSize=12;fontColor=#FFFFFF;align=center;labelPosition=center;verticalLabelPosition=top;verticalAlign=bottom;" vertex="1" parent="n1cjui-AUTv7zVWOq074-140">
          <mxGeometry x="127.53139240506329" y="256.36574031890655" width="24.93670886075949" height="22.66514806378132" as="geometry" />
        </mxCell>
        <mxCell id="n1cjui-AUTv7zVWOq074-129" style="edgeStyle=orthogonalEdgeStyle;html=1;startArrow=none;startFill=0;startSize=10;endArrow=none;endFill=0;endSize=10;strokeWidth=2;fontSize=11;fontColor=#FFFFFF;strokeColor=#FFFFFF;dashed=1;rounded=0;exitX=0.467;exitY=0.864;exitDx=0;exitDy=0;exitPerimeter=0;" edge="1" parent="n1cjui-AUTv7zVWOq074-140" source="n1cjui-AUTv7zVWOq074-44">
          <mxGeometry relative="1" as="geometry">
            <Array as="points">
              <mxPoint x="64" y="294.03" />
              <mxPoint x="64" y="296.03" />
              <mxPoint x="140" y="296.03" />
            </Array>
            <mxPoint x="31" y="327.03" as="sourcePoint" />
            <mxPoint x="140" y="279.03" as="targetPoint" />
          </mxGeometry>
        </mxCell>
        <mxCell id="n1cjui-AUTv7zVWOq074-135" value="&lt;p style=&quot;line-height: 40%; font-size: 5px;&quot;&gt;&lt;font style=&quot;font-size: 5px;&quot; color=&quot;#ffffff&quot;&gt;DataBricks prd&lt;/font&gt;&lt;/p&gt;" style="image;aspect=fixed;html=1;points=[];align=center;fontSize=5;image=img/lib/azure2/analytics/Azure_Databricks.svg;labelBackgroundColor=#8BC63E;spacing=-3;" vertex="1" parent="n1cjui-AUTv7zVWOq074-140">
          <mxGeometry x="210" y="238.02999999999997" width="30.48" height="33" as="geometry" />
        </mxCell>
        <mxCell id="n1cjui-AUTv7zVWOq074-137" value="InfraStructure Resource Group" style="text;html=1;align=center;verticalAlign=middle;whiteSpace=wrap;rounded=0;" vertex="1" parent="n1cjui-AUTv7zVWOq074-140">
          <mxGeometry x="26.560000000000002" y="152" width="170" height="30" as="geometry" />
        </mxCell>
        <mxCell id="n1cjui-AUTv7zVWOq074-132" value="&lt;p style=&quot;line-height: 40%; font-size: 5px;&quot;&gt;&lt;font style=&quot;font-size: 5px;&quot; color=&quot;#ffffff&quot;&gt;DataBricks Dev&amp;nbsp;&lt;/font&gt;&lt;/p&gt;" style="image;aspect=fixed;html=1;points=[];align=center;fontSize=5;image=img/lib/azure2/analytics/Azure_Databricks.svg;labelBackgroundColor=#8BC63E;spacing=-3;" vertex="1" parent="n1cjui-AUTv7zVWOq074-140">
          <mxGeometry x="210" y="189.02999999999997" width="30.48" height="33" as="geometry" />
        </mxCell>
        <mxCell id="n1cjui-AUTv7zVWOq074-136" value="WebSite" style="verticalLabelPosition=bottom;html=1;verticalAlign=top;align=center;strokeColor=none;fillColor=#00BEF2;shape=mxgraph.azure.website_generic;pointerEvents=1;" vertex="1" parent="n1cjui-AUTv7zVWOq074-310">
          <mxGeometry x="60" y="99" width="50" height="42.5" as="geometry" />
        </mxCell>
        <mxCell id="n1cjui-AUTv7zVWOq074-169" value="" style="rounded=1;whiteSpace=wrap;html=1;" vertex="1" parent="n1cjui-AUTv7zVWOq074-310">
          <mxGeometry x="270" y="65.5" width="1090" height="307.5" as="geometry" />
        </mxCell>
        <mxCell id="n1cjui-AUTv7zVWOq074-170" value="" style="rounded=1;whiteSpace=wrap;html=1;" vertex="1" parent="n1cjui-AUTv7zVWOq074-310">
          <mxGeometry x="561.5" y="430" width="320" height="130" as="geometry" />
        </mxCell>
        <mxCell id="n1cjui-AUTv7zVWOq074-172" value="Azure CosmosDB&amp;nbsp;&lt;br&gt;Documents" style="image;sketch=0;aspect=fixed;html=1;points=[];align=center;fontSize=12;image=img/lib/mscae/CosmosDB.svg;" vertex="1" parent="n1cjui-AUTv7zVWOq074-310">
          <mxGeometry x="750" y="72" width="50" height="50" as="geometry" />
        </mxCell>
        <mxCell id="n1cjui-AUTv7zVWOq074-179" style="edgeStyle=orthogonalEdgeStyle;rounded=0;orthogonalLoop=1;jettySize=auto;html=1;strokeWidth=0.5;" edge="1" parent="n1cjui-AUTv7zVWOq074-310" source="n1cjui-AUTv7zVWOq074-173" target="n1cjui-AUTv7zVWOq074-6">
          <mxGeometry relative="1" as="geometry" />
        </mxCell>
        <mxCell id="n1cjui-AUTv7zVWOq074-173" value="&lt;font style=&quot;font-size: 8px;&quot;&gt;Function Receive Message &lt;br&gt;From wehHook&lt;/font&gt;" style="image;aspect=fixed;html=1;points=[];align=center;fontSize=12;image=img/lib/azure2/compute/Function_Apps.svg;" vertex="1" parent="n1cjui-AUTv7zVWOq074-310">
          <mxGeometry x="300" y="79.33000000000001" width="48" height="42.35" as="geometry" />
        </mxCell>
        <mxCell id="n1cjui-AUTv7zVWOq074-175" value="webhook assign" style="shape=image;verticalLabelPosition=bottom;labelBackgroundColor=default;verticalAlign=top;aspect=fixed;imageAspect=0;image=https://symbols.getvecta.com/stencil_27/122_webhooks.8637a2920f.jpg;fontSize=10;strokeWidth=4;" vertex="1" parent="n1cjui-AUTv7zVWOq074-310">
          <mxGeometry x="140" y="99" width="30" height="30" as="geometry" />
        </mxCell>
        <mxCell id="n1cjui-AUTv7zVWOq074-6" value="&lt;font style=&quot;font-size: 9px;&quot;&gt;Web Events Message&lt;/font&gt;" style="image;aspect=fixed;html=1;points=[];align=center;fontSize=12;image=img/lib/azure2/iot/Event_Hubs.svg;" vertex="1" parent="n1cjui-AUTv7zVWOq074-310">
          <mxGeometry x="410" y="85.50999999999999" width="33.5" height="30" as="geometry" />
        </mxCell>
        <mxCell id="n1cjui-AUTv7zVWOq074-188" style="edgeStyle=orthogonalEdgeStyle;rounded=0;orthogonalLoop=1;jettySize=auto;html=1;" edge="1" parent="n1cjui-AUTv7zVWOq074-310" source="n1cjui-AUTv7zVWOq074-183" target="n1cjui-AUTv7zVWOq074-172">
          <mxGeometry relative="1" as="geometry" />
        </mxCell>
        <mxCell id="n1cjui-AUTv7zVWOq074-189" value="Store" style="edgeLabel;html=1;align=center;verticalAlign=middle;resizable=0;points=[];" vertex="1" connectable="0" parent="n1cjui-AUTv7zVWOq074-188">
          <mxGeometry x="-0.4248" relative="1" as="geometry">
            <mxPoint as="offset" />
          </mxGeometry>
        </mxCell>
        <mxCell id="n1cjui-AUTv7zVWOq074-184" style="edgeStyle=orthogonalEdgeStyle;rounded=0;orthogonalLoop=1;jettySize=auto;html=1;entryX=0.896;entryY=0.716;entryDx=0;entryDy=0;entryPerimeter=0;" edge="1" parent="n1cjui-AUTv7zVWOq074-310" source="n1cjui-AUTv7zVWOq074-183" target="n1cjui-AUTv7zVWOq074-6">
          <mxGeometry relative="1" as="geometry" />
        </mxCell>
        <mxCell id="n1cjui-AUTv7zVWOq074-194" value="" style="shape=image;verticalLabelPosition=bottom;labelBackgroundColor=default;verticalAlign=top;aspect=fixed;imageAspect=0;image=https://www.diegocalvo.es/wp-content/uploads/2018/07/spark_streaming_logo.png;" vertex="1" parent="n1cjui-AUTv7zVWOq074-310">
          <mxGeometry x="462.22" y="89.24000000000001" width="27.78" height="17.52" as="geometry" />
        </mxCell>
        <mxCell id="n1cjui-AUTv7zVWOq074-246" style="edgeStyle=orthogonalEdgeStyle;rounded=0;orthogonalLoop=1;jettySize=auto;html=1;" edge="1" parent="n1cjui-AUTv7zVWOq074-310" source="n1cjui-AUTv7zVWOq074-183" target="n1cjui-AUTv7zVWOq074-245">
          <mxGeometry relative="1" as="geometry">
            <Array as="points">
              <mxPoint x="515" y="193" />
            </Array>
          </mxGeometry>
        </mxCell>
        <mxCell id="n1cjui-AUTv7zVWOq074-265" style="edgeStyle=orthogonalEdgeStyle;rounded=0;orthogonalLoop=1;jettySize=auto;html=1;" edge="1" parent="n1cjui-AUTv7zVWOq074-310" source="n1cjui-AUTv7zVWOq074-183">
          <mxGeometry relative="1" as="geometry">
            <mxPoint x="216" y="253" as="targetPoint" />
            <Array as="points">
              <mxPoint x="515" y="253" />
              <mxPoint x="216" y="253" />
            </Array>
          </mxGeometry>
        </mxCell>
        <mxCell id="n1cjui-AUTv7zVWOq074-183" value="&lt;div style=&quot;&quot;&gt;&lt;font style=&quot;font-size: 12px;&quot;&gt;Extract&lt;/font&gt;&lt;/div&gt;" style="image;sketch=0;aspect=fixed;html=1;points=[];align=center;fontSize=12;image=img/lib/mscae/Databricks.svg;" vertex="1" parent="n1cjui-AUTv7zVWOq074-310">
          <mxGeometry x="490" y="83" width="50" height="48" as="geometry" />
        </mxCell>
        <mxCell id="n1cjui-AUTv7zVWOq074-201" style="edgeStyle=orthogonalEdgeStyle;rounded=0;orthogonalLoop=1;jettySize=auto;html=1;" edge="1" parent="n1cjui-AUTv7zVWOq074-310" source="n1cjui-AUTv7zVWOq074-198" target="n1cjui-AUTv7zVWOq074-172">
          <mxGeometry relative="1" as="geometry" />
        </mxCell>
        <mxCell id="n1cjui-AUTv7zVWOq074-198" value="&lt;div style=&quot;&quot;&gt;&lt;font style=&quot;font-size: 12px;&quot;&gt;Transform&lt;/font&gt;&lt;/div&gt;&lt;div style=&quot;&quot;&gt;&lt;font style=&quot;font-size: 12px;&quot;&gt;Load&lt;/font&gt;&lt;/div&gt;" style="image;sketch=0;aspect=fixed;html=1;points=[];align=center;fontSize=12;image=img/lib/mscae/Databricks.svg;" vertex="1" parent="n1cjui-AUTv7zVWOq074-310">
          <mxGeometry x="910" y="166.82999999999998" width="50" height="48" as="geometry" />
        </mxCell>
        <mxCell id="n1cjui-AUTv7zVWOq074-199" value="SandBox DataScience" style="text;html=1;align=left;verticalAlign=middle;whiteSpace=wrap;rounded=0;" vertex="1" parent="n1cjui-AUTv7zVWOq074-310">
          <mxGeometry x="571" y="405" width="146" height="30" as="geometry" />
        </mxCell>
        <mxCell id="n1cjui-AUTv7zVWOq074-177" style="edgeStyle=orthogonalEdgeStyle;rounded=0;orthogonalLoop=1;jettySize=auto;html=1;entryX=0;entryY=0.25;entryDx=0;entryDy=0;exitX=0.995;exitY=0.66;exitDx=0;exitDy=0;exitPerimeter=0;" edge="1" parent="n1cjui-AUTv7zVWOq074-310" source="n1cjui-AUTv7zVWOq074-176" target="n1cjui-AUTv7zVWOq074-169">
          <mxGeometry relative="1" as="geometry" />
        </mxCell>
        <mxCell id="n1cjui-AUTv7zVWOq074-221" value="message" style="edgeLabel;html=1;align=center;verticalAlign=middle;resizable=0;points=[];" vertex="1" connectable="0" parent="n1cjui-AUTv7zVWOq074-177">
          <mxGeometry x="-0.2111" y="-2" relative="1" as="geometry">
            <mxPoint x="1" y="-3" as="offset" />
          </mxGeometry>
        </mxCell>
        <mxCell id="n1cjui-AUTv7zVWOq074-200" value="&lt;span style=&quot;font-family: Aptos;&quot;&gt;&lt;font style=&quot;font-size: 15px;&quot;&gt;In-house&lt;br/&gt;developed &lt;br&gt;Machine Learning&amp;nbsp;&lt;/font&gt;&lt;/span&gt;" style="image;aspect=fixed;html=1;points=[];align=center;fontSize=12;image=img/lib/azure2/ai_machine_learning/Machine_Learning.svg;" vertex="1" parent="n1cjui-AUTv7zVWOq074-310">
          <mxGeometry x="705" y="453" width="23.53" height="25" as="geometry" />
        </mxCell>
        <mxCell id="n1cjui-AUTv7zVWOq074-223" value="&lt;div style=&quot;&quot;&gt;workspace&lt;/div&gt;" style="image;sketch=0;aspect=fixed;html=1;points=[];align=center;fontSize=12;image=img/lib/mscae/Databricks.svg;" vertex="1" parent="n1cjui-AUTv7zVWOq074-310">
          <mxGeometry x="591" y="440.71000000000004" width="37" height="35.52" as="geometry" />
        </mxCell>
        <mxCell id="n1cjui-AUTv7zVWOq074-224" value="" style="shape=image;verticalLabelPosition=bottom;labelBackgroundColor=default;verticalAlign=top;aspect=fixed;imageAspect=0;image=https://images.datacamp.com/image/upload/v1714478776/re388xshtgihucfiiavf.png;" vertex="1" parent="n1cjui-AUTv7zVWOq074-310">
          <mxGeometry x="777.01" y="461.23000000000013" width="83" height="81.77" as="geometry" />
        </mxCell>
        <mxCell id="n1cjui-AUTv7zVWOq074-222" value="Servless" style="image;aspect=fixed;html=1;points=[];align=center;fontSize=12;image=img/lib/azure2/analytics/Azure_Synapse_Analytics.svg;" vertex="1" parent="n1cjui-AUTv7zVWOq074-310">
          <mxGeometry x="595" y="499" width="34" height="39.1" as="geometry" />
        </mxCell>
        <mxCell id="n1cjui-AUTv7zVWOq074-225" value="worspace" style="text;html=1;align=center;verticalAlign=middle;whiteSpace=wrap;rounded=0;" vertex="1" parent="n1cjui-AUTv7zVWOq074-310">
          <mxGeometry x="789.12" y="524.77" width="58.77" height="30" as="geometry" />
        </mxCell>
        <mxCell id="n1cjui-AUTv7zVWOq074-226" value="" style="rounded=1;whiteSpace=wrap;html=1;" vertex="1" parent="n1cjui-AUTv7zVWOq074-310">
          <mxGeometry x="275" y="603" width="1085" height="130" as="geometry" />
        </mxCell>
        <mxCell id="n1cjui-AUTv7zVWOq074-227" value="Monitor and govern" style="text;html=1;align=left;verticalAlign=middle;whiteSpace=wrap;rounded=0;" vertex="1" parent="n1cjui-AUTv7zVWOq074-310">
          <mxGeometry x="290" y="581" width="146" height="30" as="geometry" />
        </mxCell>
        <mxCell id="n1cjui-AUTv7zVWOq074-233" value="" style="group" vertex="1" connectable="0" parent="n1cjui-AUTv7zVWOq074-310">
          <mxGeometry x="1060" y="73" width="255" height="130" as="geometry" />
        </mxCell>
        <mxCell id="n1cjui-AUTv7zVWOq074-208" value="" style="rounded=1;whiteSpace=wrap;html=1;arcSize=0;" vertex="1" parent="n1cjui-AUTv7zVWOq074-233">
          <mxGeometry width="255" height="130" as="geometry" />
        </mxCell>
        <mxCell id="n1cjui-AUTv7zVWOq074-204" value="Bronze" style="verticalLabelPosition=bottom;html=1;verticalAlign=top;align=center;strokeColor=none;fillColor=#8C7853;shape=mxgraph.azure.storage_blob;" vertex="1" parent="n1cjui-AUTv7zVWOq074-233">
          <mxGeometry x="26" y="9" width="50" height="45" as="geometry" />
        </mxCell>
        <mxCell id="n1cjui-AUTv7zVWOq074-205" value="Silver" style="verticalLabelPosition=bottom;html=1;verticalAlign=top;align=center;strokeColor=none;fillColor=#C0C0C0;shape=mxgraph.azure.storage_blob;" vertex="1" parent="n1cjui-AUTv7zVWOq074-233">
          <mxGeometry x="106" y="9" width="50" height="45" as="geometry" />
        </mxCell>
        <mxCell id="n1cjui-AUTv7zVWOq074-206" value="Gold" style="verticalLabelPosition=bottom;html=1;verticalAlign=top;align=center;strokeColor=none;fillColor=#D4AF37;shape=mxgraph.azure.storage_blob;" vertex="1" parent="n1cjui-AUTv7zVWOq074-233">
          <mxGeometry x="183" y="9" width="50" height="45" as="geometry" />
        </mxCell>
        <mxCell id="n1cjui-AUTv7zVWOq074-210" value="" style="shape=image;verticalLabelPosition=bottom;labelBackgroundColor=default;verticalAlign=top;aspect=fixed;imageAspect=0;image=https://www.databricks.com/sites/default/files/delta-lake-logo.png;" vertex="1" parent="n1cjui-AUTv7zVWOq074-233">
          <mxGeometry x="24" y="90" width="42" height="34.28" as="geometry" />
        </mxCell>
        <mxCell id="n1cjui-AUTv7zVWOq074-220" value="Gen 2" style="shape=image;verticalLabelPosition=bottom;labelBackgroundColor=default;verticalAlign=top;aspect=fixed;imageAspect=0;image=data:image/png,iVBORw0KGgoAAAANSUhEUgAAAKkAAADFCAIAAACggUVZAAAgAElEQVR4Ae2dh1cbV77H37/xNs4mTl7abvbt7jvZPftiNDQ33J3EjgvFxsS4x14njts6jp21n0scx3HDYEASolcVJDqoIToqSPRmTBMCVEBtZvTO1YCChRCgglVG5x5pNNLM3Lmf3/f3+9077T9M+MtfW+A//HXH8f024ez91whw9jh7/20B/91zXPc4e/9tAf/dc1z3OHv/bQH/3XNc9zh7/20B/91zXPc4e/9tAf/dc1z3OHv/bQH/3XNc9zh7/20B/91zXPc4e69qAdSEghd4RxAURlAjghgQ1ICiBgTVG+FpnVGpNYxP6Uc0uiHVdO/4VItC0zSqEgxNsgcnKgbGS16MF/crmL1yRu8Yo0/B7FewBsZLXo6XD01WjSqrx9QN4xqxUtut0Q1O6Ue1BoXOOGGANTCigxE9ti0ENaIojKKIyQRqYgLFy15eo3szZsAYRvRTBoViqm1MLXqhKBUPxAu6f+C1f13dcQyUzqP8jlhuWwyn7RCnNZrTdoDdGlEp21Pe8kW59LNSyfZSydZiUDYXiTcVicOKRBuLxGHFks3Fki2lkq0l4q3l0p3l0i/KpV9WyvazWw9w26I5rdG89hhe+2F+Ryy//Wh1xzF++yl+54Wm/l/6xlhj6maFplWtGzYiWgQ1wMAKYa+wAg9lj5pQBDUaYM20Qa7S9o1PtXaNFnDbL7LEu1ninSWSHSWSbWZUm1mi9SxhKEsUwhIFm99D3P3OBBsKZolCmcK1xeJNpaAm20rE24vEOwpFO4skUcL+J2NqoUrbO60f0cMqGNEDJ+V5L89ij6BGhUbWK2f0jOa0Dj4X9t/htZ8qEn/GFIaxhOvMzT2Dlglge2xZyxRuYIq2ctqONvfdkL6M65Fn947Rh5S1WsOk59jAa2MPYjVqhBGd3jip0vYNTrBlQwnC/tuVsuhC4VqmMNhSVkzQrjam33aBKQwuFIaWtOyq674kffm4b6xwQtOqNyqNyDSCGMxJw2swidfAHjUhRlij1vZ1jGRx20+XS/eWS3eVtGxlitYyhSFMIeZRPVbTzlQMWANLFFos2VTW8lmFbE+57KD0ZYJCIzPAagQxrDD/FWVvhLXK6Z7Okewi8W6QXok3MIUgTnu2A3cG9qLLBrNE64pB1rmzse9nuVo0bVCsWJdhJdjDqF6uFncMpwv7f6pq/YolWm82/0XbxY/+AAKcKKRIvK2m66L0ZfzABE8Pa9ztBtzIHkVRI6KVq6VNfXcrW6OYs1Hc1WHVF0xk1vOBoFAoDC6V7OJ1XOgf5xlgjfuyAXexR1CjRjcgGYhnirab83MfjuLuML5gczTcXNfz78npLiOic4cPcAt7vVHdOZrObosuEq0FWToI6nhZXguY2YeYE8Pt4oHH41PdLsfvevZ6WNnc/xPL7OFx5C5oAdDdXcdu+3pwsg41IS60ABez1xknxAMPWaINLthn3FXMaQGmMLRcGt2nqEDAEQTXvFzJHjWh4peUYvE2lggbZF2el8PNxX4LFDYH8TsvTUy/dA15k+uuw0VRdEo/Wtkajfff7CN0+FemMIgl/rxbXuyB7JEXE5yylt04e4fpLrZgMK0pWDZE8Tz2JrRLXlLW8gXOfjGEDofCYFpTUOsQeYnsFz14aC/eIwhiNBqXuiUTOqKSFkvCC4VBXnv0xWEqK7EgEJV4e7ecvlQiKArD9s4ksMfeYDAolcpFzcdSFRgxSgazCkU7ZvumK9Ei9kVWJArBSrE4xFxCi8WLFvDPIvHMgpb1v+6dCmY0Bwq6Lqm0A5YGtz8BMrCpKQRZsF9gj71Wqx0YGFAqlfa3YfkVRVGdUdXUH18EDtK48UwKy+HdQmEwozmY3hREAyWQ2hSIvec1QNl1BIrg02fsvz8o/587xX/+kfmnHxh/vEL/6BL1owsFH36X/8E3ee+fyX3vTM57Z/Pe/zb/g/MFH16ifvQv+kffM/7wY+HHt4v//Ev5/zyt+oRc/WlWfUB+A0RtBOvHNkFrCqI3BzGawfhr4ezhZouVuGECDPNVSPcPjC+jj4ei6NjYmB3p22Ov0+lEIpFYLLbQXXQCNaFq3Yig+0aJ5HPnhVJk7uAWCkGcy2+EcuqhzNoASs2nyfx/xHP+/rjqk59K/3K98OOL1A+/zXv/TM57J7PfPZbxzpGM1YfT3/4q7e1DaW8dpPw+MuXNcNKq/aC8sY84U/YS35hfsF/3k97YT3ojnLQqgvxmVMrvD6W+FZP2dmz66iPpq49lvnMq+90zOe99k/f+BeqH1wo/vlf618eVnyRw/k7k/2+qYE1mbUB2PSGvIZDWFFRotn5sF5yxBvNpQuu4bUe6R6lGeHpRBJY/GAwGqaxVr9db5lhN2GMPw3BxcXFiYuLSoz62diOs65YXV8iO0ZuXHfvBUQ1hCKM5OKsuIJn3jydVn9wt+cu1wo8vUT/6JveD45nvxKS+FU5a9WXy775M+h14N5c9yb+zW2yQns/eao7dFYLNzWw9CUxHkN+MSX3rROY7/8x97wL1w+uFf/yp5C9Pqv6WzP9HVh0Bs4PZAzbYOQpLCohMYUiJZIdk4LFqundZx3YRBOnv76+urtbqFjwWYI89giD5+flRUVF8Pt+O67CyJuwrgiKj6tbqrh8LhZsLhYE2sz9LXAAhWQwO5OfUE+LYf7tb8ucr9D+czH43mvL7cPKqfcQ3bGKwQvUav+6xVcO9xDciyKuiU986mf1fVxl/vFf612fsv2XUBRQKg0E+MWfMzpZXCGYKg5hCiN12+MV4GYwuqF2bjW8ymaampkpLy6rYbMfZFxQUBAYGRkdH19TULFf9KIrojKpxTatk4GmFLIIlWofFaWxXmcJgalNgWs2ax5Wf3GT993f5HxzNAJo+kPJmBGmWty3P/BoZO7BpzCz2me3gQArwDccyV3+b9/4N1p+eVH1CEXxa0Bho0QA4jcWcPZRIdjT23ZSr6qb1owi61K6WxQ4UCkVpWRk5hVJVxdY5pnsURalUKsH8+uqrr3g8np3gYdmw1QSKojCiV073Sl484bTHlrV8VtAUlF77aTznb9/T/3A47e1w0qp9JOCTrdXj/eAttjLXb+0l/m4vEaQU+0mrYtLeukT7KI7997Sa/81rCGCK1le1hgu6Lg6MVzp85F6r1fL51eQUSjKRVFlV5Th7Go1GIBAgCFqzZk10dHRjY6OdPoMVdauvKAorp3teTpQ39sc/r445kfXnfcQ39xJX7TWHaksz+c+ExSAOUlbfKd1e1XG7czRrTN0EO3q0HuvU1Tc0pKalJyUTk4mkKrYTurewxyzg+PHjtbW1y3X+VkaAoIhSO9Y9Jq7qzHzCPX088xMg+jnJmq/in7uPXyb/56HUD64wtpHqvm8aKJerBwzwsoO6VcNOTExUVrHJKRQMvMvYQxBEIBACAwM3bdp0/fr1tra2pY/5WFXR8tWIGKYMqonpEbnmRae8mdOVS6n/8Spz57f5wYfT/7Qn+RWD2JMMXKVXlLmMsenIlNVHMv5yriD0Zsl+Yu2VsjZyyxBPrhlQase0BheclaVUKmtqa7NzcogksgV8MpHEZnNc4POh2ReBQAgJCTl58mRJScnw8LDzFjBrCuCqNgSFDbBuTDPI7c59LrjwhHvmbnn098ztp3PX7Ce9Nb9N95hj52s0iD1EG33LfaQ3D2f86VxB6I3iPQ+qjj3jf5MjvFffXzSmeWkE15QZERQxX1Do7MU6KIpqdbqBgYGqKjaRRE4mkuaCN7N3hc+fRQ8+sewvLCzs/PnzhYWFg4ODy+0BzvJe5BNFUY1uclDZJRuuZndmlrWlMKUJOcJ7yYLLt0ujLtLDTmR9cijtwwOU9yJT3o0gvxNBXr2f9Pt9xFVucRLJb+wnvRlOfjsyZXVUyrsHUv7rYOr7RzP/eo4aerNkXzz/XEbjLZrkSUkrsbIjveFFcZe8WTE1aIB15is1F9nT5f6MUe/r66+qYmdlZ8+nnkwkOcueTqdjkX4uewt+CIJCQ0OPHDnC5/ONRiOCuMac7TSEuddgNMA6rVGj0U+qtOOTWrliarBvXNo8UF7SSiLVfX+VuTOK/E5kyurIlNUR5LfNZXX4zIT5K+ntiIWK+W/mP6+OIIPFLes5nP7x/aojVMkjQS+tU940qn4xMT2q0ik0eqXWqDHAOkzQdirv/E+Yt4BhWKEYLyktTaGkLkTdjewtpoBZxpYtW86cOZOQkMDj8Xp7e7VarfP7ucw1oDACGxGDHtZOG1QqnUKlVah0CqV2TKmVT2pHx6eG5OoXQ8ruFxNtPQpxj0LUIW9sH61rH63rGG3sGhP2KiR9ipaXkx2j6v4xzcuJ6RGlVq7UjqlAAatS68a1hhnG7pCy/f1FEESj0QwODUlapOUVlRkZmfaprwR7zAiwKEAgEDZu3BgbG/vw4cO6urqpqSn7+4P/upQWQBBEoVAIhaKS0tLMrBn3bhXXMdLz39kcJ3K9hXy+RfdzJzALCAgICAwM3L179/Xr11ksVnd3t1Kp1Gq1RqPRdYnhUhrNW/+DnTah1+tVKlV/fz+Pzy+gUsnklKRkIlbmM15ojlP9+2Wxn2sHEAQFBgYGBwevX78+Njb2wYMHLBaro6NDrVY7PDrkrTCXVm+QysCwSqXq7umpb2hgFDJTKKkkcspCXJcyf+V0b8Ue+4olBJgdbN++/cKFC3l5eTwer7OzU6Nx+yVnS2v21/kvvV4/MTkx8PJle3uHoKYmv4Bq4b1Ex27HCF4z+7kGgQWF4ODgbdu2xcTEXL58OTExsb29fWX6CK+TMLgpz28vBEEMBsPQ0FBDQ2N5RQWdUZiZlUUig2GZ5Xp1O+CdHddzxufPpW6ZtmSFBAIhICAgJCRk7969J0+evH79elpaWn19/eDg4PDw8NjYmFqt1ul03hsgwKWoRqPBYNDpdBrNlEqtlsvlPb29jY1N5RUVjEJmVjYYhktMSnY5cotBsJ0Zz3c5e4sRWE0EznkFBwfv3r376tWrmZmZ1dXVEomkvb29p6dneHhYo9G4aRzJSa+AoqjBYJjWalUqlUKhGB4e7u3tlUgk1dXVrKLi9IxMbNzNQmVlJryD/VxTwHwDBEFBQUHB5tfatWu3bNly8ODBH3744eHDh0QiMTMzMzc3l8FgVFRUCASCzs5OhUJhMBjc2pVAEESr1Y6Pj78cHOzu7uno6GhtbZO0tAhFovr6eg6XV1xSUlBATUvPsJDGYrZrPfnS7cap4/crpvu57BeanmsTISEha9euDQsL27Zt265duw4cOHDixImzZ8+eO3fu/PnzFy5cuHjx4qVLl65cuXLt2rVbt279NOd1586dW7duJSYmcnm8hsamurr6mtrampramtpaQU2NoAZMVwtqeHw+l8tjszlVVezyisrSsrLi4hImq6iASsvOyU1Lz0hNSyenUMyYwVg6NtjifIK2dLSL/tOpPp7lGO5CPFZ4/tx0YdFprG6BgYFB816BgYHhEREPfn1ITqGQyCkkcgqRRLYqc1vWEpIXnZi71Gufdoq9R+nehXYWEBCwd9++n+/ff+143FoBnL0Nm8HZm+xfh4uiKK57t+rS3SvHdY/r3nYH1t75+bju3a1Ld68f1z2ue1z3c2wAz/XwXM/H+3jeN6Y7R5/umvQT3ePsbRgQzh73+bjPt50GgtMN8LEdd3fD3Lp+3OfjPt+2uPGxHXDs1VcLrntc97ju59gAnufjeT6e59t2CXie7/V5AB7v5/j62Ul/8fkrdj3ebMN6waefsK9y5r4b+NiOV3f/8OP3NvyQ3+jeiXuu4Lr3at07da8lnL13s8dzvflO3098Pt7Hm48ewtnj43r4uB4+ruejh/Jwn++/Pp+D53rz4ftLvMfZ4+xtRnX8vB2vP1hnZwQC3GfLsWclofi5ml6eA3K4XJy9tdf3o3iP694Kvp+w53Bw3VuRh/xlXI/L5eE+3xq+v+iey3X8mSn4cTw7WbTn/8Th8nD2fqp74PMdfjYirnvPF7edGnJ5fJy9v+qeh+veGr3f5Pk8vp3H2OJjur48psvjO8He0+6nO0/ADs7wkz6e/cdXL6J7nL2dTMrzf8J1b8M3+IvucZ8/Hz7OfvFzNT3L5xMIEIEwH6QDc1zPPpmYjBVPOuzrQz4/bBu0bqMDpOcv4lr2ScmkBFLKvdS85yQysACPwe8T7AkEKHQddOYWdOQyFLJ2PsvlznEl+2RiIpH8f2n0o/kNd1MLkgB4T8HPdybeU6lUm8/BXm5bO/V/AgHasBk68QP0sBT6mQHFfAuFrnfS+buQfRKR9Csl+2h+QyRN+nVezX1KXiLRU9Tv5ewJBCD0MzehR+XQMy4oD0ug41cBeydiv0vYA4knE5+Q08/kVkfQpOF0WQRddrQAqN9DPL+gpsbhcT0TlUYnQIFOqdbJhTftgM7eBbwx8Nj7PSoUdQoKddz5O88+iUhKIpIeUHLO5PAjaS1m8Gb8NOnXuYJfKDlA/USiOQS8hqHDJCIpkUTh1Tfq9AabJ+kukucbYSS7ohraFeWkyByhj8l68w7ochz0tOoV8M+4UBwHelQKbCJsm2Pqd5Y9eHgp6T4l51h+fQRdGk4DiscKMAKa9HBB07/TmQnElNfjAJKJceS0K1ll+Q1tWoPREfYGozG9qZdwMx3aFwsFh0KEAEcoOrAMgQAFBkE79kIXH0NxbAA+jvMKfuzr0yron3dA5k8IWK4FOMwe8/MJJMqtNNrR/AbMz1vAz0yY/f8hqujfGUws9q+Y+pOSScRk4q+UrLM5vCh6S4GoW2eEHWGvMxjTGnsJcRzoFxZ04hpIuJwIsUuyAWz9QcHA2m7nQk/N4Od6e6vph6XQNSL0RSSwleVkAI6xx/z8MxLlSmZpNFUMFD8rd2v8ZvXHUIXf5HAfkzOwBd3d98Ps8ufUvFN5NZE0aSRDypD0Osheb4RTG3oCMJE9Lgfud/cBaO0GQNEdRkAgQMEh0I4voZPXobv5M0KPM+d3Vshf+cqB7uaB5H/TDigoeIkVc4B9UjLpGSn1Tir1bC7/IE0cTpfZA2+2Ccz/n8iru51Ge0pKS0wGuaFbLCCZ+JyY8jAl62pmyZH8RpB40mSRDCld0uMweyPFwh40Nwd6wITO/QztOjDTyi6xAIteN+2EYi9CP9NtOPlXYM+zhjgO8BA306HD56FNOyEocFEfsAz25tG6BBLlXmr+uWz2bFr3W4C3oXgrZ0CTRtFavs4V3EhnPCWlY+p0kRGAwcQkIulRSua/sspiC5owa8OqBNiLXcbe3OjxPOjnQujUj9CX0aCfveZTKMAcbpc72EoggAXXfArMaOd+6Mi/oB8pM07eKrrbBz/31zg2dCMNOnIJ2vI5SALWrJlNBawrZ4e9hQ1oVyLxKTn9ZhrjXA7nINWidenivOfgxzxEOF0WSWs5lSf4dzrzCTkdrDs5GVjAMkeC51YvKZn0S0rO1cziE/m1M36I9lvdIhlSmsPxXm+00v2s4OI40JNK6H4haOh/3oEijkObtkNBIVDgrOAwKS/0bn7CNbQ+DFjP8e+hq0lA648rrBO6uVCXPh3HgR6XQ3cLwGqP/Qv6PAJavwmYFxanZqv0CnsLALOGEonkeBLlASXnekbRtznco/kNB6liS/d9WdRt/JkmPUCVxBY0ns6tvpZRdJ+S+4ycmmgeJ/jNDubUZ+5MLGl4TiQ/JaffTqNdzqo4lVfzVUFzFK3FxobowOcD9o7l+a/E+4Va/2klGG67R4UuPAR97s/2Q1u/AF2vjVteKWFbobDt0ObPoG27oT0x0Omb0O1s0Gt3FfL51QNGUAH9WgzdyQWJ6ueRYNNbPoPCdkAbtwas37znYMztX5/EkdOfktIfkzMepWT9mpJ9j5J3JbP0eH5dNFUURZNgyJcS2m22vs2ZFoFG0STRVPGR/IYrmaX3Kbm/pmQ9Imc+IWc8JaU/JaVh5QnZXDdy5sOUrF8ouT9mME/nVh+iig5QJZG0lggayDkWSjsiGVKqM+wpDT0gz5/fsjbm8KBnPOhRGfRTPnSNBH2f8Eq5mgRdJ0P/lwndo5n767xlB3UbW5z1Q3Z+wiofzzM7KgZ0Kxu6ngJdTSRcSfjsZtIpEutMruB0ruBEfl1sQVM0VYSFc3PUXE5En+PhbfK2MxODF0mTxlCFR/MbTubVns4TnM6txsqp3JoTebXH8utjqMIo8wiSHdhWWwG6F/c4qHudwZi6DPZzSZjt4Nn897n/WcHpV8wX1IrwjLc9viwqsyac3oq1puU9gv5byLRqTfd9tWzd/sSy6uaUzwfsG5eu+xVkaUfoS/uJEMedZb9C+naf3Sy05pk837F474TuPd0O/IQ9TdTt4Jiu3jKutzQxLS0t8Aiz8BP2TvTvfZr9tviySBDvfd3nOzae79u6x9nbOz8fZ79QGuUV850b08V9vjdHBGfZ+3Afb2t8eWQmGAb3ChE7UEmcve1uBSGOi7O3F+8NRjjNwXE92y3uOZ1AnP0i5+uBc7aw83Z8sX+P6d4BX+otizjl82fO13tlMNzTBb1E12LWfUVkZq23gHSgnjh728ZKiONuia+IwNkvdB6nb/t8nL39XM+X4/2W+IrwrDoHfKm3LOKkz4d9ONfD2dvXPc7ei0d+cN3by/Vwn79QqmcyGH1Z95vjK8Oz6r0leDtQT1z3C+oeZ++/8X5zfOV+n9e9w9dk+bbP34SzXzDam3w83m9K8APdO3w9no/r3g/YO34NNs7egezacxZx6vp7nL3ngHSgJjPsHbs2w9fZV/l8ns9o6XXwejzfZh+WULXP1/t4zrFvMt9vxxfP28HZ++/Yjpl9gwNx1FsWAfEe9/nzT+QixHHDEtj7snydvcTReK/36XM1w56z92X7OnsndO/L5+3g7O3He19mv/E5e292o7cEbwfq6WS8x9l793k7YEzX4bGdmXuq+mIfzx90X+gEe2NGU9+S77Nl+yyJ+Tm2J8whxHH9gT2zxdH76aIoSpMOEuLm3cba+90Axn6Pr8f76q4hI+zQfbRNJlNl12joMzbB+2FbORtCHHfDc7YPsw+nSaPosq7RSRRFFjpFw16ebzKZesc13xWKZm6l7UMWYGbP8WH2EXTp5SLx+JRuIfCLXIeLLUaTDq1N4PpY1J9l3+RA38nzFwmnSQ8XSut6hmB4QdEvib1cPf0Lp21DIt/KbXr1Vx9mH06XRdMliTUdaq3ejuiXxN5kMo2qtd8xW4LiQSbvG7HfV9mH02RRdNlTQcfIpNo++KWyN5lMAxNTP5bJ1j3ngbTf+wM/IY6z/jl3T7ZP+XygeIbsNqe9E6R4qMvYm0wmPYw84HWExPN8IPb7GHtwB2aa7EihjNLQNa6aWpQ69odF8nyrtSi1hhzxQFRmfeAz787+MPZf+oTuwRPaaNKLpa2VncMarb3E3orm8tibTCYYQTvk6p857VuIAkIcx0t9gG+wx24Qd6JIRmnuezExZVz49qlW1B3RvWUV0waY16s4kNmwPpEPLMDbMgAfYB9Ok8YyZTc4Hc3dAzqDcfHwboE3O7Fs3c8uCD4VU/q05hffl0g/T6nxri4AYJ/I9UKfjz2RT3qmWPawrq+8c3hat+AjT+eSsjntFHtsjdMGWDQ0eTK/EYpjY1HA892AN7LHEroomvQBv6NteFy78INubZKeP9MF7LGVjqi14qFJSmP/0bymXam160FvkOOxHUIvYT/zcOUYhuzrkvZLFR3pwheto6rJab1pCV24+bCt5riMvclkQk0mBEW1Rrh9VEWq6zlR0LwuwUPxm9nzvsxu9tgBWkzlMfSWW9wOasuLnjGl1mBEXIHcYgGuZG9ZKTYh1+hyxQOPBT2nqc0bE3nQMw/qFGDs93geeyx1P8RoucHpTBUPVnSNLKvbZoXA/lc3ssc2bIARxZS+Y0xNquveRqoOTuAFx/MCn3ECn73O3oFHsY+kS7ESRZcdZ0rJDV2ykclJIHN7R2Lsc13Kr25nb6mE1gCPqHUdY5qSjpF7VW2nqM0xOU170+s3JPExl7CSycHrYj/zCDTzaMxXhdKzpe2Xqjqvc7sf1XaXdg53jKnlGt203riUEVlLwzo8sXLsLVVEzZkBjKAT0wbpiCpLNHCX3XGe1fI5WQCcgXm8aPbdXccOZtjnuD3eY2E7HDyYGpQIWstJJgjhz5v6We1DbaNKxZQOdrO+LS1vNfEa2FvVAPuq1hkaX4wXtY9kiQbianqvlsrCM+o2JfHXPeeFPueFJPCCE3iB8eDsMZeMJLqcPSboCJosEhxJkx5gyA4wZNGFslhGyzfF0vuC7nTJILNTzu4bbxmemNRMmxY+ncZm+7hjpqewt+wbgqIGGJkywOPTerlG/1KlbR1VCfoUjLbhp4KeY/nNO8iCTUmCDYn8tc/5M4eVX3EVVp7D6iuXEAcOQxPiOBsSeXts6X7GLZufMxtOA8dIzGVGuGb5zsyMoEuj6NKDDNmhQlksq+04q/VyeesjQRejdahxcLxzTD2k1iqmDUqtYdpgNCIIyNJdmqhbGs2xCY9jP383UBSFEdSIgN6jSmec1BoUU/puxVR5l/wBr/NysfRikfQ7Vsu3TMlZhvgUVXQsX3g4r/lgdmNEZsPe9PrdqXWfU2q3k2o2JVevT+SvTeCFxHMDn3E3JvH35AotfTxzgg1yLqBauvQrhuwYS3q6uO3bsvYLFZ2Xq7qucrqvcXtu8Htv8nvuCPp+qu2/X9ef2NDDkg1IBhXjUzqVHtYY4GkDbIABZjNlB0Za5zeAu+Z4Aful7DqConoY1eiME9P6EbWuf3K6Y0zTMqxqGlTWvhjn9SnKu8ZYbSMF0qEs0QCl6QWpsT+1+UWObCS3XW4p+e2j1PZRRscoq1Ne0SOv7htrHpxok6u6xzUDSu3olF6hNSi1+im90QADuEupmCf/x0fYe3ITe2zdcPYei8btFcPZu72JPXYDOHuPReP2iuHs3SymCnsAAABOSURBVN7EHrsBnL3HonF7xXD2bm9ij90Azt5j0bi9Yjh7tzexx24AZ++xaNxeMZy925vYYzeAs/dYNG6vGM7e7U3ssRvA2XssGrdX7P8BnMkc/ML+AJ8AAAAASUVORK5CYII=;fontStyle=1;opacity=90;fontSize=8;strokeWidth=2;spacing=-8;" vertex="1" parent="n1cjui-AUTv7zVWOq074-233">
          <mxGeometry x="76" y="85.41000000000003" width="30.42" height="35.46" as="geometry" />
        </mxCell>
        <mxCell id="n1cjui-AUTv7zVWOq074-234" style="edgeStyle=orthogonalEdgeStyle;rounded=0;orthogonalLoop=1;jettySize=auto;html=1;entryX=-0.012;entryY=0.562;entryDx=0;entryDy=0;entryPerimeter=0;" edge="1" parent="n1cjui-AUTv7zVWOq074-310" source="n1cjui-AUTv7zVWOq074-198" target="n1cjui-AUTv7zVWOq074-208">
          <mxGeometry relative="1" as="geometry" />
        </mxCell>
        <mxCell id="n1cjui-AUTv7zVWOq074-235" value="ERP" style="outlineConnect=0;dashed=0;verticalLabelPosition=bottom;verticalAlign=top;align=center;html=1;shape=mxgraph.aws3.oracle_db_instance;fillColor=#2E73B8;gradientColor=none;" vertex="1" parent="n1cjui-AUTv7zVWOq074-310">
          <mxGeometry x="50" y="230.49" width="40" height="32.51" as="geometry" />
        </mxCell>
        <mxCell id="n1cjui-AUTv7zVWOq074-238" value="Structured Sources" style="text;html=1;align=left;verticalAlign=middle;whiteSpace=wrap;rounded=0;" vertex="1" parent="n1cjui-AUTv7zVWOq074-310">
          <mxGeometry x="45" y="191.49" width="146" height="30" as="geometry" />
        </mxCell>
        <mxCell id="n1cjui-AUTv7zVWOq074-239" value="Semi Structured Source" style="text;html=1;align=left;verticalAlign=middle;whiteSpace=wrap;rounded=0;" vertex="1" parent="n1cjui-AUTv7zVWOq074-310">
          <mxGeometry x="47" y="59.24000000000001" width="146" height="30" as="geometry" />
        </mxCell>
        <mxCell id="n1cjui-AUTv7zVWOq074-240" value="CRM" style="image;aspect=fixed;html=1;points=[];align=center;fontSize=12;image=img/lib/azure2/databases/SQL_Server.svg;" vertex="1" parent="n1cjui-AUTv7zVWOq074-310">
          <mxGeometry x="143" y="230.49" width="48" height="48" as="geometry" />
        </mxCell>
        <mxCell id="n1cjui-AUTv7zVWOq074-241" value="HR" style="image;aspect=fixed;html=1;points=[];align=center;fontSize=12;image=img/lib/azure2/databases/Azure_Database_MySQL_Server.svg;" vertex="1" parent="n1cjui-AUTv7zVWOq074-310">
          <mxGeometry x="50" y="306.33" width="38" height="50.67" as="geometry" />
        </mxCell>
        <mxCell id="n1cjui-AUTv7zVWOq074-236" value="Sector System" style="rounded=1;whiteSpace=wrap;html=1;shape=image;labelBackgroundColor=default;verticalAlign=top;verticalLabelPosition=bottom;aspect=fixed;points=[];image=img/lib/azure2/databases/Azure_Database_PostgreSQL_Server.svg;" vertex="1" parent="n1cjui-AUTv7zVWOq074-310">
          <mxGeometry x="124.5" y="298.21999999999997" width="61" height="53.55" as="geometry" />
        </mxCell>
        <mxCell id="n1cjui-AUTv7zVWOq074-249" value="" style="rounded=1;whiteSpace=wrap;html=1;" vertex="1" parent="n1cjui-AUTv7zVWOq074-310">
          <mxGeometry x="625" y="263" width="225" height="90" as="geometry" />
        </mxCell>
        <mxCell id="n1cjui-AUTv7zVWOq074-248" value="event trigger" style="shape=image;verticalLabelPosition=bottom;labelBackgroundColor=default;verticalAlign=top;aspect=fixed;imageAspect=0;image=https://www.cathrinewilhelmsen.net/images/adf/13-triggers-azure-data-factory/AzureDataFactoryTriggerEventCircle.svg;" vertex="1" parent="n1cjui-AUTv7zVWOq074-310">
          <mxGeometry x="654.74" y="284.48999999999995" width="42.79" height="42.79" as="geometry" />
        </mxCell>
        <mxCell id="n1cjui-AUTv7zVWOq074-250" value="&amp;nbsp; &amp;nbsp; &amp;nbsp; &amp;nbsp; Azure Data Factory" style="text;html=1;align=left;verticalAlign=middle;whiteSpace=wrap;rounded=0;labelBackgroundColor=default;" vertex="1" parent="n1cjui-AUTv7zVWOq074-310">
          <mxGeometry x="612" y="246" width="146" height="33" as="geometry" />
        </mxCell>
        <mxCell id="n1cjui-AUTv7zVWOq074-5" value="" style="image;aspect=fixed;html=1;points=[];align=center;fontSize=12;image=img/lib/azure2/databases/Data_Factory.svg;" vertex="1" parent="n1cjui-AUTv7zVWOq074-310">
          <mxGeometry x="624.3343137254902" y="257.41777777777776" width="26.666666666666664" height="26.666666666666664" as="geometry" />
        </mxCell>
        <mxCell id="n1cjui-AUTv7zVWOq074-251" style="edgeStyle=orthogonalEdgeStyle;rounded=0;orthogonalLoop=1;jettySize=auto;html=1;entryX=0.991;entryY=0.457;entryDx=0;entryDy=0;entryPerimeter=0;" edge="1" parent="n1cjui-AUTv7zVWOq074-310" source="n1cjui-AUTv7zVWOq074-249" target="n1cjui-AUTv7zVWOq074-245">
          <mxGeometry relative="1" as="geometry" />
        </mxCell>
        <mxCell id="n1cjui-AUTv7zVWOq074-253" value="PipeLines" style="shape=image;verticalLabelPosition=bottom;labelBackgroundColor=default;verticalAlign=top;aspect=fixed;imageAspect=0;image=data:image/png,iVBORw0KGgoAAAANSUhEUgAAAG0AAABsCAIAAADvxqukAAAIwElEQVR4Ae2cMU8bSRTH4zqNZSmfgMIV9CifIPUVNBGWKJCFIpo0kaJUSbFEoqRAaSzlCiTkCgs5oqCwJaTEDVgGIdmcYxsZOK+xkyAk7iLfDeMbnmdn5r11Zk3ubtAWy+7z7Nvf/t97s7Oz+2Dg/mwQeGCjEdfGwHG0IwLH0XG0Q8BOK06PjqMdAnZacXp0HO0QsNOK06PjaIeAnVacHh1HOwTstOL06DjaIWCnFadHx9EOATutOD06jnYI2GnF6XGCHL9+/er7Xd/v5irV1Hoxns7Gnr7XLfF0dj5TLrX6dhy00Qr3v9FsrmwfJr28zvPY0/fxdDbp5TcPLn+/+jPUkRE9CoKco6Bp9oY7tLJ9+O3meyhvrBsH/a/WTlLrxVhqw0AzltpIrRePzq/o/pg4Bp0QNHOV6s+PUud/o9lkKPUhxXalNpJeno7SxFFQU67kKlUW4KkNwxJPZ9999OlX1aKlDiI/l3b7bKhKo/+p9SIxwLUczX5wb1a2D2MLCMqkl598rqQ4PwwpI8d4OruyfUi5umqOFD98v1utnbDo5q7ogC5QXaG4S7RRBlBw48r2IRpSRB2oOQYPqdsylORClglTs8TTWXqiIZIymBFF4PvdUqvPdKBxW2ynSFLBMejH0flVpnW5WrzYrfUkoO32GbukmCtJL59aL97vsrJ92G6fSf7PZ8qo8/F0Fs2SCo7SkUqt/lztema/M1U6n9nvZFqXkgFFksxXc32cyN6kl6/WTqD/1doJRQeoJGWOkhgbnS8cIueoRNloNimuIF22iXDkHcNGswlRssJNiCdzXxjh+Kbz/fHxt5n9juDIUTY6X2RXFnMx8zK2JI0l1dDrUu7iJRg6n6tUEc9vzytXqRqSsswRHqDU6j8+/hbkmCjUV4sX0PLdR5/iikmSVmBBWcFeBO9L8L23HWzovO93WbUxi2AxN58pUzlKQc3FqOQ4VTqHktyt9Siu3GXJ8aiJrhVcgezI67lKFaJk1QbjOO3tGarNiB4hx6Pzq7natU6PiUIdFpzhndbSTsy8iPOncCRDQbNb0GDa24McWWibPV/aSXr53VpPJ0ktx63eH08+3xg4ztWuoSvskmKusGtuQBklOBnlYg4W7mE8Yf6vFi9IHCGXTOuSQ1TGdaJQn9nvHJ1fiZ+w3s9yAUcJOdoCh4WkMmZXtg+F841mc9rbQ52fz5R1VftOjzCoG50vIjnqOCYK9c2Du75krlKluHKnx7EhjkUtiDK1XhQc2+0zSjzNrlUbvRulJNUcYXI0cIRVu9Tqkzjy0B4DohkfFpJBrU17e7AjSYmnaW9PN+Zyx1FcHH7jKZKjgeOzrVPxq3b7bHatykLbvCztyKlKx9QMbjEXRBNqS9LLw6rNum5mz2/36kqNmiMsMgaOv/zagCmShQbqCsrRgC+86ExklwvvPvpCB8O8hPm/eXCJxLVo0fe7mdYlRY8z+51Sqy9+OAwNzBWtHidGkF+P5QIsNbu1HstLmPO6kq3W45vOdwrHZO43OAI0PkcdQboAsfNXAprPlIUIhiUba+fZ1mkIPc7VrikcE4U65Lh5cBl7/knp8chGWGqUBIn4sHMeOajKeD5ThiNplPyuuzsc6hF2eny/S+cIuz67tR7jiC48RSoJUqqHigiKTGkwnynDks3yO+b87Jp6tELN8cnnG6IeYaoutfqoH8xgaSfYmzMVhH/SmZLFj2ycXavC/E7hOPX22BTXUI9H51d0jrAL2Wg2SRyXCyMcKVGMahDTkdIxieOzrVOlGdwYgmOp1adzfPlhZKQ+9gIPDaYgEdRmiNHgE1ymvT2Y3ykcH70+ourxRzg+fFVhKM2L4GiAGDFBjnLq7THk+PLDGeL5i/LDV5VIOMJbGt/vPnp9hLrCzsFQT8YmaL54qr0SR9ZvU5lJG6kcd2s9elyPyVGnRDNEZRIknLkEQvwrcVwtXohdhpV/OUclxOefDCeM7oqWY6j8OKYeDXG9tIN0ZZRAx1KlxNFyXIfiKNVrV2eGM0XFoBmxHy5xZKGk1AvcKOq1WZWoMJcL+LHgcQPr0fZ7XD/ccHlC9MN9v0uv1+6+kJdv9f01fZwCPn21ME6h6w/B7ea+UZi90jgFG+8JxL60BRmnGAwGYiQu1HgPvB+Y6LhZGF66DoD9cTOJY7TjuHD8cSF7d68tbrrFCpSheX0srJGP47rnCjoJh3uucJ/PuQwKNUsy7N6InnPBIUjeFTfPp0gU6vBmxvJzVxHahpWw4Ebto3ruCjn+dPMADDT5rlFG+Oj60k5U8wAgx/HmpbCpe+j58Pk9umf/xO0oVoJBVPNSpJLt5kkFNUGaJzUYDKAkYamR5jUnCvVEoW553h5RibbMIp23BznCFKnkCO9k3DzSu/kUkh59vyum7gU5jj+vmTIT12zDJZna0M5vIWgWzpDy/S574oql1BDzmqUUOYl59mZkxL0QnMSXtzCKPunl4U2w/Xn2OklKepzZ78BJ9r7fZa+gYNeTyWeMl2SIKMlmE3rvA6ZI3++695B49kh6ed2M5pFxM/gMTNK8ey8uRnhld6TOcJqSJP8eRvsPv6fJnm3B9Kpaj6ezZjEOBprvXkuSNPxL9OP/+N5wsNroOMrvsYt3OkR9vK2e6MuiMKtYWdc5LG2P/D12IsqhGI21kvg+vRV8opFgapII8m/osAEBo/M/+l0F7lDw2HCL+86HuGza/MgtDFeV8t2ZWGrjfj/ho/N/0t+d0UU3BSKPCLTMwUsaxXoQ5T18B0mcmPDGfZdLMJFWFP1HycL9SyHgOFIo4TaOI86IYuE4UijhNo4jzohi4ThSKOE2jiPOiGLhOFIo4TaOI86IYuE4UijhNo4jzohi4ThSKOE2jiPOiGLhOFIo4TaOI86IYuE4UijhNo4jzohi4ThSKOE2jiPOiGLhOFIo4TaOI86IYuE4UijhNo4jzohi4ThSKOE2jiPOiGLhOFIo4TaOI86IYuE4UijhNn8B/YxXxP8We8MAAAAASUVORK5CYII=;" vertex="1" parent="n1cjui-AUTv7zVWOq074-310">
          <mxGeometry x="768" y="277.64000000000004" width="49" height="48.55" as="geometry" />
        </mxCell>
        <mxCell id="n1cjui-AUTv7zVWOq074-257" value="" style="rounded=1;whiteSpace=wrap;html=1;" vertex="1" parent="n1cjui-AUTv7zVWOq074-310">
          <mxGeometry x="18" y="478.91999999999996" width="180" height="174.17" as="geometry" />
        </mxCell>
        <mxCell id="n1cjui-AUTv7zVWOq074-256" value="" style="shape=image;verticalLabelPosition=bottom;labelBackgroundColor=default;verticalAlign=top;aspect=fixed;imageAspect=0;image=data:image/png,iVBORw0KGgoAAAANSUhEUgAAAQ8AAADHCAIAAACIgUEEAAAgAElEQVR4Aex9h1sUWdb39zc4sxPe2Znd2dmZje/svrNbtghmURGzGFBRURGMJEUkS5QkQckSBRSQ0MRucg5NzlGikqGlybE+m4uXS1V1dQAUZ+DpR0/de26oc8+vbj7n/+Hrf+sSWJeAaBL4f6KxrXOtS2BdAvg6WtaVYF0CokpgHS2iSmqdb10C62hZ14F1CYgqgXW0iCqpdT5RJJCZkdHa2ioK56fIs46WT7HV1mid6+vqAvz912jlVqJa62hZCSl+wDyqq6oGBgZWtsDnwcHLz3B8fFzlypXl57OWc1hHy0drnbGxMZqye3t7KWN9fXwowyUO7O7uvqamRp+8ubmZngHHcSkGo5DDEcpGYGgRIWdCErEeeTyeWPz0zOtooZfPKsZWV1fT5F5cVESOdXdzy8rKIoeTQyYmJsiBlCFnFRUpy4LMSYmJRVSVgQw4ju/Yts3C3BwNEYUOefFCFDaazwqPx5ucnBSUSfjLl9zBQUGxEoSvo0UCoYmaZGpqShDr1NRUfn6+oNiw0NApkhJwCgpEGeqMjY0lJycLypkQrqere0dLixCIPra2tNjZ2qIhZFpu794Tx4/39/eTo2hCcnNyROwnnwUECMonOChIUNTrjo5rqqqCYiULX0eLZHITKVVdba0gPl8fH0Gf/+qqqnNnzxISjo+Pnztz5qGVFSGc8Njc3PzA2FjEiY2eru5WGZn6+npCJuijloZGNm1vdvTwYQaG0WgtmhtKH5SXRx8F0V6enmmpqZSx6enpPt7elFE4jt/R0iopLhYUK1n4Olokk5tIqeLj4sbHx8msXC73quAJ8VUVFRtra0IqW2trBoZ5engQwtHHnOzsPbt3Cx01gSR6uroMDDMxNkZzINAuT55cvHCBEIg+Kp46xcCwO9ras7OzaLhQ+oGJiSgdS2xs7KEDByhlyOPxTp88Kaig58HBJ44fFxQrcfg6WiQWnfCETx4/LikpIfP5+fo6PHpEDsdx3NXFhYFhCfHxaGx4ePi7QBq0dHV2Ojx6xMAwO1tbofPatra2e3fvMjDs0IED3d3daEEonZyczMCw1JQUNBCllS9cYGDYsaNHm1+9QsOF0u5ubocOHBDKVlJSslVGxtHBgZLT0MDA2MiIMqq2tnaLtDT9ZIwyodDAdbQIFZGEDHNzc9qamuQhCo/Hu66qSg7HcTxlXkEZGFZdVQVLzc3NlWIwAFrIi1dTU1MBAQHycnIMDJOWksrLzYUJKQk2m3344EGQm4e7OyUPjuMAKjQf72uqqgwM27RxY1hYGDmTvr4+ciAICQsNZWAYZSo0SVtb26kTJxgYRjmadXnyZI+sLOWAc3x8XPnCBVUVFTS3laLX0bJSklySz+Tk5Nu3b48cOkTW7ydPnjAwLDYmZkkCHM/Ly9siLQ30+PXr1yC2taXlyKFDIBACprioqLioKC011c7G5rySEozV0tAg5Ik+lpWWWpqbQ2aVK1cEDZ8AVBgYFhcbi+YA6WtqaiCfBw8ekIdJNKt2FRUVDAyjGYWCIrhc7sX5jkuT6o1ePH/OwLC72tqwPihhYW6+bcuWyooKNHCl6HW0rJQkl+QzMDDAZDKBSqFDAh6Pd2T+056VmYkmqKys3CsrC1V5eHgYx/HJyUlVFRUYKJTQ1tKqKC8nLB5wudysrKz787MUmMPO7dvz8vLQCkA6NCQEsFF2LG/fvoVQuXTxYmdnJ0wICPqZ1e6dO7dv3VpYWEhIRXiERaCiAzzFRUUMDNu+dWsN1fr78+BgBoYJGqERSpHgcR0tEghNeJK2trZbN28CtTMyNIQJ7GxtQSC6yFtfX3/syBGoyu8+nKPTc7ypOX0jEzRQRFpm8+YLSkoW5ubmZmZnFRUpUzk7OsIqQaKjo0NfTw/yh4eHwyhANDY2Xrl0CTDslZXNzMhAGXhDQ9q0i9FgZCVowgaz0tTQAEVYP3wIAwExPT29c/t2QYsTeXl5DAzbuWMH5eCNkBXNY1NTk6DYdbQIksyywmOio6HaMTDM9MGD4qIid1dXGHhDXTO/8XVqVbPd08AdO3bCcEA4hLF17d0IgSv1eFVFhbBnV1VZGRwcfOjAAVgEuWNJTk6W378fMhDmPCUlJfL799MsRoMluMsXL9IvQsA+8PSpU6Ojo4Q2OKGgACpQWVlJiOrq7FQ4fpyBYeampoQosR69PD1p+NfRQiMcyaOuvx/ZQ/VaI8TO3bL3zaytH7vbP3F3dvUwNDQ8KC9PrltoSAj68j7e3iiPvp4eqvQvw8LAxF3QtrqnhwcDw3bt2JGxtDtCi8Bx/IGxMSwlKiKCEKt77x6IpVz1vqOtzcCwg/Lyb968ISQU/dHSwoI8DUOTr6MFlYbk9ByOcyfnWodnY/PK75kvDLdg239axKkTJ6AgamtrjY2M0Prf09GB0xUul2ttZcUfGhkZCVoHA1BhYBj9GMzdbbEvNTI0JByDgJnI7trVRroR4Pa+03769CmsubjEvbt34+Li6FOto4VePnSxYzNzXWOz9UOz4XnVFt6haveMDxzjL3p+6j8Xv2DeFF5bW2tlaUl4l3OKinV1dUAoUZGRJ+YHPycVFEpLSyklBbX86pUrhOEfyh8VFQULOnXyZE9PDxoLM+FDjrT9khAfD9JeUlZGezw0B6H07Zs3jQ0NBS0SwuTraIGiEIngTc21jcwW90z4pRaZuAZcvKm1c/ce2NK/AmLb9h3X7z9QUrtNfpe72trlZWU4jnM4HPXbiwwuT55Qyg5q+Z7du/MFLMHxcysoQMsijMFgJmAndGRkBC0rPz8fLLtLS0kRtnRRNnr6yqVLp0+dEmVtYB0t9JLkx/Km5tpHZou7x7zis/UcPJVUb23dxl+Z+U39Timesba2eRYQAOcP4PVPKihQftGfODtD+TxxdhYk5aysLMjGwLDHzs7oGAyFCnlPs6enZ//8tiwDw8iDN0ElouG9vb0n5/dA/f380HBB9DpaBEkGH5icqx+ajS5vtfKPUNHW37VnH9qu6zSQQMjS9QAgTQszMygfLU3Nt2/fUko5Li4OsjEwzMLMDB2DgbM8kEFXR4eQyZnTp0Gs4unTaEICm6DH4qKifXv444J7Ojq8oSFBbGj4OlpQafDpwcm5hqHZgJRCXXu3U8pXYWutE2QJKJ46RRBfR3u71vsNEwaGKV+82NrSQuABjz4+PmiG+vfvw7HQ9PS0zp07aOyRQ4cI2yBqVxeaRlpKinwwgrJENDA8PHzzpk0MDDujqCiohig/oNfRsiCToam5otYel7D463qmcoeW7BWizbZ8euMmqY3SW2R2ysodOHT8uMKhAwd27STut2BSm/8rs/2XbbL/3rX/X3uP/Lz/xD8OnP7HwTP/OHrhLydVv7+k98fr5t9fNfn+isEPl3T/fOHOT2fV/6J44y+nVP92/PL/7lf4ZbvsRgZfFVb7d+r8pdaR2Yn588d9fX2eHh7onsxBeXlBS8ZgJQ1W7+KFC2BGhON4fV2d0tmzMAoQhCsujvNHSEGUhZkZOngjqzghZHR09OH8Ot67M6NbZWQiIyMJDIIe8/LyfutomZ3DG3vePg6OVLqmvnnzwjEtQlNJ9oht3vLL9j3/2nf0n4fO/vWEyo9nb/+grLvP0NHC53kUM9r64cPTJ0/CnLHNMj/vO/bXEyo/XLz3h+sWK/L760m1X7buAkVskZG5evmygZ7eVRUVdBcSVkBi4vQlVZeoFCtn9/1yi3uXILegwEDylKaluVn91i20uKOHD8OT2rExMbtJ3w5DfX10J+cxMiO6oKQk6Eo2pdKXl5dfuXwZlm5pbi7iGMzK0rK3t/e3i5bh6bnI1FxNI4tdsnuh+CQjsM0y/7f7wD8PnoGo+OM1M1Tjf7r98Ooj75ComKjIyHs6Otu3bgUF/Vd62z8Onvnz+Tso88rSPypp/lt24dDxXllZe1tbNovFZrEC/P31zaxUbmocP6W4ff44iWTvLiiV46NH5B2YtNTUw0sPiZ5VVMzJzsZxvLWlxcjQkJybpoYGigfYLTAwbN/evSmCLxSQ0RIeHr592zZYxA01NRGNObm5urJYLBz/TVp2LalrfujqffzMeSg4cYn/bN31s9zxvx+7+OPZ29+rGNHr9w1H36iYuGgmU1tTU2bzZlDWz/uO/nj+zu81Hb+58+R/7rp9rev51X3vLw38vjAO/J3Jc/rfF8aBXxoFfKnv+5We99e6Xl/fc/+fu27f3Hnye23n32s4fHvLmlyfH8+q/1eaD1EwygeAiYhNeBoRD36Ofs/1LGwvX78lvxKjUL3799vb2wn66rt0osLAMJVLl5KSknAcDw0JkdtL8c26pKzc2NgI8pmYmDAyMEBbKjAwcG5ujlAK5WNHezt6UICBYUcOH86eRyklPxpob2dn9H4r5jfUt4yPj4dEx6tp6mzauBEVuij0f7bu+ueB0389qfqDsqgjpe9uPjzw0IeVnVdXW+vn5weOGG/EsL8fU/5K32+DFRP+/vAoDtJk4jt7ulgyPz/EMuozs7AvTIK/NAr4Ss/nax33b7Qff3vb5h+Hz509d87Lw+PcmTNxsbFsFssvcgEtEDZPI+K9XsaaObldv6N39PQ56ffwFkVKgOf42QtRhXW944t6/G6gRTgQwMCw2zdvJiUm+vr4aCBbN2gp+/ftgyO0tra2G9euobEODg6U91tQRQd0ZETEAeSEG8jkqacneZRITmtsZOTs5ARP0/wm0FJaWmpu+0juwJKLIqjoKelftsv+d/vu7Sra3181Jn+t0ZBv1e2/ufPk63vuX+r5fGEU+PmDFz85xEbX8U+z83g8eP78H0fOf6nvS9bvX9yStvukk8NBiE5ihaAoscMtow49Cvby9mX897/nz59PSU4Oi1nsXlDA8OnweIcXcfYv4nSsH59TvbVPfmE4RykrGLhrzz6vRE5S53RS53RFz0hEZNTNGzdgLCTu6ejArRIYiBKbNm7My80F05XkpCTCGe0HJiaEJTKyouM43tTUpH//PpotoO3t7WkujcKs1G/d8nB3r0Ju5v3K0ZKcnKx2U50sL0Ehv2zf888Dp/9y6tqfrhj84brF3w+fV7ZxR4Hxh+sW3918+I2W49c67l/q+/3uQcgGy6gNVkwVZhHn9YIxnvCa19xxvrUXeJfrP1t3fatut8GK+YtbElnFf3ZJdMprJIdvsGJu9kqNre+kjJIs8El62a6HAX87pgyuJY+Pj2c1dcUX14Wl5ntHEpHzJDTefh4w4F8TV/9ruiYK55Sl399aoxTjpdt31U2slW/d2Ssv3ucJ5rZFWpoZFTUyMjI7O4vO6QHDJWXl2poaqNOCiBfPn+/ZvRvmCQl7e/sWAYvaaFbKFy7Y2tgQbiX8atESEx2tfFnUq1Qymzf/3275Hy7rEYDx1+OX79o9+fa27Td3nnx1/+kXxkGfmb8kq6l7IcXF9LHR0R3zc8q/KN78zDwcpJJ5mrY3IJOQw98es18PjRECwePT4ua4+i7KKElGaFbMnpGJP+t5bLBi/uMIf9qWkZ7eMTpbyZ0Bv/z2waSKV5HZJc/iUp9GxLu/XIIWiBzzpy+u6RofOs43YbHivx3btj0PCuIODlZVVpKPciudPSvoTBrU9ciIiAvIlVK0hlYWFugtbpgEJTo6Oo4dPap++3ZpaSlhXvRrQ8vY2FhoSMiZM+dQGQmiFU6f0dQ3vn3r1r/2HCbg5Lvbdt/ccfnhkn7gs2f08wpZJ+KtKSj601eufaPtTND1hEai9v/kxF9v2eNPRNE3drFjUzOsxm5CDhusmJ9ZMe+yxR6h/a9dBI/H+9IwgJ+DRcS/9xzevXNnW3cfRAtKFHbykipe+SQVPAplQZwQCH0Hz4s3tXbv5VsFWJGf7K5dfr6+paWlnh4e4FuDZqumqpqWmkpz9pEGJ2DPHu7qwDYiELk5ObK7dl1TU8vJzp6enibE/nrQ0t/f7+fre/TIUVS+lDQAySPvQP7nMzD0P1t2/mF+wfdbdfv/0XH70sDvc7NQoKBf33M3ffDgemwJWV9hiLGbL0Gm8PHCk+eQDRL+pa0qzCL4uMGK+YNDAo7j7oWv0MANVkythHIcx5Ne9RDCN1gxjVKr1GKKyeH0IXoJJXHx8ZDnC+NAbPMWYyOjuqGFvgVFC6AL+mYSX0+GlXf4Z1W5xGQS0AIfNc3tz1xWk5HZQilwEQPl9u410NPTUFdHtzhh2nt377JZLMI9aiBqHo9HjxMGhunq6NDbjhrm8Z48fszAMI3btxPZbHSHBzborwEtHR0dri4u+/cJOce1e7esqrqWjbsvOp29eVvjexXDL/V9PzddQAhUJj5hGXXw8BFKfYVstzUF2np0ZqZANkicCy/oGh7/2jYGhvzhEf9aRe/IxGfIQtkGK2ZtH9+Gb2pzL+QEhMzTtImZ2T8+WtR7AoOgx2buyJW7+mjsH66ZSzEY5a1dZJyAkPLBmeT5KTuYuDPr+vyzq58w0yBOUGL1RmgWZmZsFmtwqZnWzs7OpMTEe3fvknshiDFAGOrrZ6SnQ6UnEwnx8cA2mqGBAZvFIl/bBEk+bbTU1dXZ2drCzT6CjODjEYWTdwxN3V5EoTh5mc5JKKn79ykVVHvI9M/7T77u6PjBIYEcBUK27NxNlj4IMfJ+QU71rT0fGw/SqmHU/9gumFY5EJgNA/f4L5i5SG9ZgpavbWPq+3kFrwcgp4jEbvf44eHhv55SJfD/LHfc2dVDEFoquTMZ3fwFLvSX+HryZXmHd0rxo9AEFC2Q1nfwPKtyXWqTFGyC5RBnz5y5cvmyibGxm6urpYWFzp07yhcuCG10UOIWaemHVlZJiYmC2qimpgZaI7C2siJjEk34qaKlp6fH0cGBvg2kNm06raxiYv+YAJLkyubCTl4ld+ZlRiHlki6qTz+e13oZFmaXU48GorRjKLUZoZmZGRktC5QT0lmtfbyJaYjAr2wWrCX5lLRAnpDKDtBO2W19MHCDFdOriG/u3iy9Bg0UhU5o6GJGRX13y5rA/K26/cWLF2nQktM7g0IFpWNfDT3nNLkn5EKcoISxq//5a+pbtiwcXKBvrNWIPX3ihLeXF2FdC2p/bk6Ogb4+KHfP7t1OTk6JbDb9QZhPEi3Pl5pcIAt6246dyrfvmLgFPA5d2H17npjFLm8EIIGaoebkT1Ad8uO3Go+uXLo0PDlNuQb1L9vFKX5eXl5Bfj4w9sWMinJ0fpLT0v23x2xynkapfON63gg2QBP2j00C5j878mcy4C+nvR/mcCJkwayRzNM0GEgg/vkkEQ35s2PCHv9MuWd8y/wqKiqUA87/bN1Z3D0CxUIgCvoEogUih2aEZuYZdOn2ne07Fk6skRtrlULe2Y5JiI8voDLNHhcbi+4CKV+44Ofrm5GePrr0qtn7Flj8/xNDS2pKisqVKzTyBTgx934BPnLuL+PDM4vS6zoIGgAeNxl5oopFSX9uFrZx0+aO9nbLzFoCwxdWkc2DC1f5enp6oO28d3brMCnpb9XtHfIauONTp0PzCQk3e/HNYM/Mzf3XPRlEwQY5/iJ3gxXTOHXRWQUcdP3JIb5vlO99oZM3TsgQPP79MTuksgOi+k+P4uPqu2DOOI4fVtWgTPi3EyrxnEpKEVVyZ0oGhKMFwAaM0LySi9AeBtAWPqFXtfVkV271jEYHdu3YYWxk5OHuXjZ/0xNIoLOzk81iWZibAzPnMLm2lhYAFeW0HpXep3ROrLq6Gvab8FVRgoATp/Ak/8zK3NZ+QUpQyZ35g2kQpfYQAt+N9Z2dnAbHJ79deggloGzRwaKmhsbfFK78vF/hZzmFn87c/sIkeIMV8/OH0ektfKdF3iUt6LR+gxWzk8e3Js5uWlgdnnpvdTuovO0zK2bH0KIjpKI3g6A+CY0Lqo8O2GBVr8eWcMenZJFl6KI3RNclzZ09Xz3gV4zw+8M1c/+IOEGCquCKihbY1URUd3unlpAxY/0sSu2ekcS7lmhzi0jL799/QUnp2FGKldLtW7daWliwWayysjKaVWkUMJ9A39Lf3//Y2Rnc3aGUEQEnrnHZwYWvEtpGkzunBWlAJXemoHeCoDSCHr/W9dyxbdv4+LhLQRPkkfNLg3LMzs7+8bw2jEKJPz6KB6rfODC82SsVRvmWLtyROhiUs8GKOTY1A3Ibnpw+HbrEr0tJJ3eDFVMzgX8hHvwROqufnBKSXvHNPthk18H8NxpT28WyCqc4TPC1rudjLz8aWaV2LZnlQ1TQE1F1fb7p5WTM2L+Iu6Zr/GH6GUqFeWdp+oSCgvfTp2wWS5QTNO8Fv+bPIIeGhBC6TvT9pTdLX7ypDcddHqz8sLIO2IQpXXRoYbfxoG4JJf619wgwsbXLLwMwV3Qv3p7dc+YSTQ7ST1PHpxfAoJtUCTjPvCwAbVDdO/Rua4U3sbgRxptcpHEcL+96+1/3ZAin8ekZtJu6yiweHOcPzzivF7ogkL+Mmi5sY5SYnp37zCKSUNvPzF9aOz6mQUs6aVkMClkoEd0w4J9Z6RDGJsDGOiBSRev+zp0fej6zY/v2ezo6MdHRmZmZ4t5PXrt9S0Z6OrxNiiIE0oqX1YxcfEEbeCUXvax8Q2i5VFq0RDQsUS+CAhEe/3DNTF5Obmpqqq6Pj7FrMYt+JsJCQ//ywF8roXyH7wKQCGk3WDHPRyw6ZGQ3df/omPCN3eJKWk57/+J5XVS15+mekYnKnkVkwq39HxwSEhoWxmajUzP/67Jkcv/PQ2fJZ+ZxnG/3CO69ovW0c/emQQt5EZkgaqGPsa+GnuXWOkUkEzBj7v3ihoa2iMvBsOklI7bKyGhraYWGhLBZrNLSUkGbKqQWWAxYi2hpaGggH/BGBXRcUUnX1gXI3TutNLKmh7K10mjRElizZB8DVR1K+pcde8NCQ3Ecd8xrfI3MK/579T7g9yxqru/nPUirplwHc8xbuKeB43jPyMSR5zmlndzFdhCZ0koo32DFPPuyAMz4QTrVaOK+/o9KWgTjqziOV1dX7z5+mvLtbHye06Alq0eSkRi5UeJbR57l1jq+TEQx4xIWHxQUpH7rlgQ3KVCtoKE3S0lpqKsHBQWBiz3wzozIUl9gXHNoCX/5kvLoKJCF/JHjmma2QNY+aWXRDQPkJoEh6d10I7GQ+sWVWUoFIgT+XsNh986dhPuAMbFxXxgHQs6zLwvAmCqtpVctuhgdMm2wYqbNz/jFbSECv5RXakjVwlYMiAqveQ0rAIkvTILv3NcHDJEREV6envd0dBgY9qfLepAHJZ6Gx9CgJbtH7Ik+bAUyEftqyD+rCt3ZfBmTwL9s4+Nzfd4tDI3eSxB188aNAH9/gJOiwkL0JiZBtkIf1xBauru6TBBLuAS5bNmyVU3HEODEK5ETUdVFbgZCSAYtWqKa+LNnsX7/PHhG7epV9FzqdrV7hBz+1yURHt0fnZrxL22Vf79D/yeH+La3REvYQluIwDA4fxcABnYMjVEe+jzuzRqf5N8a4HA4C5LcuPHvxy8Tagsfk3ILadCSK3iDkiBz0R9jGgbgGoBPBB8t4Ofl4aGCXJ0nqIHoj6dOnjQ2NIT9SUF+PjRIC6UnLrFW0JLIZlMu8wHpKJy9YPyEP0VxjctG5/H0bZNJixZWG396LdbvSwM/eTk5KOKampr/ucc//U7+OeQ2QDYcx5u5I1aZdf/rkijzNG1WtMuxaHJB9OzcHLpkvMGK+R/3ZJvsutbB4eH5qT+Pxzt0+OjP+0/+eF7rq/te5HqCkM9NQ8qaX9OgJW8V0ALajlnX551S7BgSF5+wgBaAGTcXl4vnJbkKfvrkyXs6Or4+PhB+OdnZHR1LemNB8hQa/vHRMjIyYm9nJ+ibsXPnrut6pvYv4p4w04ILXyW+maJHCBpLjxbRV5BRJdPw5E9dwN+ziGg0ikAfDs7pHSE6re8apnDa+j4/sf+3zlpYMv6LM8sgpaq4k7/BMjI5DXswbU3N768aEypGfvzSMKBtZPGWCxk2eSJs56OSF5eOqOpMLyiG+g0Jl8ePtTQ1j8y7TRakIdu2bj104MAlZWUba+uw0FCYls1iZaSntzQ3i7iXIor0PzJa8vLyaD4hV65csfQItH8R559VldA2Km4b0I/EKrkzX1tTdAtkZUJDSl/3o2K1C2d/ZrFw0wtlA/SPjglZrQI9MKL5SECXd7/9vV2sWkxxSvOije36Pl7d/MllHMcD/P3/efgcuVbkkO+N/Bp5dGhZjZEYoTWbeDO9vb0lJSWoukM68NkzM1NTQwMDczMzW2trZ0dHDze34KCg2JgYyIMSnIKC1pYWUbbnxZL8x0SLl6enoA/Gvj17HlpZ+UTEu8Rkvqx4TZCsiI/0s/xK7sy/n1Ac4iIrEwz52vQFFC6Xy+UU8PdMXnJqPreIgDxkAj3GApMvn6jqGZqYXuJ327+0tbp3wUJpbk7OL9v3fG4WRq4POeS/Fs+q3wq84lLJnfkAaCkZWNiSosEMigdKOic7u66ujsuVZLFRlBb5OGiprqqCjubIgLmuphby4kVYTIJfZqUEXQrEklC0HAzm76OL/ttk5gNlyuFwpKWkcnNycBxPa+r65iFxyw/NdodvRv/8ES+YfGWJkclpg+SqN7yF8zIF+fmYlIzQ49WwhqddXpJHX2gIzTFkKO1lEmldS/Zke3t709LSHlpaGhsZPbSycnZ0DAoMpEQIm8UqKS5ub28XxYbLMsX+EdDy4vlz1AgaipYD8vK2NjZsFisrM4tVI2GXApuNfr+lkjujyV7YWYd6Q09ccA6C4rb3e3H2zBl3Nzcwgxybmsls6U161ZPd1lf4ZrCi+21D/3Db29GekYm3S1exYA4rRZR1cfVTFj3LcQoKNm7c+HvSDWeaV3NKolsQq+TOrOwKMmwglEhdihZwjRHVDQaGnT1z5rGzc1ZWVmtra1dXF5fLpXfltVIShvl8ULS0t7frUVmsAUK5ffNmRHg4m8Wqqa6uGxhHRbjhOpQAACAASURBVCkZTb+XX8mdcSpqo9EhcpRNcBQUnJRlwB+vW2xiMPh2FUoWt/Yhw4chvIqafUsXD3c2NDRs27Llj6oPyJWnCSnsGkZ7EjKduUK7kzTtmNm92LcAJ5UEqKCPwI/nh5EwWsqHQwsrIUGQBd7DBw86Ojjwu5SsrK7Ozjkcz+ldgc1j+lOVldyZmGbxtlyi4tlQdt+b8+/cf3fz4caNDAaGaWlogJFA+9uxyh6R3BvArCQmpmfnhpADZt1dXY8fP9Z6FqsUzjnyPGeXX8ZGj5S/PWb/3i6WBipfWUbQT/EruTNpEp2qpMEGOSq3dwEtLk+eoMCgoXXu3CG7CJdYmKIk/EBoIbj5REWgdvUq6FKqq6qAjYKusTmyNCULKRukm7xWcmf+LPgKMUHDfvfgBZil4Dg+PTsHzIhtsGJ+e9tmI4N/pVZeTg7YSZicmX2U23AxotCrqLmhn+/5/qP8veGNvax+fYdVLv00lXDjH3016cfR5M6EEIJezZesIYSm4vTxZ/l1tbUyAoyV7d61C8xb3NzctDQ1ofE+ei/EKyv5VUfL2NiYmakpCg9Iy0hJmZqYzM9SMtF91rLBFTtnUdwvBC3KTOIJK1STUPqr+0+hJas3vCXmv77U8/m/XQsW5m2srYG3t+bBkVtxpRusmH91ZgWVE40Cr2wrwtzq+njPytquMospzfyhrwNpk9QqAjYIj6LfBhMKCRqGikE+WuAVeagkKOHs5AQn+unp6WGhoRbm5vJycmqqqh+mk1ldtDQ1NqoJOPmjcPy4p4cHm8WqqqpC52pDUyvWsSR1Thf0CUGLWwnFISuoSSjxjZZjSXEx0MuyLuIQ7nPz8L8oLpgw3bdnT0x0NDggMzo10zQwTFjqhcq9IkRnZ6dvUs6FcM6fHQWa2kBfhEAXdAm8YwxgI8pNYxoYiBj1angW+ltFEUKgLczNszIzUcy0trTk5uQ8tLLy8xVoqmpF5Ly6dyczMzIETVRu37oVGxOTlpr6mnQkoX10JdGS1UN3sLKSO1PcP/m1zaKxIoImoY/f3rbhcBYO3hPssEA2ObsgK3vHuLi45ma+rYkP8DczM5NQWKnkEflvy6AvqOxowrpREr84MAk9CfnxAyyIJXVOv+obAjaKCPAgP55XUkqIj+/p6WloaCgqLGSzWEWFhcB4EofDIWvUCrbCavUtz4ODye/JwLCd27ZZzV/vLCkuplwgr347K+LXSBQ2oRP9Su6MUvgSW3iUWsWfn9yyAZ5GUIt4PzmxzkdwnPIac9r74YWtFWwesbKaw3FO8xtl97Dfm1JcJ6Z8L4v0WjI8CCGSXZwUpXVQHgcnvuU70X8G+vr1877Ih4aGGhsbs7KyXr2isK8rlgCFMq8KWuxsbSlf+4yioq+vL5vForlgsOJfskJhUxffSpHMcn9382FKcjIQaOL8fXqZp2mq0cV32RXmGbWP85sCylqZtW8yWvrKurgtAzwu76PN73EcD84q3vrwGc2pHACe7DdChmGlIpuwQFVfXDoovZhSYegDt23Z4unhAYfx/X19hFG9UO0Xl2GF0dLZ2Yk66UTfVltLi81i5ebk9PXyDTtQ/o3NrOQwDLRZdo+QqUsld+Z/XYQfgfnutt2L589BtVGrRZTfbBD4lZ73z1f19p2+cOXy5XdX3ChfeVUDmzp79tkEfDbvBYBcT9mnyYRuhPz4YSYt125poKoiFq107lwie3Flf2ZmRtz7w6I3wUqipbCw8NS893HC2+7ZvRs4cKuuqqI/6DY4sfJoEbpHWcmdMc4QaFwPKtnXOm7Q73vt/H1jGEVPnAjJ6xletOEietsI5Wzq5/nlVkYXVmVX1FU3NXd2dlLeni1u7pC2DIBL3rC2MU10BnEAclbq1iRNb2PpE0ZQGAkeNdTVk9/3/ELlJjHDiqGFGRWFGtSCL6x8/nxwUBDlhJ5c6dVAS1LntNDBWFbXkhVhqE8o8YXRs4jwBVt7vIlpFWYRtNyFsqH0nxzioclJ8suuSIhBShUs8XPz8O9u2/39+KW9Bw6dOnFCS1OTzWaPjS0ANZpT8Y3J4jXPra4CTSLBHqZ0YIkRZBqNlzgqvKpT/uBhqC0iErt37Xrn2/XQwYM7lnrMVFVRWVXMrAxaXF1cyO8pIyVlbGgIDr1RTujJ6rJKaBG6MlbJnbmbtGiYGOofJL4yCwkrridUmDs+dSasAPIQiAsRHPL9FkIOK/JolLoIGFiHb9XtgYcW2V27QkNCwB2P4bEJWWu+O4p398ZE6Vg+wNFjDRNrsubQh8jt3QtXkNksFishISwsLC42Niw01PTBgyOHDl25dGmVMLNctHC5XEqjeGcUFZ/O22uimdCTdWWV0JLcOV06IGT2kt8z/p2AEyLfmL1o6aM+BD6H49diiP4qfnRMYDd1w7cbHJ/0KWk5+jwXhqw4Aa+FQbQA4gvjwD9fuPOfLTtPKijA/TuX+Ez5p2zYgQgiygdnVns1zMQ1gB4YlLF7ZWVRtKB0TXU1j8err6sLDgp67Oy84phZFlqaGhuVL14kv5Kujo7QCT2lxqzs1iQ6PMgXtk1ZyZ2xyKZ2Z5dYVkdZWxA4Mze3E7GNpBazYOBrcmY2tr5TKZzzlU3Mzy6JQxP8W/Kr9/c4f9EyIAEzn1lG/vnC3Y0MhpGBAZjYNNHe/QL4We35/cOASLLmiBhiYmRUU109ODj4uqOjvr6+rKwsNycnKSkJIKe6uhocp5ienm5taVkTdydrampOHD9OeL0Tx4+7urqCc8T0E3pKvZmZw1EVX0Fa6F2XSu5M+eD0L25LrHJtsGL+2dCbsqpoIHAN+bfHbGAzkvN6UCuhHPpX+cYutmpFz1lmtPRltFBcyXTlCATMBivmV3re/95z6Ojhw5VNbYL6EzR8ORb3hDacS3QGQXPEfaTsN4aGhpqbm4uKitgsVm1NDeWaB9pw4tIS9i3lZWWHDxF9cGprasbHxaWnp79+/VrcekD+1TOYIPQUTCV3JqRuifuHDVZMeVNXWDdBBHd8SiuhvLzr7cOsun+5EvEWM+/cGKYVxZsuZKYkxqdn/uWa+C/XRLucemBPGbL5l7YSOhbCI0PdrLRnFEUFJb2qHcvLitfbt+8UFx5k/traWvjiZGJ4eLitra2rqwtuyJB5xA2RBC2FhYUER1yHDx50cnQEJgCHh5e1K1exckcqCV84UbqXSu6MWmwZqmFH9R4Klenc3NxBnwVr+WjaDVZM/WS+8wn4FxkRsUz5gKwyWxdRfSo0P7ae720c/PmWLjqBIVRmgxXTPLGUEh6EwFXtWPaJ6Yod4OTyxYuXL16UkVriQen9S3+g/8VGS3Z29u5dS2zX3rpxIzIiIpHNXpHDUU28FTuATECLKIcs50+OTf3HdXGz8t9Kt4R26KkpKdBrMaqgh4P595DhX0R4uPKVq/AREHWtIhnvUY4sJNiL0UhYguq/OrNM02pauXx7ZYHl1Lfc9nvEE1BB+biqHcvR0yI50CX3JB5ubmwW60VwsP79++j5w+VY0yO0hdBH8dCSmpKybcuiJ859e/fa2tqyWayC/HyCT0ChBQtiGJ2eW72lGBG7l5hm7pcPF+7r/0nF0NTERFBtcRyfmJiQVVRGQQLofz5JfDtv1AukzcvN3bhtl3ViEZpVRkufRQbdcAIy344v/dExIROxIDMyOU1wbATKPRycE17zOqCMOCT7/uHLgt4JSngQAlevY7mkzreXKdkPeISEK2D69+/DfkaoU28oxmUSYqAlIT5eisG/Jwh+alevhrx4wWax6urqVnDZAcfxmrer2L3k9QpZSgaq41n6Bijf74yDNm7abGdrK0jQdra2f7piQEZLdc9baGfv1atXMtt2fKXnk9O+aGDp7fjU3x+zPec944HMzdJrCKU45y9YT46sXaiPXc7itk8ylbtjUJM/Por/GbEj/rlVVESj8J37Su7M6s0b79u7Q+UBhIyU1KkTJ+7p6KhevXpSQYEwZiEwy+7cWV5WNjg4WF5WBjDj4+194b2FvnRaJ6wEqUr8KCpamFFRsPZ7ZWUfzvuzzMrK6u5a4n1K4nqgCbmTK3/+BR2VFQk7ZwkAo524sF/5/RUDBoadOnEiNydnbHSJadaGhoZfduz9zJJo8CWsumP4vWOJycnJ48eO/V7D4fd2sdOzi9b0wc5meM3Cisjb8akNVkxoOA8I5AeHBGDJBcQCJJwMyYOZ03snhxi2yWkidCCUj0X9q/WdumlgDvUHEPb29tFMJuwrABEREWFhYXFJWXnn0k16kOTi+fNALENDQ9VVVSCJmanp3j17GBgGbLqjirTitEhoCQkJga8Ku5SKiooVXG0gvNiqHn1N756uEHYDGSiT4nsneD+e14ISAAQ4yTc7O/un++5QKQFxL7Eir2MAvpGlhQWw1Y26MXpe0Q6YoXk+N86rDVZMV04TTIjj+AYrplrMwhW07b7psKD/c0sCpsOGJqZ+cmLBcArCMsoup5ESG4TAisGZVRqDnb+uSZAeA8MIOCE8JsTHP3Z2vnLpEiHhNTU1KJ/+vj5OQQGYzNy9c4eBYa4uLjB2NQjhaHkWsLDhCruU1JSUtra21agNzHO1u5cc0cZjldyZI88ygQr+XtPh37IHYeMpnT0LansvYIl9111+GQbJVdBlRXFR0d8UFpyMuxcuXMB4PTQGLUvU9PJAPhs9UjZYMQ8hCwN9o3ynrZ8/jAaX+00Qp+EbrJhf28SEVfNXCKA7PgqoWDHtsuoJqBD0uBpGw2IauccUlaDQUEJDXb2osLCxoaG/nz86HR0d7e/ra2trqygvT0tNheDx8/XVVFfftWMHTKunu8SRU3Nzc/L8vmSAv/+Z06cfGBtDLVpxQghannp5gVrCLqW0tHRo6EPYNGnkreS1MHQkBmhRtl+AYh3wX+JA+Gsdt+9uPmRgWF4u/zDLzOzsH02eLSDKLnard9rDrIW9/5GRkd2Hj8PlMgiMvQELCNxgxQRnydCry9D+WH3/gveys/OOxFKbKRzOaLPKcRy/HEV1oc0yyim3QRA2COH5q2DpODC/QXbvgrkCqOsoERkRIUih+/r66uvr8/LyAGxehoXp3b+/V1YWJHdzXbIJNjQ0BCYzhYWFj+ztTyoooGYeBBUhQTgdWlznz0peUFJymDdflJqS0tq6aLpKgsLESjI5O7cidpLIOIEhxcIOjwGVKh+cPhpA9Pv1txMqalcXloMDshcXc7+zj4OXKB87O3972wYA6ScnFnh9u5zF2wGfWTHBPOZeYgXsGULfu2fJ7xiAgXw7rjOzlJeit/ukV/cO/bDUeM0XD6OeVXYSICHocTWWjF3jsjcha0IoSFA6Pi6OXit6e3sryssT2Ww2ixUVGWloYHBgPx+BFubmhISvX7/OysqqqKiIjYk5cfw4NKJAYFvOo0C0ODx6tEdW9vHjxwDcH6xLQV9mBU0lQYQQCKEmlKCGnQ1ZYgb2C6PAjZukamoWVrGkbEOAZsPtyL7e3n8fPgPVHTjfK+96+4X14sjtR8cEHMenZme/d4iHnJciC4EQEhq6YOCx+UOZR54vqQOM/cEh4S57EW8/OcQlNA/CmtMTqzFFtBLnDFicMMDwHQeMjDQ2Nqanp7NZrJjoaEsLi7OKiuq3bqHaguP45ORkTU0Np6CgtrZWS0MjNnbRXSGBU7JHCrRMT09bW1kF+Pvnz/eDH7hLIbxG6/DqjseSaP0eE/TMILEcXf76/orBHW1tUOFu3ujXVpGfWTGhMWJDkwdfGC3eJwEXXf7jvmTLn+GZguM4XB0G2v+d/cLnNmjpJmNOe79DbgNEiCBi69OUAhHOtsBXI3w+lvnI7pggrxSjnQklDca0hKYnP05MTEDM5ObmRoSHK546RWbr6OhIS0sbGhpyc3V96uVFZpA4hIiW0dFRG2vr1x0dubm5wHzRh5ml0LzAqu7uA+WAqiOUeFrc+o3lS6ipP8spwO4luKL9TNiCp+Kmpqa/nFOHbBusmH2jE5pLd983WDEPBvE3+0+9X3mD/MDnHuFY8S6/jPKut5CHkrgRVy70FVCGZWKDkNwlOuOkEnEVixIe5MDs7GwaHUCjIGYy0tPfvn3r5ura1bl48AdwjoyM5Ofnv3nzJiU52ddn0dY7mo8E9BK0DA4Odnd3DwwMZGdllc3vBEmQ42okWVOAKeidkPeIA8r6O5Pnl25rwVdu5o4AWuvO3d+Z8E2/gp/001TKObpyZGHf6OTnDxfHZoBfJ7ECx3HTtBqYAyBYjd3omA2N/ZdrIrOhF0WCUJqg68t5jKrr0zClNl1CBoagEOBjHQqTnoCYGRsdFeTzvr6+vqGhoaO9PTY2dnp60c4yfc40sYtoAfuMvb29mRkZH/LsDU3l0KjXK2pnjFIzhKoXyuCe1/S9xQv+Sq6uV2beQpcCKtzd3f3X09dRVVaLKf7JicI03l12hWMexaWavz/mm2UgnATbYMXc4p12KbIQzRksMWsnVpYPTKLVE0pTSkCyQLsXcQePnRCEAUHh93R07O3t2SyWr4+PlYXFfV1dBobZWFujjS6UHhsdLS0tBWvQlMx9fX1180eVOQUFlC7RKVMJClxEC47j3d3dq7T0Jqh4scK7x1d3jz+pc7pEtFUyqIvaz5O/Ngn8o65bZ8/ihZOnXl5fGC2sKQPNFnSD3zqrDpvfZiEAYIMVs7z7rVI4hxx+MGjJRF8+MDtWBGMUsMLvdpBW0HBuSEmr2j1jQXigDwenJOG+CpvFSoiPt7K01Llzp6a6WizF6O/vp5kvzMzMtLa0DA8PtzQ3L7MbWIIWsar4UZg/AGBEPEgG9a+kd1zbO0Le0HFiauF2ZHN3/9em/G5H6E+N5OceJrHJrjvw3hkyDOR3ZbYLljWvMotT2kRd+IK1LV45+2DmT0N276PbThGKlpTk5OKiorq6uqKiooz59a6ysrLy8vKrV654P326sgrW1dnZ19cH7lRKnPMnhhYcx3vH5zirdpwJDEVE3+mHWljJnanrHeZNLRwDK2p+86VZKKrllPSPgi0Xb/dN3+yVSk71J4d4bXZFSY8Qq3loxSC9UvsqLtEZlIdZ6OFBiFW7epVwbr2vr6+8rCw3N3doaCg1JUXlypWVHenweDyaLkgUCPHRMjY2Vl1VtaoGZEWpiug8s3N4E282eTWdimT2iD0qA0rZMDTTOz43OYtnVTV8Zby4gkzWe6Eh39ovrCVssGL+5MTSSiiPb+x5NSzSGWqIEECUD86syMEWt/gc5dt3CXpP86h29eo9HR1Bh4u7qI7kcrnczMzMN2/e4Dh+QUkJWqUSXT3oOafeDwHo2ShjF/uWAH//R/b2YplooczxgwVyJ+dWY2cNznSTO6dFsX1B0Ev42Dw82/B24kZE7g4P1h/sRDJMTsbPbr9M/ZQqVlPv69HZGlpHqrBcMsHpXwF3RZ7sgiua92mAQRkFnFi9CA6+oERxWszdzU2QtnR3dYFJeWVl5Yvnz6FVNEH8HyZ8AS1zc3Ozs7MVFRUH9u830NePjY19+/bth6nBMkvpGJ1dVbNXGd3TIh6QIaspCKkbmmkfna3sG2XWdznkNuokVlyKLDwUnLPJMxX4kPjGLvYnp4T/c0uSfpoq65+pFM5xyGtKaenvHpttHqZzzC2oRBheNrgCLiO9U4rVdAwpwSA08PatW9Cp943r1wn8x48dozd1Ag+5V1ZWrgWFXOxbent7W1tapqamIiIizp45w8Aw9Vu3Ap894xQUrJJL5YGBgcbGxsLCwtycnPT09KTExNjY2MiIiNCQkGcBAT7e3v5+fi/DwhLi4zMzMvjTwdra1x0d3MHBqclJFGPTc3jz8OwqnTaHMxnRz8hAZaUkqt/ONPJmW4Zn20ZmO0ZnX8//Okb5j6+GZ+uHJBlokQsqH5zJ65tJWd5g1S+jQl2f2lMVQe+9PDxioqMfWlmdOnkSjZLdubO+vn5oaKiiooLNYunMn6tHGVb7jD2qJ8unF9HyboH/7du3xUVFTU1Nb7nc4ODg48eOwRc7KC+vfuuWpYWFj7d3XGxscVFRZWVlfX19S3Pzmzdv+vr6eDze+Pj47Ozs6Ohob29vc3NzeXl5bk4Om8UKDw/39/NzdnIyMTa+fevWWUVFub17Yc6SEXv37LmmpmZjbf0yLKy4qGh8fHxsZq5uaBWPyaR0Tef1zYh4MYasvh8spII7k9+3LMN5iW+mXCOTtfRFXRo+dPAguhBsbma2RUYGNqvLkydATV+9esVmsQwN+Ffr4G/n9u0f8qjuMgGzBC0gr5qamvT09MLCwsrKSjc3N3k5Ofhua5k4c/q0malpUOjLlLL6zO4VcPIKJzAokdbF9zdWLtplsg+GEFBQ+eBMQd+ybnT5pJUZ2zofO6YgVkPLSElFRkRw5v8AbLw8PRXe25o7cugQnHV0dXWlp6dbmJmh+RsbGS1TiT9Ycgq0AMsMTe+PfCYlJQUGBlpaWCggXQ36tmuQ3r9vn46BiUtobFRND6rrK0Wndk3n9s6Iu5W5euApGZjJ7ZW8Pwkra7fzDlZWUZO4KR87OwOVnZqaamtrS0tLi2Yy4UQlMDAQKjSPx8vLy7Nf6uEnPz8fMqxlghotoMYTExMQM+CbERUV5efra2ttfUdb+9yZM/JyctJL7TtJLO7VS3ji9Nm7Vo7urLyVggqaT1bPNKf/o3U15YMznP4ZiZ1GsNrHPCPYWrr6W5GBk2QNofr+qg/QHB6PBwxGms93IydPnEAxMD4+XlhY+MTZGZalfOHCipzjQktZDZoOLaA8cHwNvDw6PIV0ZEREgL+/q6urk6OjrY2NpYWFibGx3v3793V19fX0DA0MTIyMTE1MzM3MLC0tra2sbK2tH9nZOT565OTo+MTZ2fXJE3dXV8dHj8xMTe/p6Ny4fv2CktKxo0f3yspu3rQJCnT5xCYGQ0nt9gP3wKCCRlTjl0+ndE1n9/AV98OM0Cq4M4X9/MUuySbxIcWtLi+YuibmRw4fWb5UQQ6bN20i7yTW1dWxWayHVlYMDPP08EDVd3p6urS09KmnJ6yAs6MjyrA2aeFogfWenJzs6uysqa4uyM+HFpohZlaJeB4c7ODgYGhgcFBeHkp2+cSeffLX7z94FJoQ0zi4fLTAHFK6prN6+Ls0y1x0phyzlQzwpyXZPZKMuGJfDXkwkw0tbc+eo9j3oJHnFhmZo4cOodfiBTH7+/tDVYFEZ2dnWlqahZnZVhmZwsKFW24wtqK8PMDfH2b4YawcwdIlIMRACyH3kZGR3t7ejvb2xsbGmurqkpKSgvz83JycrKys9PT0lORkcDt0BVF0T0dy222wScjEoROnbxlZ2r2ICyvvgHq/fCK5czqjezqvl9/nFA+I3e2UD/LnRYX9/AWuzJ5pybqR4IwSS2d35csqmzZuJL+40BBzMzPYfAH+/lqamjSwOU11MQvHcR6Pl5uba2Fmdk1NjWz1s6qqKvS9RaGTCgo0p4kJ6vdRHiVHy4pXd2pqamxsbGhoaHBwsKen5/Xr162trY2NjdDfQOCzZ0IbeJkMe/cfvKqtb+EdGphbt3zAEHJI7uQrfWrXdFrXdFr3dPr8L+M9kdbND0+d/yV3SrimF1na4stMtHZ2va2uuX3r1mVKQ+XKFYgWQIS8eKF29aqgbAXd7B0dHeVwOHa2tgTrE0CFaqqrobU6CzOzFderFcxwDaGF/q0mJyfz8/MFtRMDww4fPGhsaOjt5QXa1dbaWnbnsgy5b92y9fiZ82q6xkZP/FyiM8LKVrLnIQBJskd2x0RITpVLcISRpY3yZZXt27bRyEeCqM2bNgUFBdVUVzfO/3E4HCDbh1ZWlF4TLysrC2rE8fHxkuJilydPMjIyyDx1tbXvTuyDGn4AI3rkCogY8smgBcdx2GUTGl5u3z5jQ8P4uDjCh9Dx0SMC5zIft7zHj4Gzt3Ug0y0+J6igcWVnPoJgE98y/LKkJSC5wDUkxs7d566e4elTp5f5OqIkJ1zPGhwcrJo3Evn06VP5ffvIOSQnJQnSvMnJydLS0qSkpL6+xbtAkLmhoSEmOpqBYdJSUuQZDmT7uMSnhBYNdXVC8+zctu2+rm5UZCTESUZ6enlZGfgWBvj5EfgJj/v27Dl18iT4QRPUBB5RHrfIbNl/+NipiyoqWnpa5vYGzt6mXs9tnjEdwtgusVneKcXPcmtDStqianvjW0cS30yx2sdiXw0x6/sjqrpelneElLQ+L2h8kVcTml3xMrMkJDn3aUiUnYunwQPzG7fUFU8ryi51aiBKlVaKR15Ojnzuqbe3l1NQEPHyJeGcCwPDrqmq0ij01NRUTXX1xMQEJU9TY+O7g04MDDurqEjjJp4y7YcJ/GTQAuSIKsE1NbWgwECIk7y8vI72dlRqxUVFKD+kr6mp2dnYAJPnMDmbxSK4OoD8vz5i57ZtBvr6Hm5u8KepoSHoONKzgABUqpCuqa5ms1gqJOOrmVRjLZhqdnaW8qA+YKirrQ0KCmJgmL6eHkyydohPAy2vOzrk522uAcU9oaAAnCsBXSfjBMg35MULgqITEqJQgfRlKk+ahHw+9Ucfb2/4vijh5Oh4QoF47OW8kpIgfW1qamKzWJoaGqhAbpPMfBGSz83N0VwyqSgv9/XxYWCYl6cnIeFHf/w00AKP4m2RljbQ14cNnJGeTmOR2fTBA0IrwoTJSUmFHE5dbW1PT8/g+7+qqiqw6v2JAmbPe8On6FuT6bNnzgA5pKenczicnOzsVMTuMJvFIjupTk9LE6Spr1+/ZrNYN5eexl/mSZaioiLveZPCSYmJgsr9KOGfAFrcXF1Bk59VVIRLXnw3nLW18P4DWXbvzlOjG5qmJiYQKjQJx8bGGhsb2SzWGUVFsp6t/RBvLy9bW1uyaXq05rdv3WKzWGTfoL29vXW1tcCOnBeyy87AMG1NTbKEYUhvb+87v7wnkU4JGiWEPOISuTk5Pt7e8nJyEc/McQAAIABJREFUa+p64lpHC5PJBC39wNiYlZAANL6oqEjoNlZwcDBUEad5O85sFis/P19oQhzHGxsbCR9LmNVHJ+SoVqJgrSzNzYGInJ2c0AsXkIGBYRq3b5eXlQlS39nZ2cbGxqSkpOj3kmdg2KaNG+m1dmBggM1iHTq46IOgpKREUBEihqenp/v4+Ny4dm3tHCFb02hJTk5mYNixI0fQGXlrS4so4j43f6GNgWEe7u5AgSoqKmiGy4Q8gXkrVMkALbtzJ81ZbN1790xNTMipYAjfG9bJk5SbFYDn1MmT93R0Ap89i2YyA589c3ZyOk+6o3v+3LmrKiowT5TYtWNHaWkpsJ8SFxtLvn3FwLDzSkodHUKcXfKGhjgcDuzVGRhG4x0NiO7NmzdRkZFwNGiwEtP0RDb7qZeXrY0NoXU+1uPaRUtSUhIDw/Tu34fTidzcXFF6BhzH4+LigA4F+PsDqNB/GgnS7+vrQ1UQ0ArHjrm5uoLcKM/ggIUHl8ePyWlByEF5+cBnz9gsVmR4OOWH38jAAORP+NfWxoaQp7amprubGyEQPBbMn37ncrmFhYVsFsve3p7AdlBenmBshfD64HF2dpbD4Rjq64PkB+XlKdnQwKbGRndXV+iZVFyzYGhWkGazWJ4eHk8eP4YhH5FYo2h5t7krxWA8CwgYGRnJysoCFpnp73CjQrxx7dq7Nk54v19JsxKApoK0p4cHQcM01dVjY2OhEts85PtvQX/X1dRArIU50WUcYNu1YwdMzmax3k3AUCeeDAw7c+oUZMjMyKiZ/ysrKwM+TAh7TdJSUp6enpaWlmgdAH3uvRumubm52poaMmBkpKRE7J9xHM/KzISzoLTUVCgiQURNTY2jgwOoiZGhoSA2scKzs7JcXVxioqPFSrUazGsRLSMjI5eUlYuKikZGRnJzc5MSE8VS9/T0dAaGgXutbBaLfJKcXo61tbXofY/NUlJwMgBA297enpSYiKqpwrFjQNEL8vOdHB3RKEjDraHWlhawI25suMQ0hMrly2wWq7Gxkfzh72hvz8rKQhctGBgGVoHRwRIsC3Vd0tHezmaxbK2tYSwDw0Q3OzQxMREYECCzeTMDwwwNDOhFB2Krqqrgq9HvvYiSG+ApLS319PCoKOe7dvqIf2sRLfZ2duCwakE+/4+sPTTy4vF4SmfP9s1vNrNZLMpDFjTJ33lT0Zs3yAt068D+/XD0lZOdDW25E/Y9gT3ftPll1nt3KcxtaWlqAjih71JZWXn08GGoxBrq6qmpqYJmtAMDA4Thn76u7uTkZHlZWfD8dh7Mh4FhOnfuoO/Y39/PZrHQ5HeXMqDMZLq7uxuklZeTI8dShlSUl4PDl5cEnxyjTCgocHp6uqysrLio6ONafllzaElOTgYiy87OrqmuFqQ9gsTq8OhRZkZGT08Pm8VCVVMQPyE8/v2EB8yGQ0NCgJZXV1WhKwQoWi5fvAh4gI1d8o443N949WrB7yQodHZ2Fj3Jdk9Hp6KCb1pf0F9WZiYKCeWLF7lcLrBrhVYb8BCy4vF47zouYMqHgWFye/eiryOoRBiemZkJTgaxEvjumUT5S0tNPXLoEAPDAqjuvYiSA4FndN7hESHwAz+uLbTAriAtLU2s0ReQWnp6uoe7O47jHA5HxPUAVNw8Hk/x1CmgbRrq6gADbBarubkZZcNxHEXL0/lTzw0NDTiOV5SXowrNwLAt0tJ+vr5sFquoqIiQCY7j7xwmwu7lno5OC6kgNMnMzAw6GFM4dqxxvlAcx6uqqp4jK+ZgdQRNC/xmobsiCSLrPY7js7OzYOIk+oEUHo/39OlTKQZDdteuZdpThS/C5XKhhsDAD0msLbSAN09ks3t6esSVAo/HCw4KArslhK+4iFk9eb+cZWZqCqCSlpZGeagJokVzHlS5OTmgDyRPWgz09NgsVlZm5uzsLGU17O3sAMDe3bIWepRQTVUVonGvrCzwtQCyLSkpcXg/vQY8tfOeGNBCp6eno5lM8MnXvXcPjRJKg6na/n37BL0IOYfOzk4TY76ZJfOVu7UyMjIiegXIVVpmyJpDS3FR0fDwsARvlZeXh+P44OAgzdYbTbZ5eXkMDNu+bRs8Q1WQny/oowjQsmvHjrDQUDaLBeczx44suel+6sQJgDoaGMBLO/d0dIQOHSG0GBi2edOm6qoq9I1yc3LQ9eKHVlZoLKD7+vr8/fy2b926VUYG2Bom81CGzM3NXTh/noFhcTExlAyUgQ0NDdfV+KZkCFWlZF77gWsLLV1dXXNzC2bqxZJdb28v+Lo3NTaKlRAwd3V2Kp46Jbd3b2xMDNBv+q1MMOy5o63NZrHgDKGqshJ++AHhMu/jFgzSaGp1Yt70liho8fP1hUVs27KF/F3Iyc6+Pr96zsAweTk5yjX31tZWM1O+BUpx7UT6z5eud/8+zbuQo3Kyso4dOXL50iVy1CcXsrbQIrH4AFSAezMJMtHT1T129GhRUVFKcjKbxRLkmQ3mbPrgwdYtW4KCgtJSU2FPSNilAYO0nOxsofNpYEZIFLSgkxO5ffvQlWJQt7GxsWgmE9q0fx4cDOuMEk1NTSqXLx85fJgSTignSg8NDe2RlT188CDN8TyUH9AjIyO+Pj7SUlIs1oIPdDLPpxLyK0ELjuPDw8O8oSEJ5O7u5nZWUbGjowNsftNPtUH+SmfP6s9PSNB+Az2IeWD//siICBF3e5LnTy2IgpaI8HDYtygcPcrhcMjvOzg4+OD94eurKipkBhCSmJi4d88e0TdeQKpbN28yMCw7K0tQtpTh3V1dpg8eyO7eTRn7CQX+etAi1mcStlBCfPyVy5cHBwfBtreIC3EMDGNGRbFZLOhrijAMs7W2ZrNY5JESLBclRkZGtsrIiIKW2NhYiJbzSkqC8m9ubobXVOBAES0ReKC3t7WluUlP4AeP4OaJ0DNj5LSNDQ23b95cWX/c5FJWO+TXgxYJJFVdXW1sZDQ1NQUuaZAPsVPmOTo6amJsnJeX927TGjKgw7CrKipsFispKUnQIgFMBQmVy5evq6kJneWDs3MAMGqqqtD5OMwHErA+1g8fwkAC0dHerqmhkZPD90Iu4l9DfT0Dwy6cPy8iP8qWl5e3V1ZWdJmgadcI/dtFy8jIyMuwMLDpkZKcDNe1hDZMeVlZIYeTmpIyMDAAmS8pKwMl3rF9e9D80UmxznE6OzmdOnlSKFrQDUptTU2aIoaGhpTOnmVg2KGDB2mWXHNzcnTu3oVvIQqxf98+GSkpCQa9o6Ojnh4eJsbGopSyNnl+u2iBmxXFRUViuboNf/lycnKSU7Do9RsdhpkYGbFZrLy8PBodJatCXl6e7K5dQtHCKSiAIzFLS0t6l9Yv3l+0ZjKZ5BJByOTkZFBgIDw/IYgNDdedt4GYEB+PBopId3d369679+muJv920QIa+NWrV+Lu+qelpXG5XHTXEg57zr2/xIvGiqJJIyMjDAwTCtq83FyIlsBnz+hL4Q4OXr1yhYFh9KfCuru7VQUvBpArD+xUSWy2uKqqysHenpztJxHym0bLwMDAWy5XgnYinGuG52U8PTzYLFZlZaUEeZ47c0bodmEimw3QAs7/C+2LoqOiGBh2QNhpyIKCAtG7l9raWv4FTHV1Cd4Rx/G5uTlwt0+y5B831W8XLXNzc2SzvCI2BrohAy54MjBMU0ODzWKlpqTAHRgRcwNsVpaW5ANphBzCX74EaDmvpMRmseYEnKaBqfr7+8+fO/fuGGUBMm6EsSgh1uiIgWGnTp4k+DNEc6Onu7q6MjMz6XnWZuxvFy3LaQ90tRqc8N+zezf4ZArVeEHlxkRHC9UhuJevf/8+OOkjKDcY7uTkxMAw6I0Ihi+HOKuouGP7dqE9G00Rzc3NqAxpONdU1DpaltUcHR0d4GMPLgmDW76S5dja0hIteDoO8nz83kOQm4sLzfIxWoGamhoGhl29cgUNXCYNDh/QrzHQFzE9PS3udJE+ww8Tu46WZckZWBI6feoUsEdDP+0WWpKPtzc9j6WFBf/o59at0UwmYe5Ek/D8uXM7tm0Ta42OJjccx8EBHBHhKigriYfBgjL8AOHraFmWkMH83sHeXvSde5ryhN45uX/vHgPDrly69M6b9tjoKE1WaJSbiwsDwyiPyaBsotNpqakrm6HoRX9cznW0SC7/rKwsBobdunEDHFte/iVYoV3TzRs3GBj20NIyJztb9Hq/evWKgWH+fn6iJ6HnrK2t3bFtm1h1oM/wU4ldR4vkLaV3/z4Dw4KDg9ksVl1dneQZiZzy2NGj0lJSYWFh4hof2i8nZ/rggcjlCGHkcrmKp06limACRkhGn1r0OlokbLGBgQFwK5DNYqWnpQnysiBh7lTJ5mZnGRh28cIFNosl7t2Ea2pqakvdDlOVIEaY/7yhNjES/CpY19EiYTMGPnt2YP/+jLQ0NovV2toqYS7iJGtpbmZgmOmDB0lJSeIuvzo5OJxUUFjBE408Hm8FJ0LiiOFj8q6jRULpn1VU9PH2Tk9PX86qsVhlZ8zbSQsOCiJfAhOaT1JS0u5du0Q8ZC00t3d2pKamptAtWlGS/Ap41tEiSSOWFBcrX7zY3NzMHxR1d0uShfhpngUEgLsAoluahIWAfSGxNuxhWkHEBxh8Cir6Y4Wvo0USyVuYmcXFxRUXFQm6jyVJpsLSWJqbOzs5vfMuJNmASorBEMU0q7Ba/Kbj19EidvOPj4+bPngwNDQkseKKXeR8AlUVFVZCgsTrtrt27AgNCZGs6PVUQALraBFbEyLCwzkcTkNDw4dZNYb1u6qiwuFwamtqYIhYxOGDB/18fcVKss5MkMA6WggCEf6Ynp6O43ghhyPuwpTwrAVz1NfXe3l6pqelSTxNOnvmjIebm+AS1mOES2AdLcJlhHJ0dna2trR0dXV9mFVjWHRoSAhn/haKUHtLMAmBUFNVZUZFEQJX9nF0dLS+ri4tNTUoMNDL0zMqMnJl8//oua2jRZIm+MBQwXHczNSUy+Uux/vpgf37V2+WX5Cff5bKUydXost2kjTJB0mzjhaxxTw6Oir0SrDYmQpLEBQY2NbWJpklTpC33N69ubm5wsqRMB6akIYXoQHxIQerElZdnGTraBFHWvO8YllqFDt3AQkGBwaqqqrE9c+BZubs5LR6G6nGRkYEnPBNy+7fj1bgV0Cvo+UTaERg46++vn45dW1sbJR49Vlouajxfwgb9Vu3hCb8tBjW0fJptNf4+Di0iylxjVfvrAr0QgOhwsAwezs7iau6NhOuo2VttguxVsuHCjAVTcx3hZ5RkEA6PDx8hbJfK9mso2WttMSnW4/Xr19DhKCEBKc/17gQ1tGyxhvoE6gedNiEQoWBYdzBwU+g9uJUcR0t4khrnZdKAi+ePyfgBHhZo+L9tMPW0fJpt99aqL31w4dktFz5VTgDI4h3HS0Egaw/ii2Ba/OeJQmAMTUxETujNZ9gHS1rvonWfAXl5eQIUFlZEzNrRwDraFk7bfFJ1mRsbIwMFQaGpaWlfZLvQ1vpFUZLbW1tbGysu5uboYGBmqqqmqqqrY1NWWkpbR2oI1taWlgJCV6envp6eiCr+7q6To6OQYGBwJOw6Farx8fH8/PzvTw9TU1Mbt+8aWRg4OXpyWKxRDQu2t/fn5yU9MTZWe/+/ds3b1pZWgb4++fm5Eh2DmVkZCQvN/dZQIClhcXN69fVVFU1NTSsLC19vL2jmcyC/HwRl5K4g4OpKSlZWVmODg53tLUphdjY2MhkMl2ePLmvq3tHW9vH27unp4eSU2hgVWVlTHS0u5ubgb6+mqrqzevXnzg7v+7oqK6qokSLoIOnc3NzdbW1z4ODvTw9NTU0qkj+CMbGxsLDw3Xu3FFTVdXW1CQzUFZ1enq6uKjoZViYo4OD+q1baqqqt27eNDUx8XB3D3/5MjMjQ2L71GhxK4OW8rIy64cPD+zfTyk4BoYdP3YsKTERLVgQXV9f/9jZWeHYMUFZwXApBuPi+fN69+/THERvamp6YGwss3kzTIUSW6SlPT08ZmZmBFUmOTn5yuXLaBKUPnzoUJbI/kqHhoaeBwffvH5disFAM6GkDx04oKWhYWNtTTZ/Wl1dbW5mdvjQIUJCwuk16KiewCYtJRUXFyfofcnh+fn5pg8e7JWVJeQDHw8fPAhplCBnVV5Wdk9HZ9eOHSibh7s7yllfVye/VIs2bdxYW1uL8qD09PQ0KyHhno7O9q1b0Wwp6Z3bt9+8ft3CzOzVq1doJqLTy0XL4OAgMDJPWT808Mrly/TVGh4etjAzQ5OISAtyGhoXFyctJSU0E0rXoVNTUw+MjYWmZWCYKOeCWQkJNAonqJTt27bNzc0RhBYZEUHJD9EyNzfn5+u7edMmSjYGhm3etEkUG8rd3d3qt24JyoQ+/MTx44Rq4zj+yN6enAp1i8lKSKD8rqGOo9FsKysroecccs40IRKfAFoWWlgsFuFTQVNFd9qLe9nZ2fv37aNJThNFeesIdS1Pk5aBYclJSWgb4Dg+OTkJbKjSJ2RgmLSUFP2ZlL7eXuA1W2hWZAbK70twUBCZc/OmTeAVJiYmbl6/TmYghAg9wRUbE0NIItYj5cjQ4dEjciYW5uag5oJKlNm8mXzsf3Jy0t7OjpybKCFSDAbNaIKgCYRHydHi5uoqSuUAz+ZNm1CfpoRKQLckomeIcpLnRakpKSgDDX1g/37ybUTK8+eUmVhZWhLeBX2sr6uT+BPAwDALMzM0N0BTiv3QgQPA7ZbuvFlxyqqigceOHiXnDEPYLNamjRtRfnFpSncxdra25HxsbWxwHK+srBTUGd66eRNWDBDcwUHlCxfIWYkYcvrkSUKGoj9KiBaaUcr2rVu1NTUdHj2ys7V9N41TOHZMWkrqeXCwoDrRQGX/vn021taREREcDqe4qEgQJ8EX1/j4OHlNU0Za2sLMjMlkZmVl+fn6Ghkanjxx4qSCAnlMXFxURJb74YMHHzs7Z2ZkJMTHu7u5aWloyO/fr6GuPjY2Jui9Xr16Jajj3SItraWhERAQkJ2dXVxUlJaaeuzIEXKhlEIzffCAzKl84QKO495Pn5KjKEM2bdwo6PuanZ1NmQRszzs7OcVER3M4nMLCQg939y3S0pTMlI5ozExNycyuLi5TU1MnFRTIUSAkMiIClfDo6OiZ06cpmTdt3Hjl0iUvT8+kxMTioqLcnBzKAYKeri6aoVi0JGiJi4ujrK60lJSfry/9yIRQOVZCAmVWe3bvjomOJozaS4qLyczkK0eUeYaFhhKKFvR4X1eXUMqmjRtF9w8Osh0YGBC05mFuZka2xn+ENGvnu7/LzydX8sa1a4TqMTBMW1OTw+Gg4coXLoSGhCQnJQmahVMaJXvz5s22LVvQfCBtZGhIXqzr7OyEDChRSrUKqnPnDsoD6OfBwYI+ggwM27tnD9rzz8zMCBpnXlVRIRslNDIwIJfo5elJlqqIIWKjpaenZ8e2beRKyMvJtbS0iFgqYGtvb6f8OB09fLivt5ecVXh4OLncG9euETgN9PXJbIIWNAlpZ2dnyVU6eeIEgY3+cW5u7qqKCrkOUgwGpTPUiYkJyoUySvMux44eJedsbGR0UF4ehgcHBcEaUs5z+EceqW7Mq1JVm4Fhgc+ewQxRoqK8HBaKEpSj7iuXLqE8gI6KjKRUJxBLMIDmOu+IhpyJ9cOHhA8rqKTSvM9NAr+Ia7Poa0JabLRQroBJMRjiWm2cnZ2ltHtwYP9+QQ4NgQM3wsuDgS98HxzHKdd8KUc1aCpAcwcHCfmDqbxYXuOCAgPJmTAwjJWQQC4Rx3HKPnPbli1k5tnZWUHje1hi+MuXaML0eevJMBYScA0NMoe8eAFjUYJy+gRSQa+xKP+uHTtgnihx6MABlA3QaFcpxWA4Ozm9efOmr68vLS3t0VJH4YKQCdcJ0LLAUg3l7KuxsZHAKfqjeGjp7OykrAFZZYXWgMVikWXHX6FKThaUlnLASvj84Dh+XkmJnPPmTZtYLJagnGF4d3c3OS0Dw44ePtzW1gbZaIix0VHZXbvImaj///au/ymqI4n/VY9Vdt1dNlvLN4UcCggI7vqlADWCfM0pIHIgAVSQXBTwS4rl4tczFyOSSkUlATVl1itQj9OUqbIUCCWUsIIgCsscZuq6+mZ6njxvf9v3C9Vv6O7p6bf9Zqb7M+/t3q2S+ltXl8yfk50t8z9//lzmxC3yJPA95WdbdLSsnMxxJ8bH6+zNyGl8i88nK19cXMR2yrTNar2p+wmn7du2yVJrExJUr2O+f/++zG/RNDnDJlurajEWLZ/V18sW2KKjV1gUx0akp6bKqnbk5WEeTM/MzJCB+rP0HpPiPXtkzbylva1N//OLCwsLKlmX00luJLCRjLEuv1/WYF29enR0VOCEy/KyMllk3969wADE4MCAzAktJOyXDMV0aW1JrnLffcsJLerADCDIjF/1/v3AAMTws2dgJ0mQZQAQVw1c59lKzvA8eQhqjRIGomV+ft5G5UA+IMmgGrxOafzKt9+SXpbXSOTvFWS3+nz6W3ZyIQfih5qa8L5TdrdcZbdo2qfl5TInb5mfn7fbbKAfiOPHjskiZAIDRB5RNe9qqsb6ZykvlLp+PegBIsbh0JlYfnv8GDgx8eXp07LlqhNjXLCspEQWwS3kKBITEsjtChfc6vNhqzidr34c4+5UtIFoEbIuYMoHvNOtrrYWxIGI83hUaU3GGFlXJitNk5OTZFRDRzEOx09/vJ2VdIoqLEE8Iz1dNVHcGxwENkzoPAXIlZJF07qvXJHN459QxpqB3l9VJfMzxsjN4amTJzHz06dPQQ8mqiorMZtAH21pwcxAy9VextjFCxeAQSCWEUz6OZi52dmVP1C4kWOKZN3BujphFIYuDUSLKiNh9FV0S0tLHrdbcJlF0xrq61WmT0xMkFkjVZVNlePGnZKAF17jI3OdWNbtcsklUcZYS3MzZuO0027XeQoUFhTIIhZNI/VXUilRLk6iBt++fUsuX4UdguoBceP6ddUdYYzFx8aSlpPbaLKQz8VVcQ5dq2rNOq+M+vL0adI2f2cnqP0AwkC0kOlFl9NptFcVarVHjfZT+Vou9IIx/s5O0l+4UVWEmZub20GdcMKyMQ6HnDEnN2NyjhuM/PXRI6wT02QOPTsrC/MAXVxUBDox8VixWBKQyGTFc/lT4zrfElMBVSyaRmLDi4uKwFqBuH/vHrZZpsmViGPNGtUWdH5+PtbjEXrhl9fVOSS5X7nFQLSsp3DByevWyUr1W/5+8SI5ElXSaRmaTk7E+tMRY6y7u5t8skLvqy2WkeFh0tqFhYV9e/cCJ0lkZWRg2dnZWbK7Y198gdkwXV5aSmpeY7XKK/JQKKRaYarSDz1UHdnpcGAbGGNkXcKiaQIbXL5580ZGS/CBJCclARsmyH2RRdNI/CUWZIyR0Mm83FyBDS7JxAY379f/79PTBqKFXD6lbdgAVq6QaGpsJH8icgWAK9QBJnf5/fqdBgIBt8tFdscbSUQT17m0tNR2/DgZAKAQPxeHhoagHRNCAQQMVqU4LZpGYplGR0exWqBjHA7VU5ZcGXpzcsAGTpBIgo8Vv3vGWEd7O/QuEOREGgqFVGBw//vu4NLSEnkLVOu3YDCoc8cNAU0ELzHGDEQLaXRCXJysVL+llEJAkBUAjrcT7ge+XMkBvbGxMZ/Xi6UwvZkqa2D7+/v7yfoJV3L61Clg7u3txZqBJmf/hYUFctnGpUgM7y0FgqvmwAGwQSBIoJT8OyPxbKrnoM7q8R0S9L+YYmyJ6oVjFk2TU5pYkDE2Pj4OnsRE85EjAie/JEvYXNDjdpMiK280EC3kMmBVVJTqwQZGCLAoEsFORsvLly9VMzgf/wo/OxoKhdqOH8e+BnolHpyamiJLYwJM+LueHlCLCRJqQR72ACl86gPcqFpgCFt24GeMkQVHOcML/WKC9MzU5CQJAAVBctmpQmr+KTkZW0vSqkINeahJlQ/g5m3KzCS7WHmjgWhR5UD+efeuTn/Ln8l2/m/afveuXeBcTAizZDAYzKQ+CYJFDKXjyH2I2+XSMR7+NTMzQy5E8XNdlQuW0Qaq7CIMTf5BM8bIp2b0qlXkrpoxNkmheMjzPNCvQExPT4MHGGPT09NkPhpLkWtjVZyr5gfcqSoXXFlRgdkYYz/9+COZOAXzCgsKBBGjlwaiRXWooLy0lOz13uAgVIh+uXMHeMjStQCjGhkexvBBEhylAzuHvjBx/do1cBwQ2Zs2YR4dmgS04jR0f18fqMUETtyFQiEhw0MOjUS8b6HKbT6vV2VzIBDAZgD9b+nLleQUZNE0XF+fmJhIo+AXoJYT5DFmYcggcvvWLZXx0B4MBoEfE26XC2NY/vH113inQHqVXCVCRyshDESLKo1r0TSh2hUIBARkNV67N1DwGYumedzuBw8ejI6Onjp5UsCN1x88iD3F6fjYWGGE9QcPJsbHLx/rl199EAqFyPom4LeDweCGlBTf5s3nzp4VEqyMsbHffyfnFnwI9l8PHshG8pYTHR2vXr3q7e0VoG4Fn3yCscMgLsN5GGMupxMYgNBB6F04fx7YMCEsjBljqueg024/f+5c740bdbW1wsF31dFF8qMXKniEsJoQ7ia/XFxcJH/6Fk0rKymZmpwcHBgQsE7rEhP3FBbiIXNaeAcA2Z1+o4FoUT2ruClul8vn9aanpjopPP/Y2BjYobqL8vB4S11tbXd3t/xfAew0NTWFeeI8nrra2hMdHSc6Ojra2zempeH/ctrpcADC7fI332CG7Kysv7a2cvGW5mYyzYInDcbY3Ows1vBeOjkpaXx8HD8RQUTej6k2u93d3eBYgSDPKjrtdoGNMVZTXQ1dr4TIz8t79PAhyYmThNCREGlccH1KCjDoE8IjhuwXGm1W68DAABmf586e1e/ovf81EC2MMUN2wwCEDZmqZAb8mKiqqAiFQmSJRgARPlS5FattAAAEJ0lEQVTcP6xNoHF1UpUGEETg0m6zDT97JvhXVbgAKSASExJGhodfv34NLZiQS08qnJV8BApMIk8dCzUiznzthx9w7/r0+pSU6elpVfobT7ZcuWr7JKfmwHKBUJUcZDtt0dF8ciPLuDpPFqFH1aWxaBnQxcDK1ls0zZuTMzc7K3S/khWwRdMaGxp4kY7cJu7asQOrVZUjSKuWS2/C3VKdmlKJk+g4fUAnqEpPTeUnvYT5EBjkpSBp3kcxMToJSfKFq8J8yB2oU20EkziRnprKbVMh4mTE113q5LZF0+TkB76bmFadbBFs+ygmBhJOZCWdBLDhjt5LG4sWFSJdsJtfroqKamluJiFS+pm+5UO28bGx/X19YD0JY5E/1KZTV8EWrrZYjra0CO/OGxkZIVPkWJDTcR4PGSrvFmNzcySIHSs5cvgwbE9fvHiB/wU0rA/BAyQI9zM1so4x5s3JAYVAqNDQquNGIGjRtPLSUsiSqaouMlhGtfA29FIvVR4VzCssKMBYITLNrbpr4OT3EoajZTmL//Pt2zhhBRZjYtfOnfruIFfV716VYLc3NjQI+z9yJSZjH2ZmZmqqq8mdANhWUlysMuzRw4fkDA6ydpvt89ZW+MWQzr03OCifVeYacrdvHxoawlKq16LK7/valJkJZnBiU2am4CWsWRUt5WVlAhtc6kA2MzMyhELw2NiYYA+/lFen8hv411itOJcIBugQy7t5EnBg0bT01NTvpXN+ZKb7u54enS5W8q8PiRbGWCgUunXzZkN9vc/rdbtcNqt1bUJCVkZGWUnJhfPndRbT2KZvL18uKiyMj411OZ1bfL7PW1t/uXNHeORzfr4nsdtsGenpxUVFh5qarl69Kr9UgTM/efKkqbFRSDasTUhoaW7WQa2CYf19fYUFBULI+bzeLr9fdQQaZDnx2+PHNQcOZG7cuMZqTduwoWLfvp6rV8lz8HwruCoqKmnt2p35+X+pqfF3dpJYJv620p35+TXV1SdPnLh186bOGoybAUjqjWlpebm5VZWV3VeuqMzgIpcuXSouKoIjOtlZWe1tbXLGmTPH/YFc/DgpiVve5feTB2xajx7Ny80tLSk5fOjQma++6u/rk1/AyRXq/w0Ggy3NzT6v126zJa9bV7xnz9kzZ+Tg5Er4scU4j2fb1q1VFRXtbW2BQID8ael3Kvz3A6NF0GJemh6IBA+Y0RIJd9kcY3g8YEZLePxoaokED5jREgl32RxjeDxgRkt4/GhqiQQPmNESCXfZHGN4PGBGS3j8aGqJBA+Y0RIJd9kcY3g8YEZLePxoaokED5jREgl32RxjeDxgRkt4/GhqiQQPmNESCXfZHGN4PGBGS3j8aGqJBA+Y0RIJd9kcY3g8YEZLePxoaokED5jREgl32RxjeDxgRkt4/GhqiQQP/AdyST9Iv74jSwAAAABJRU5ErkJggg==;" vertex="1" parent="n1cjui-AUTv7zVWOq074-310">
          <mxGeometry x="28.5" y="499.73" width="73.91" height="54.27" as="geometry" />
        </mxCell>
        <mxCell id="n1cjui-AUTv7zVWOq074-258" value="NoSql Sources" style="text;html=1;align=left;verticalAlign=middle;whiteSpace=wrap;rounded=0;" vertex="1" parent="n1cjui-AUTv7zVWOq074-310">
          <mxGeometry x="39" y="460" width="146" height="30" as="geometry" />
        </mxCell>
        <mxCell id="n1cjui-AUTv7zVWOq074-259" value="" style="shape=image;verticalLabelPosition=bottom;labelBackgroundColor=default;verticalAlign=top;aspect=fixed;imageAspect=0;image=data:image/png,iVBORw0KGgoAAAANSUhEUgAAAlwAAAFZCAIAAADCW2bJAAAgAElEQVR4AeydB3wTR/r3Ma6UJHcpgJu0u2ouEFIgl4ArSS65mlCSXC65y+VSrqRzuZJc++eSSwFsQ0hy4ALYllwotmQI1Wo2PbSAcZcLNdiW5F4l+X1nZ7Vey7IxRrZVHj7PZxlvmZ35zuz+9MxOmdIP/4AAEAACQAAIAAGawBTgAASAABAAAkAACGACIIpQE4AAEAACQAAIMARAFKEqAAEgAASAABBgCIAoQlUAAkAACAABIMAQAFGEqgAEgAAQAAJAgCEAoghVAQgAASAABIAAQwBEEaoCEAACQAAIAAGGAIgiVAUgAASAABAAAgwBEEWoCkAACAABIAAEGAIgilAVgAAQAAJAAAgwBEAUoSoAASAABIAAEGAIgChCVQACQAAIAAEgwBAAUYSqAASAABAAAkCAIQCiCFUBCAABIAAEgABDAEQRqgIQAAJAAAgAAYYAiCJUBSAABIAAEAACDAEQRagKQAAIAAEgAAQYAiCKUBWAABAAAkAACDAEQBShKgABIAAEgAAQYAiAKEJVAAJAAAgAASDAEABRhKoABIAAEAACQIAhAKIIVQEIAAEgAASAAEMARBGqAhAAAkAACAABhgCIIlQFIAAEgAAQAAIMARBFqApAAAgAASAABBgCIIpQFYAAEAACQAAIMARAFKEqAAEgAASAABBgCIAoQlUAAkAACAABIMAQAFGEqgAEgAAQAAJAgCEAoghVAQgAASAABIAAQwBEEaoCEAACQAAIAAGGAIgiVAUgAASAABAAAgwBEEWoCkAACAABIAAEGAIgilAVgAAQAAJAAAgwBEAUoSoAASAABIAAEGAIgChCVQACQAAIAAEgwBAAUYSqAASAABAAAkCAIQCiCFUBCAABIAAEgABDAEQRqgIQAAJAAAgAAYYAiCJUBSAABIAAEAACDAEQRagKQAAIAAEgAAQYAiCKUBWAABAAAkAACDAEQBShKgABIAAEgAAQYAiAKEJVAAJAAAgAASDAEABRhKoABIAAEAACQIAhAKIIVQEIAAEgAASAAEMARBGqAhAAAkAACAABhgCIIlQFIAAEgAAQAAIMARBFqApAAAgAASAABBgCIIpQFYAAEAACQAAIMARAFKEqAAEgAASAABBgCIAoQlUAAkAACAABIMAQAFGEqgAEgAAQAAJAgCEAoghVAQgAASAABIAAQwBEEaoCEAACQAAIAAGGAIgiVAUgAASAABAAAgwBEEWoCkAACAABIAAEGAIgilAVgAAQAAJAAAgwBEAUoSoAgUkjYEH/zKz191v6++l9FotNmixoDz46cD59oe2ZNhfCn0AACNwQARDFG8IFJwOBsRPAwmaxmPv7zXQYRcVoIP3faKLmnj84EhNo5GgAwjlAYGQCIIoj84GjQODmCWB3kHHpsKrhSC3mblNHTa/+UO/V7T31X3ZXfdBV/nbnud92nH2u/cwvOs483X76abT99tm2b59rLfltW9nb7dUfdNR/2Xl1R2/zMVNnvcXUxaSPI6s2unvzGYAYgIDnEABR9JyyhpxOKAFro+ig5k1Lb1Nvk6qrfm3H+ZfbvolpP/JA+5EFbYfmtx2MbCsWtxUJW7VEqza0VRvSqgluUQVha9YEGzXBem2ooYjQHxToD4oNh+Yaj9zTcnRB67EH207+uKP0re4LG/uMR8x9raz7iHNrsZjodtcJzTvcDAi4LgEQRdctO0i5MxKgHTYzN2Xmnqs917a3l/3BeHSB4TBhOBxoOHSX4eAsY9FsozqwWR3Soua1qIlWDY+2UCSH6iCrhbSoQ4yaIKMmSK8JQaYNNWh5Ri1h0PJpmQwxFAcbDoYYDvEMhwTNByNajz/cWfqu6dpui6mdTQadKlBHlgcEgMCwBEAUh0UDB4DADRGwWNBXPeslFkuHzqRL6D4W1VE0u007uxXp3xy99s6mg7c0HLqt4eAdDUWz9ZrgZlVIiwo7hYEtKmxzWlSzrYb2GNWzjerZek0gNgPSyBADEsjgpqKgxuI5jYfvajp0h6FodrM2pEXFa1eGdCsDuwuD248+1lH/pamzzpoq/BGTTSRnNwSBABCgCYAoQkUAAjdFwOqE9fdb+vrNnX2dNe11q5uPRzdryFa1sFXDa9EGtWqDUUBJGFUhTUXfazh4y7Xiuxq0SOSMatbmYPEbvMVHuaKI1NGoDTJog2hFDGoontVw8Db9oVuN2rta1MGt6sA27ZwudVCXck6HktemCm7Vzmk9vqDrQqKps9pi7rRY+uj+PQOdfW4q/3AxEHAvAiCK7lWekJsJJEB/vUNel8XUZu662HttW+u5ZVe0Id9peY2oqZNo1ghbtGSLJqRFE9imDm5V8ZpVPL3mrsaiO68VBTZogw0DomhXEVH7Km2DRNGgmYNFUV8U1FQU2Fg8u6n4dkPx95q1s1rUQW3q2W2au9rUs9pUQW1qfpuaaFXPatXOMhbNMRwk2s6u6G1QmLuvoMZVZjTIoK+eE8gPbgUEnJEAiKIzlgqkyekJoA6l/f1mc2+jqaOio/o/xuLw5qJQQzGP+eynCW5WB7VqQlqR6xbcpgluVQfR4ZBmTZBRG9RYFNJUFGLUBtF/zjFqkfM31Jo1+AR0qFkzpxnJITLufvra2c3a2S2awFY1viO6qlkT2qwJQaYNbtYGG/HtikKai4Jbjj3UVbu6r+WUpVff32+ymE24XdXpsUMCgcC4EwBRHHfEcAN3IkB7hxaLpQ+5hsaDraVv6LWEXs2jLUSv4TVrgmlBmtOiDqRVMIiWw4FtCy1UBm2IQRtMS10g1rmhioglE4uoXVHE0shu6bbTkFY1EkIjbXptiF6LpNdqwc3FvGZaF5u1Qc0HIzoq/tKr15h7vutHH0RBGt2pqkJexkgARHGM4OAyTyNAfzu09FvM5u4Lvfr9baV/0BeLmzS8Jg1PryH0Gr5eHWxgFDGwWTOH9tsGtJAjjSG0LmKhQopo0M7WF83hWKC+KEhfhL4aWsWM4ykWzaI9ReQ10hbYgnxQbMFYEUcSxaLgZmShSBQ1c/SaQEOxuL383d6m/ebuq/hbo6eVLOQXCHAJgChyaUAYCAxHgJ5irftaT8P+1vOvGw9H6LWheg2vSctHoog8xVC9Ktigxm4iI4rWYRXs+AoUoFs4USOqteF0jqFoNm1zDEXYAg1FQdiMyJtEDiXHU8QtpXNakO7aSK+tKNL+KNdTDDJqsSgGN2sDjZpAIxoBGWTQBDYXh3VW/t3UVGjpa2HkH80qB/+AgMcRAFH0uCKHDN8YAdy7tLu587K25cy/DOqFTfuDGgtnG9ShBjVPj9zEUKSI6lCjKtioGhDFZk0g27DJDQwVRWvzKfO9cND3RdwQyhFF7CC2auZYLdDqJrLfLAeaT3Ej6iB3k/EUQ2hPMbBVg6xNE9SuDm5XhbQfXNBds9rUfIR1GW2mArgxdHA2EHBBAiCKLlhokOSJIUDPym0x9fYYKvRnPq+X/6hGKvwuX2g8wGvcf7tBOcegYuQQCaTKtUQReYrNmsAWbPTnz3YVmiigWRPYdupHnZdSTJ06GjOeiHxiiMNdgMDkEwBRnPwygBQ4IQHUudRiMXe3NFcp6g/8rjJrQWXG3MotkTqp+Ioi0KC8y6gOMqp4BlWIQRViVCMf0aU8RSyKc2h3NpieRi6kWU1/wiyaZSwONB6k2kt/39Owy2LuxrPEgcvohLUUkjQeBEAUx4MqxOnCBJi3v8XU3Vzz3ZGPqnf8qCQ9ojQzslw6tzxjbtkWSVUW70J+YOM+frOKbFYFNavnNKvvalbPogcU4rEQQUbkhzFhm0CLJriF6Y8T1IyG4TO9T2l9Qt4bt7XTiM7ETbLoZNpQ/xrGw0N+XhDHcMz4Elrq6E+SAwnQBqFWU2woeWwiQ9D4DXTyHKN2Nko8+vTIbz0e01WbYO6soQdsmGEOVReu1pD0URMAURw1KjjRAwjgedos5t7Wuv0X9r1YLr2vNCOyNDOiVBpZkhl+PjOiNDO8LENcnknV76D0+wQtqtAW9V0tmttbNLcbNbOM6kEjCAfUaBiBxCfQUsTqk02P06HKijudDt1vZ4+1h46dQ4PTFoKcRfTlMpD+1hiElFiLvk22HAzvOP9Kn6EIr+boAVUAsujpBEAUPb0GQP5ZArjJ1GIxNZ5MrMn/UUVGRFlmZGlGeGkmbdKI83SgLCO8LENSKRVc3CEw7KNasS6qbzciXbwLu1+jViMkV04giqxqBtKOqdU3RboY3FxEth6P77m02dLXwrKCABBwVwIgiu5aspCvGyZgsVhMXcaL+1+qyn6gIj0CiSIyqyhiaUSeIrIKrIvbKcM+QYsytEU1y6j5vlFzx9hEkdOSiWWS8RcH+3NYusbDU2RFkRvA0hhMz4kT0nJ4fmf1B+auehorjNa44doFF7gKARBFVykpSOd4EWC7kHQ2nqlV/LwyI7IiY25FejgrilgF2W15ejg6mh5RkR5WlSnQZYc27iaMypAW9Z3N6juN6jlGNZrpG61lMXj0/QjuY4uGHYCPvhHa08JJ2Wl1GelZeFoOSjrOvWhqK6VLAnRxvCokxDu5BEAUJ5c/3H3SCaBxiP39/c01iuq8JRUZEUgRMyIq0sPL0xmnkJVDHLCKIpLGynRJZQZVv5Vo3M03KoNbVEgRDYwoDu4yYxVIu4LnrKJIf1xkevqgnjstRfy2b+JMrWfoYoMlqCa99kICHE8ARNHxTCFG1yHAKKK+ZGPV1ocqMsMqMlkvMGIkUcwIq8gQV2SIaJcxvCJDULeVurabNCj5RlXQGETRrlI6zU5uD9jg5qI5xkNUr/Hg4PUjXafMIaVAYEQCIIoj4oGD7kvA2q3G0vjN6qqshRUZEsZQuyiWxuE9RSSKIqsoRqLzMwW124hreyijkqAH9YcYmP6cto2oTiN1N9oei5pSjZo5+uI5+uK7jNrAXr3GYunD/XXdt5pAzjyOAIiixxU5ZBgRsFj6Ub+a7mvHP6nMeqAsYy7qO8N8KWQUEUvjcP5iWYakDOso+voooTWSqtlKNGvC9UpBYyFhUPPomUWDmbnWNDZzkLqqWBrp1RyxtPc07um39IIuwjPlTgRAFN2pNCEvoyKAJ7w297Z9d/zTiqwHyjLn0aIYSfedGaSII3xZHBBF1sXMEFdIqbo8Ul8oMaopvQqv3xRq1PCMmlAkjdbPinYDLuZBakPxrAK91+QWcw/o4qhqHpzkCgRAFF2hlCCNjiOAFdHUbWw4uaYy+wesIpbhHqfWhlO2BXVkTxFLI7stzRCVZZIX5ESTkkdrId+oIYwaPhJF62IXdhWRu9Nl1NGqiz3f7ei39MB8N46rpBDTZBIAUZxM+nDvCSaAFbGvy9Bwen1FziKOIkaWZdCfBoeIYsUwfVDLMsJYLeQGkC5KQy4WhBrUpEHN16vQwlIGtNiFbXspVwi5YZcRRTR0hB7dr+X1XlP0m1E7Kju+ZYJLFm4HBBxFAETRUSQhHtcgYOpubipJq9oeV5Y5F7ealmUgRRxBFFmvkRuwGadB/4m+MpZliEszhBVZxKWd/CZlaJMqWK8O0auD9TaTmtJNqS6lf8N1zEG62FYkMV3b3Y9EEXTRNR4ESOVwBEAUhyMD+92QgKm3zVi5rTrvMVoF57Jy6FBRlJRlhJVmiHTbqGv7qCZVcJNqll4z2zAgiuz4RXZo/HB64yr7Q1rVvK7ihSZ9Ee2Lw/hFN3x2PCdLIIqeU9aenVOLxWzqbr2o0u1aXsq4huMkimH05HARFVLxxQJJk5LfqLrDoJlFr4bBrokRiD4xorZHV5G9kdKJ1v1QE+1KUdexn5iMx+m+vTDfjWc/bq6cexBFVy49SPsoCVgsFnNfZ9O5uv0vlGZGlGVElmNLx7ObMtvyDDSLzSjNXvNpmPVDY1hZRnh5hqQ6W3RRQTbs5xnUuOvpbKN2Fm1zaEUcJIrsClCuqZR8g0rSop7bdfo3lrayURYLnAYEnJAAiKITFgokyZEEUNcPi6Wv/epl9ZvlGRHlaCK3gT415fTs3vYUzv7Ife6ZzOoZ1onC8Z9Mp5tMcXmGuGwLVZFBXs6XNB0QorH8RXcZi+5o1t7ZrJ1Nd1FhRjU002sitqqZ6U+dae7TkRxEjngHG9V8vUZsVEs6tHf3lP/N0n2J7nED/qIjazLENTEEQBQnhjPcZTIJmHtaG06srsiYh+SQo4hoGOJYRdGuItKrLaK+NmWZotJ0YekWQXm6sDpLePVroV7FRy2oRXfRojgLiaKaR0sjEh4nnvt0VLrYqgrtUJIdSlF7IdV56hlzpw539J3MUod7A4ExEQBRHBM2uMhFCKDOkObeFp2iOmcR3Xd0YAo33JV0/ETx/BaqdDNVmSku3cKv20E27hfo1aEGtIrvrGaNm3mKQe2q4N4DvJ4D/M7DS/oa91lMXTA2w0UeEUimLQEQRVsi8LfbEKCnWbF0t9TV5D9OL38RMXTOmjGLIu5Nw90Oaj7NEJeli8q3iCroRtSyzNCGvWEGtbBJFUyvLTXbqA42qoNb1EHY2LZTHGD3c5ooR+WxTdb5baqQ3gOBvcX391372mLuBkV0m4fIAzMCouiBhe4pWUYteObeCwdeopeCGmYWt7E2n9oM5yjLiBwsipKydEn5FjGydGFpOlG7Q6AvDGs4EGJAuhhoVAUbVcE2Wjj0z8kSuVHflx5Vog1tUwX3FM83NxVazF0wtY2nPGBumk8QRTctWMiWBY2W05/fVJ45rzxzbnlGBOojQ09Pw10Q8SY8RdueOFxRLM1EoliaLsZWnikpzSCu7pY0KQVGVQgriqz2DPqmqHZqp9CaZryeVDCe1Kbt8H2W1rMWM0z2Bg+eyxMAUXT5IoQMDCWA56fu67xWkX0ft78oDpczC2Kgub/HTxRLMwZEsQyJorBcxtcXRhhVBBJF2qwC43IdbeY0a+YYi4KNRWiQSdvpn1t6G/B0NkPLAvYAAdciAKLoWuUFqb0BApf2Pl2WISmVzkOdQtHwRFvfjt5jfwpT7nSmbLh8YEEMib3Y0DRvtL8YVpopKc0Mw75jaWZYmTSsXIpGMepyJQaVRK8J1Gvu0mvuatbMYXXRRQKBLZq7WulRJYbiOxoOfa+j/mO6ybS/vx8msrmBygmnOi0BEEWnLRpI2BgJ0CvCW9rqvq6SRZQxgwgj6MESkyWK4XhQf3nGvLKMsGt7JUYNT6+Z7VKiiBtL6dEj2jmtRbcbi243Hr+3r+1b/AURlo4aY2WFy5yPAIii85UJpOgmCOB+j2ZTV3ne4pKssBJZZIk0/LwUiSLXOH7emD1FPP237bY0M/x8ZliJVHJeynqK4bTXKCnNiCiThtXtII1qET1F+Bzu4hhs2JlcxgEtRKsnakObtUEtxUEth/iddZ9a+lroGd1MN1FccCkQcDoCIIpOVySQoJsjYOm3mK+dSijLnV+SM/esLLxEGlEiDS+ROlgUy9GCGHbMKoph5wfJMN2gmhFRmhlWmU1e2yNu1gj06mBWCLkB5xBFPFk5FsUQJIea4OYiYeuR+zoq/2TqqreWETSZWknA/+5CAETRXUoS8oEIoHnFelvq6rY/Wp0ZViFFH/ZoUYwoQc7igHHGF+IJS0e1Lc8Iqxje6DbSsNLMiPNIhiPOZ0aWZsxFlhnJuXVYZXZYdS7VWjSvSclHq0ppgvSaIANaSSoYW7OW7dg5IQH6di3aYHRf5tZBLdrQFuQXhqLZdoqI1iP3tp14rEv3kbmzBlc0aC+FB85dCYAoumvJemK+8LzfDYf/r0Z2ny4rskImKZVGlMjmlsjmnpfNLZUyViadixZTZCwS9cEZnZVnRlQMb3Qkkfgu6I6og8/djEnn0fsjSqURFbJ5VTlzv9sToVeJ9RpCrw3Ra0MM2lBjEWN0KyUtSFiWxn/bWsRnrQWFQ1qLeK2HwluPPtR26iedpa/1fLfD3NOAqxSsmOiJj5Yn5RlE0ZNK283zigbrd+pL6r5eVrP1waptD1RuX1i27Qdl2x4q27a4bNviiq1Wy11cOWCLKnOHs4cqcwdZVe5DIxh98qKKrYvLt6LblW+NqsiNtlpUxdZFFVsfrNj6UHl2dM2O2LqChYaiHxgO3m04FImt+XAktpZDkRNs7Ufmdxxb2HliceepR7q+Xdp57rnusj9013za27DX3H2FrjV4am8LDMx382cIstffD6IItcBNCOAuNh1NZxvPbtCfS246l9JUktLAWGpDSVrjubSmG7PUpnND7Gxq03BGn9x4Lq2hhLHBd0xFSTqX2nB2k7FsS2PJhvaa5M76LzvrP0d2gbGuC59310+wreu99FXflc1917b3GVTmjnJLn9FaJ/C03sgDBzm0MoH/3ZwAiKKbF7AHZo99kUNglASQ4DGyh3xBduZS0EIPfHwgyyCKUAfcjQD9TscNfbAdNQGLmf5YiLewDqK7PRSQn9ETAFEcPSs4EwgAASAABNycAIiimxcwZA8IAAEgAARGTwBEcfSs4EwgAASAABBwcwIgim5ewJA9IAAEgAAQGD0BEMXRs4IzgQAQAAJAwM0JgCi6eQFD9oAAEAACQGD0BEAUR88KzgQCQAAIAAE3JwCi6OYF7PbZQ7OtmM0ml/5nNpvoRSAnZmu2wDBEt38sIINjJwCiOHZ2cKUzELBYLC4tiCb7ithvsoxslusp6NDLLWZLv9k6Xw0zSh8E0hkqMaTBmQiAKDpTaUBabpzAiVMn//b+e6+9/vrbb7391ptvsfb2W2+x9s5bb3Nt5Vtv2zX2fJvAO2++NdRszhn9n2xKVr711so333zxX5/+WV3xxonG3x+7+rtj11491vjKsaZXjulfOWZAdtSu6V852oQMndbE2PGmVzj26jEDx4yvHjP+8bjx/862bNG1H23qvtzZ19xr7qZ9RhPSyRvnDlcAATclAKLopgXrAdnCPuLGlGRKLBQIBQKKEpADJqQErIkFwkFGCSX2jD2fGxBRAjFpx7jn3FCYTYlEQIr4PN/IB+/6IDt0q+7WjMoZGdUBmTpfae1UWb0XbVNl9VOljPlk1jMmrfeR1vrK6nxldT5Ztd5ZNT7ZtTbml1XPmr/sYoDs4jTpxenSS9Nkl/yy6m7bUR2nrv+80vCtsVvfbTLRM7x5QJWBLAKB6xMAUbw+IzjDCQngqa6/u3btX//6p0QsCpOIxUKRSCBkTSwUDWcSoShMYMfsnj/cyZLh47cbD7szTCTGFiEUikJDZ4YtuP13H83NLJmTprtj04U7Nl24NePCNOkFfxmyANmFaVabIb1gtfoZ0roZ0rrp0rpp0tppspppWbXTswfZDFn9TKvdIr14q/TCbZn138usvy0T7Q/IqvPLrfXdqpuVV/27Y99prnU1dpvxXOBOWNaQJCAwkQRAFCeSNtzLYQRw/5pTp08/88zTEpFQRAkEBDnYKAEx4DgKSErIGkGJ7Bk6f4gJ7Z0pIigh90yOh8r1Vu2GsVspogQSvoCazfseefdtP395fsrBWZt1Mzddnrnp8vT0S36ZF3yl9b7Ser9Mxvwz6wMyrJZZG5BZOy2zLiCzzl9a6y+r8ZfVDrG6aUgykU2X1s3IrJuZUXdLZt2MzFqkpln103Pq/XNqAnKqAnKrb91a/+fTxmNNqD0VWlIdVkchItckAKLomuUGqaYJ7Nm7d8EDC0QCSkSSQr4dowiSIkgsTnaFkLvTbgyj2YnvMsotq5QSnkg4W3RHcOT3H1l+38Y9s3NqvDMueWdc9pFe9JXW+UprueaXWevPmrTGT1rjL63xz6r1G95YmQyQ1SKHkjVZbQAjojXTsmum59T5Z9f5ZdXN23V5+4X2tj7kMsI/IOCxBEAUPbboXTvjFoulr68vMzOToighQYgIEnlvQ3RxQBSHcfgmURTFfLEkMDwodO73Hnwk4jPprNwqL+kFr8yL3rILvrJaX1mNjSEVtJqvrMZPNpIicsUygFZBm+00vDOrLiC7Hourb3atT07tqtLm77pM4DG69uMBqb8JAiCKNwEPLp0kArjt1KA3rPp0lZAQ2pVDLJAC2lPE0jhUMh21Z5Q+4oBC082tIkIYFhrO40feMu8H1Hvr52SXe2XWeGXW+8gu+GXVcVUNh7mqNvToCHu4F9qE/bNqGUXMqvXLrvXNrvXLqf3LacOVTqSLII2TVMHhtpNJAERxMunDvcdGAItidVX1H175g4SUSAihkGen7ZTVRfStcYgT6ShFFPJtvmVe508hQX/dRJ6rQMITEXzJraK7Z7/67yDZuakZld4ZOl+ZHUX0y0JtnqyNIIFDD7FXDQ3YNsBmI2m8ZWv9X04ZjD0m6HoztvoJV7k0ARBFly4+z028xWI58c2JHz/2YxEhkhBCEY+0aw5UPkdFNdBgyydFoSQVKriDCL9txRtB6Sd8M8v9Mqv8pKjhdGRtG3p0hD1DtZDdw4oiCmTX+mbV+mcju2Nb3Uclhv7+fnAWPfcZ89Scgyh6asm7fr4LlarIefMFFCUmKRHfJUVREMIThhJBfMktP/5tUNrhgMzz06QV/tJqP3uiiJs62QbPEVTQ5hD3woEw7m4zpJ8O0kUkjTWUon57fZvrVxPIARC4MQIgijfGC852BgK4+bTg6908oYgkSQHBF/IIl/MUkesZyhPz+Hy+8PuP/yo0uXhG+tnpGaXTpFX+9kTRRupu8k//IaLoaxVIOlAzPaf2R6or1W19Fks/DNRwhmoPaZgYAiCKE8MZ7uJIAhaLpau7e7NMGiygCJIQEHyRC4oi8m5D+eF8Pj80eEb0T4n1hYHZlbekl06XVftn2Wk+va4K4jEY3NN8s1CLKHcPN8y2nXJ3+lm73vhn196+re4fZ1AjKvwDAp5DAETRc8rafXJqNpsNzcbP1iaGCgWUgHJVUSQoEY8Mpwgef47/Aw/zPttJ5FTfenOiGDB4nMbIomijheyfWCzRtTm1MYVXzhi6Lf1oJnH3qUCQEyAwPAEQxeHZwBFnJajHUbwAACAASURBVGA2my9fvfru398jREKRUCgY5oOiaPguqY7qNTOGeAY62hCUiC9AosgL9L0ndvY/cqisqlvT6eZTe54iVrgRdA63iLLa5ke7idyruGHuadww7oPjL0PDM3xydbfl1f6rRO+sFQHSBQQcTwBE0fFMIcbxJmA2m3W1tS+8+gohQLN+u64oCvmkmOSHhAZ7R0bd/k4qJa2YmV7mJ63ym2xRDJDV+GXrpuZWeW2tXHbo6hV6OD/0RB3vig3xOwMBEEVnKAVIw40RMJvN5RUVy595GvWyIUkBn3DFjjZiEn0RFRD84OAQ37BFt/9hPZVZOj2zwlem47pubPi6ft6YPUV2hAY34JtV7Z1b5r21PGLvhR0X26G7zY3VUTjbZQmAKLps0Xlwws1m87dnz8YtWSIgSCFBkHy+gO96vU9pUeRTfF5QCM8/bPGdryZS6Wf9pZXe9txEm7ZQVim5AYeKYo1fVqVf7nnfrWUztun+fQ6623jw8+ZhWQdR9LACd4vsms3mU6dOLV68SEASlMuKoogkBCSP5AUHhfBmhEfNeWWVcMu3ziOK/lkV/jnnA7LLZkir3zrWiBtQ3aL6QCaAwEgEQBRHogPHnJOAxWI5eeLEgwvvp4hQiuSTPELgijPakISIDKV4wcGhvBkRi+a89F/R5lMBmVXeg3uQsr7g+DWfYheT23YaIKsJyKqclnV+pqz8tszq57Tf1bT1wsJSzvk4QKocSwBE0bE8IbYJInD8yJH5EgFJzCFJHsWjBDyBkG9nlYwx9A4d70sGep+ShJAIEfACg3mh0yX33/Xce+ItJ6dlVo9GFK8rkKyU3mjAKo26aVmV02Vlt8oqbpNV/bjw0ommLpPZAgMzJqh+w20mjwCI4uSxhzvfBIFjhw7dLSQoIpCgQvl8PjWe8307ViYHRJHgi/ghQl5gCD9keth9dz73V/HmE9Mzqr2laHXDoWLGFUJueOiZN7OHFcXpsqoZ0oqZsspbZFUxey6qv+tEniIMVryJSguXugQBEEWXKCZI5AAB/GI+cqg4UsCjiGA+FRpKhhIEf1zXwXCgLg6IIp8v4YWKQgNDiZAZ4ffc+dxfxJtOTE+v9s50DlGU6qZLq2ZKq26RVS3afWH/lQ4QxYFaCCH3JQCi6L5l66Y5w6J49PChechTDCaRIoZSBOFA3RrXqFhRFPNICY8v5gXzydCZkfc6iSjiueL8ZboA2SBRPACi6KYPFGTLhgCIog0Q+NM1CBw/cnh+mEBABAmJUGEoT8hzPVGU8EkJjyfmh/Ap3szI++58/q+SzSdnZFT7TKqnaG16pUVRhjzFW2VVsXsuaL4DT9E1Hg1I5U0SAFG8SYBw+eQQ+ObYkfvnSUREiJAIpXghAj5/XN07B0bOeooSggjjhYbxg/kUf2bkgjuf/2vY5pMz051FFP1lummyqpmyyltlVT9XXj6j74Lm08mp63DXiSUAojixvOFujiBAD8k4/uD9d4v4hIAgCH4oRfAcqFvjGhVXFMNDQ8P5IQRJzIx84M7n3wvfdPLWdJ2TeIp+WVUBWZUzslBHmxeKr17u7LOgNYcdUX4QBxBwYgIgik5cOJC0YQiYzebTp09FL1ok4okEPAnBE5F8NAPquIqZoyIfJIohIZF8Hp9H+EsW3vGbf4dtPn2HtG6a7KKfbFJ6n9bQc67irQ6JYnbV9KyqGdLKd443dptQ31PofjpMlYTd7kMARNF9ytJzcmI2m8+VlPzo8Z8KeeEi/jwyNILiSVxunKKEIMJDQubyCV4I6S164I5XPpZsOXOntG5G1gV/e+P3ucMwuGHrV8Bh100c9Qk6vyyuVftnVU/PqgzeVp1UavSc2gU59XACIIoeXgFcMvtms7mqqvqXz71A8SME/LlkSLgAiaLAUc7cuMbD9RTDQkPmkiQvhPIOe+j21xJE6We/v6VqWmat3eV/uULIDY9a80ajmhxnUVbjn1U7LavyoX11qu86YEJwl3xUINE3TgBE8caZwRWTTcBsNtdduPC7P75JEhIBP4wMFQt4QloUXWBSG1YURQQp5oVGkhTyFCOibn/nC0Hm+ZlpZX7p1ZMnigPCGSCrnS6r88/SPX/4Snsf3ckGvihOds2H+08AARDFCYAMt3AkAYvF0tfXd62h4Z8ffERQEgElIXkUxaMogqII0sbG1ecbW+QcUaQoPj9MQPJ4oX73xs36ZwZfVjYt7bxfetUkieJA26m/TDddprtNWkvm139e2QxfEx1ZgyEu5yYAoujc5QOps0fAZDI1t7Qkrv+CT4koUkCE8kk+YSOH+M+x6da4XsWKooCk+CQhEpEhvOBpP/hh8Gf5gbKyaZvP+2VU2hVFm9Wj2BZUxzWfMqLoT39ZnCbTzczU/Ux55WpXH4iivWoI+9yTAIiie5are+fKbDb39PTIcrfySCHJJ0kej+TzKIJPEbbSOK7yNrbIWVGkSCqUIgViMpgfOCP2J7z1B+6QlQWkl/pnVgVI6wKk9TbmJ6v3k9X7Ztmav8z2TJsL2T/97XVq9cuqZec7ZTraZOv8snUzsnXUjrovyo2giO79NEHubAiAKNoAgT9dgAAeGLBn7z5SIERayA91RVEkKSqIJHhCXhARGBDz4znr9n8/q2KatMxfOipRxBo5ekUMkNYPJ4rTpLXTkaFZbPyzdL7ZOt8cpIs/01zFtQFGYrjAUwFJdBABEEUHgYRoJpyAVqNdeO8CAUFQvFCSxxOQ1FBj3TKHB8bmJgr5JJsSkqICCX4gETSLmDPz0WW8TYdvy6makVUxXVY9XVo3XVrPGnb1sAoO1UL/zDpsARl10+wZe4K/tI6NxOpxogGR06S6GZm66VLdNBlqQUWimFtz796Lp/TdMDJxwus13HCSCYAoTnIBwO3HQMBisZjN5jOnTy//+ZMighTweCSPP1QRBSTFKpDDAzcvinw+P5DgzyZCbhfwb1v2Mi/95MycqhnZlTOydNcVxYEWUSmjiP6ZdTcpijOsnqJ/jo6vqN+kax1D0cAlQMDVCYAounoJemL6LRaLyWSqq6t75403wwiBKJQQhPCFruYpUiQVQvLnCMjbxOFzXvxriPTs9OzqGdlVM7Jq6MZM3KSJtvibH+5Q45s1MGoC7ZHV+ktrsAVk1kwbYgGZzFH6nFobTxEv3DhdVjNDppuB1orSzcjSBe+o+/CswRMrFuQZCPT3gyhCLXA9AthTbGlp+TwxSRJKCEN4Ah4hICmKNq7LKCQobKP3FMfsAo7yQjYlqPcpRQUKRTMiFoS8uXp25vlpObUzcnRIFGU106SMBchq/GXMmHqf7BpsvlnMHhSQ6lgLkOoCMgcZfajGT4qtFk0gRxtuPsWiiOb+ztLNkFXPkFWTeXUffKvvR9OcwrBE13s0IMU3TwBE8eYZQgyTQ8BsNm/LyY0ghcJQvoAgKZIi6X9cUeSGWTUaGhisZ4SQPxob41Sr7N0FJEkIiLuEkun3PSz4V8ad0gr/3AvTcmsDsmr8ZTrWcI9Q32ydT7bOO2fAfOg9aJtV7StjzE9W7ScdZOiQtIYxWQ07kMM3q843q94PbWv9snXTcnT+WVULd1/4qqIZFHFyKjTc1TkIgCg6RzlAKm6cgMViKdy/P+qBB5GGURRJYE0kuULIDVvViBQRtmZVQaRzAh6fYzwBz75ZLxlBPu2rpjUZlIAk+FTo9wSSW6OWRSbs/r60xi/3sn9OnV92zeA5SFHPF1YRp+bopnKk0Ttb551V7Z1V7UMbq46DAvZE0S+7zo8WRb/sWp8c3fe31z5dfPXA1Q5cDrAYxo3XR7jCTQiAKLpJQXpaNnAL6rlz53713PNI+SgBbjul0JdFgZAaYmhAoEBMUmKSHGq0TBL0lkLrFWNDazTyhjdCRIxsAx1NWSGkAzglAiGJhu3PJMJvf/yl+9OOf19W65972Y8WRf/sGj96sCC79cnR+XC10BpGYmkVRd+savsmq/GlDX+V9M+m51ZFoljnl107Y2ttnPLyf0oMlztNZmgx9bQHCfI7hACI4hAksMMVCGBR1BsM//nvx6QwjCLFFF8k4AkpnoDi08YTUDwByaOwoXngQimKR1zP6Bnj8Lxx1z/5erGFovH5NibgCaxGhQYTvsS933/un/dml90prZ6RUxeQowvI1k3LrgnIRgGu+WfX2DOdfxZazsLWZNVsA6y/rNaf/jAZkIXkMCCrZlpWjX9WTdCOup9pr3x43nCkqasHJjd1hWoPaZwAAiCKEwAZbjEuBHAf1LSMLMHcBTwqkuCHk0QYny/m88U8nghbaIiAayGhZDCPNSKYh40M5lMhjAlCCVEoIeIhG3AaeQTqysO1UD4Vyic5RtF7OFsexeMJ2ZSwAZxCeishBfdMlcTd8df0sK01d6aX3yKtCMimLatqGpJGpI7TaA2jt7XTsuqGWE2ArNqe6QJkNVarDUDLNNbfkl0ftOPC/bsv/bL4uw/P6mW1rWcM3V1ooURUQNCxZlyqKUTqagRAFF2txCC9gwlU1dTl7FBkZm/LytmelbNNlr2VY9tkWVu5Js3O5VhOZja2XGkOx3K3SnO2ymwtV5YzxLJzZdexrbLsbcNZVs72nG2K1B17s87Ub69ty6o0SquaM3TGdF1zhq4lQ9eaUdOaoWsbbO0ZOq61odOGNe617VJde3Ztu+Jih+ZaV0VLb7t1QlN6FrfBTOEvIODBBEAUPbjw3SLraNEMk8lFzWQymcxm1HLZ3z/ehksbNTvTBt6hW1R/yITjCYAoOp4pxDjBBPCM1bAdDQFmuAV0qJngOgq3cx0CIIquU1aQUiAABIAAEBhnAiCK4wwYogcCQAAIAAHXIQCi6DplBSkFAkAACACBcSYAojjOgCF6IAAEgAAQcB0CIIquU1aQUiAABIAAEBhnAiCK4wwYogcCQAAIAAHXIQCi6DplBSkFAkAACACBcSYAojjOgCH6iSXADk7HQ9Rhe0MEuDO9ccMTW4ZwNyAwmQRAFCeTPtzb4QQ6+vr03V3Gnu5B1t1tdBbrMnZbrae7tbeny2TqNJm6zAPWaTax1mUy2ZqZs4dz1aDTuOcMjYHe02my3gUnwGTqtZjZFaOYWW/o4kFT7cBgf4fXVIjQWQmAKDpryUC6bpAAfnEfa7j6yeljH508+tGpox+epu3MkQ9PH/3ojD07ffSj08euax+ePvbhmWMfnjlKGw5zt8c/Os0aju3oRyhmq3Fu/eHpI8hOIfvvqSMp1aW5l2qzLuhyLtZiy75Yk31Bl1WPrTqrjrb66qx6HK7Kqq9EVleVVT/U6NPQyVXohLqq7LpK2qqyUbiKiQ3HWcecnF1fnV1fnXuhWnG5bt+1i5rGK8cNDZVtzQ3dnT30DHTMLHQwR+oNVkg43UUJgCi6aMFBsm0JYIfmWMOV+7ZL/ZLX+6Ss905d55221ntTovfmRO8tSfZsrffmdfbsc+/N62n7HB+dumXd1C1rB9s6eifacmPw2bTWZ/Nan81JA4ZuvZaxzUk+W9Z6p6zxTUu4ddO6BSr5Yu3XizQ7o7W7YrS7orW7ojQ7ozQFi9WKRSrFIpV8kVKBTCWnw/JFSvkiZf5iZHKuRankg0wpj6YtpjCfNnlMITK8k9kWKmIKFbGFilglbYXyWJUiRq14tOjrpw7vf+fUocTyb3PqdcrvLpe1GNv6evHUrGiWOFvw8DcQcCsCIIpuVZwenhn8vv7PiePf35Tqm7LRO/VL71RaFDclImnk2mZaKdE2yXvzWsY2rfXGlrbWO+1z2tbSsrrWe1PSoMu5UV03zNwlCd1rU5Lf5iS/5DXTkleH5qY8qClYpFEs1sqjtPlR2jyuLdbuWKTZsUiTzzH5Io18sVoeZbVolTxaLY/RyGM18lg1Y3FqebxaHq9SDLUlKsUSlZy1h1Xyh5XYFI8oFUsK5fHICpYody5RFsQrC5aodj1RvG/lqcNfVZ3fe/ViXXsr28QKDaoe/qy5cfZBFN24cD0ua9hZrG9rW7hju2/KBp/UL6emJE1NSfDi2JSUhCmptKUlTElLmJKaOCU1ibGUpClW80pe55W81is5yYvZk4guHIPhe1m3XskJ3htX+X61auaG1QuVigeRC5gXpc6LUu+IUm/n2mLVtkXIti9S7rBavtVNzI8qRBZdmB+jzMMWq8yLVebF0RavzIsvzKcVDuscu83HJ9huC/PjlXJkjCgWPKzaGa/aGassiKMtVlnwZPG+988ey6yrPN+ix82qeP5xj6tkkGF3JwCi6O4l7GH5wx5MWlnpbZs3+qau905O9N6YwNrU5ISpyYxGMtKYkoiF0CslCUkgbVOTk7w3rqMtaWoyMq/kRK/khLGYVUe9UtCtfTYmBGxcMzXhQ35Wyg+PqaKUihhlPtIz1Y5Y1XauxSi30bYjppA13BaKtnEHrIb0LA/bEmXeEmXew4XY5A8fQLakcMDilYwo0nfMi1WxJo9VWU1ZEKMsiLVuY+kwUkfVzlhVwePaXW+dKk6uLtG1t5gs5v7+fjP0wfGwR8ztswui6PZF7FkZxO5LS2/PY3vyfdLW+iUn+m5M8N2Y4LOBNlogWWmcgjzIRI4QJnlvZMxnwzraknyYPYPElVXZ6wbwvaamJE5NSfRJTvTfmOj/5SrfxI8W7s+P1+6JRl/18uMKd8QV7ohXbrdnO1jNs+f5yZFHaBXFeFoUsTSyWsi4gEp5nFIeq8rHQhijyotWcw01wzKmKojGpiyIURVE09tYFZZJRZxaEafKf0xb8PrpoqyLVd1mE26yhtZUz3rM3Dq3IIpuXbwemTn8gj7VeM0vY61vWlJAylr/5CT/5CQ/2nxTknxSkrxTkrxTk6amrkWdcVIY801ex5rfxvW0rfNjd6as9U1JulFj7pWS5JOc5JucFLAxKeDLVbM2fRml2b24sIARxQN58YU7lih3LFFuH2w7GIVT5i0pzGd1Dgew2sUhtRtoFLU6f/mxSjljVhcwhv4AGa3OHyyHefQeqyKq5YwistLICqSyIFaliFXJY1R5ser8KE3ezw7vXnn20PlWA65l0AHHI582N8w0iKIbFipkyUSPJfjzN5qpqQkBKWt9k5P86S3WRZ+Utd4p66amrvNKXTc19fOpKeunpqz3TkEdVrH5Jq8fZGj/5z4p68Zg+EbeKWt9aEkO2Jg0Y0PC/D07Fql2LTqgQKJ4QE47i8znQNuvfUjwkJNHG/OFD3/ni6FbOGOUihgkVANmdfgU9uRNMeAR0q6h9UKFNTbUdjqcRSvlMWp5jFVWYzX50aq8Xx8rzLlQyaxdDDUPCLg+ARBF1y9DyMEQAthZbOrupHJTfVKS/FKSvJMTfTaiT3o+GxO8kxOt3WeSpqSsm5LM2NSN67BZPyjiz4r0zuS1+OPijW7pGyVOTUHfNX03JvhvWDMrc0PUwf0L9uyIoj1FelxEPtJFazeZwQFWEeWDtRBJFy17tjoXTfdNXawuGGpR6kEnWxVRPpwK2uyPVuHLUbtrjApZvAol+2fFuz4uPYV1ET4xDqmMsMPFCIAouliBQXJHSQC/nb9pvDolLcErLcE7NZFxEzeir4NeyQlTUtZMSU6YsjFxwKxdT5HyYYGke9mwQuiVPNA9le2nai+Auqp60Z160DfFlDUB6Z/7pCT4JSf4/++zu/fteEi966HCgigl7SkWIkWkRZGrf4PCA+pFe4RoGIbVNcSjMrD/h3dyfcHFajSEg7uHDbMx2Aa4nqL1LtxzcAyxavx5Mh9Jozp/iUb+2qnilt4e9E13lCUEpwEBpyQAouiUxQKJcgQBk9ncazb/8+RBr81okKIX/pRI9yOdkrwGiaKNLlpFcUrKMKLIOcGeFrKSSYsi3d10asqaqSmrp6asDti81nfDqjk5G+9XKR5U7bRRxNGLItakoSo1dA8+c5xEEXuKsbS/iHUxWrPj9ydVTd1doIuOqLwQx6QRAFGcNPRw44khoO/uun9nhld6gk96otfmBK+0NVNSrYo4gigO9hGxs8hpdGX1z27AVhS9vvrYP2X19NSE+YXbf6BBs9UgUVQyPuINeYpDRZGVw1j60yP7p7VnzSBPkXv05sJMC2qsivkaugQ1pe54/aS6qadrYkoW7gIExoMAiOJ4UIU4nYUAbkStajVOy1zrtSXBe0uiV9oar8kQRa+vPuYrtiwo3mkVxXz3EEXkJtJDQR4pzHtUmR+v3P7OmaJr3Z34E6Oz1ANIBxAYNQEQxVGjghNdk4DJYuk2mXJ0Zbdu+XxqaoIXsjVeuO10wjzF/338/ayvFhzZvbB454P0vKZRSseIYqxq0NfHOOXA58Zx9hTxjZC/GKfMe5ieNOARZd6jqvynD+/9+modO1eqa9YaSLXnEgBR9Nyy95ycW/r7G7s6/3a8aAbSxUR61jerLiYnTEm29rXhfDJkO9dwA2NuPg3YkiTclztPk7+gCIkibjt1iKfoDKIYq8yLp6UxXpX3Y23BhuoScBM95+Fyv5yCKLpfmUKO7BOoajWuUO/yR7qYRDuLq1E7Kp6VlJmMbeADIVcL2fDoRBFPkbrGi+5fMzVltXfKqkD55nsO7rpbk3+/Ru5YURz5uyD+AMndjnz+jR9FniLT3UaT/4hW8cn5Ex2cJTXslwTsBQJOTABE0YkLB5LmOAJ4+reTTddiv97um7rONyVhaspqpFvJa6bSIzS8kC4mssbOgzookILmB8dmr/cpvjwBdeRJWz0ldZVXyiqflFW3ZXw+T5m3QLtzoVq+sDD/IZU8Cq3rlI9mPbWOx0ABdg6aIQGuVo3Q0YZ7Gg5z5fCGLhwald09sSo0JAOZOj9OK//L2cOXOtqg96njqi3ENAkEQBQnATrcclII4E43qssXF+yQBSQn+iav8U5Z7Zuc4LsBjaynRy5y18EY8BpZ/fPidElld3IC1svT1kzZvHpK2mdTkj+euWXtvH3bF2l2LqZHJS4+II9S5kfZUcR8u6ozhp1DhZC7ZwwRDncJPeUb8wkzXq14/VTx+RZmyrdJKV+4KRBwCAEQRYdghEhcg4Clv7/HZJLXVN23Nd0/eY0PGkS4xjs1AS8vNXhlqDGL4popaWumbFrtlfaZb9pqXv6WBzU7o9U70cw1B5BFD+liQ7uJLiaKrCKi5TXUipe+UR/XX3ONSgCpBAIjEgBRHBEPHHQvArhlr6OvN7uqdP62zd6pa6ZuSvDalIC2qVY/j/nKOGZRXD0ldbVX6irfTWtmb0++W7njAZV8kVJOT3M6LqLIdQSvGx7O7buh/VgR2dWmfn1MWdR4xb1qCuTGcwmAKHpu2Xtszi0WS2tvz+bys+FbU31T1vilJPikJKDRGnicBu59w/m+yDaQsh8UuYsv0h8dE9GCi2ghqjVTkldNTf7MZ+Ond0jXzzuw7QFtwQPK/EWFSBRjaBs/T/G6isidH+6GVJA+mfFlsRbG0ItvxKjkzx0tLG68Ct1NPfZpcr+Mgyi6X5lCjq5PwGKxNPd0p1ecuzsrbeb/EmYkJ/oiSVvtlYr8PHrKG6vjaF2FmJVGHGC7pNIBtIAwmtEteZXXxk98Nn76vS1JEbtkD6oVD9GjEhcr6WEYhWiyU9cURdyhJp+riLEq+QvHVMUNyEdEoxJh0tPr1zs4wwUIgCi6QCFBEseDAPYXt1aVzZelzdiYOD0tiR7aT893g6a8YbveJNrIIf6T6zVaVxJePTX5sylffTRzS9Lc3dmL1AWLVYrFKjSpG1cUYwrzY7idTnFY6YBvig73FDmeZX4MWhmDEUUsjS9/oz7a9J2ZFkNQxPGoohDnpBAAUZwU7HBTpyBgsVg6+vr21unCszcFpK31SU3ES2rg74uM1A1aZ8rOh0Y0ezi9IIZ38uqpGz71/+pjYUHmIk1BjHpndCGSQyyKyEekbdAwDFYdnUwUsb5G0atQRVnXUIxR58eqUbeaaJX8jVPFJwwNJlBEp6jIkAhHEgBRdCRNiMvlCOD+qMevXb17m8w7da13WqJXasLU1ETv1CS/jYkz/pc0bUOSd0rSlDTa0Kj/pCmp1j/pnV6p6ASvL1f5JSdMT06gtqY9WKiIUe9Ey/8WotEXaEY3e2swcb/q4bm88WLCbMdO7gkTGEbLJS7W5C3W5i3S5j2EtvmLNXnRmrwYdV60Jn+xJv/vJcdLWvR9FuwlulyZQ4KBwEgEQBRHogPHPIGA2YLe7rqW5phdW73TEqemJvikJU5JTfJNTppJi+JUqwp6YVFMS5qyiTarKE7dsMZvY6L/hjXCHZkP7ZfHKXfFKQtiC+UxhWiC01GJImcKUycRxUXavAdpXVyszVusxoqY95Amb1Xl6bqOVuQjwkdET3g8PC+PIIqeV+aQ4yEE8Lj+xq7O3x8uDEhODEhJ8tm8zistySeZ9gKHiiJ2HNOQ44j8yC8+u3XzFyE5m36g2hWj+jq2cGfsAUVMIZq2Btt1/TzuFKaTLooxqrwodd4iDfIUozRoEYyHVfTspkXyTfXlht5uk8U8BCHsAAJuQgBE0U0KErJxkwSwLnaZ+tLLz01PTvRKS/TZlISW1EATwqHtFLS8RiJqPh2siL7JSdNT1oXkbFmk3btYtTtatSumsMDVRTFGhdpLF2nzYjX5jyrzHz2Q99zBvfuvXvj/izab6b6mN0kbLgcCTksARNFpiwYSNtEEcHugxWIpNTQFSr+akrzKe+Mqn+Q1XhvWeG1cg3WRmUAcCWSS7+bPvZMTpiR+RGxLX3Bg52LNHlYRYw8wbaeu6CmiCb7VyFmM0uTFqfMeLsz70zfa0mZ9f38/fEWc6EoJ95twAiCKE44cbujcBEzIF+pv6Or4lWrXzE1JPilrfNDwjDVeyWvwcoxIF1MSfDet8/pqlc+Xq0O3bl5woAArYjTtI8YekMfS4y5csfmUWfJCjXzEWE3+j4p3JlWcaentgeH5zl1tIXUOIwCi6DCUEJHbEMBNqe19vWmV50Jyk/03r5uK5kddqPgCLAAAIABJREFUMyVlDb1GMRrCiDrX/G9NUFbKQvXOxVrUahqlLLDO5XbDonjdj47jdoJ1mQt6BahY6zpQcer8JRr5yyfVBxouwNh8t6nYkJHREABRHA0lOMfjCLBdK0uN+hc0e4NkG/w2JaGpw/GYjZQ1Pl9+FpKTRivi14vVO7EiMqJYOEQUlcxqEuOmbWOOn14QUYl602B7WJUfp8p/6vDeT0pPXevqZBTR48ofMuy5BEAUPbfsIefXJYBdxrbeXqmuPHbPtu9t+tw7OdF30zr/lISgbWn37c9bpNm1WIWmcIuiV4ZiZ3GzWS4RD0DkbrnqiEfKc/dMYDg/VpUfp8yPV+Y9opLHK/Oe1O5eeeqQtuEybi9lfxxclxWcAATcgwCIonuUI+RivAjQ4/HQprLF+PfjB+/bmh6UkyrYlXVPYd4iTUGUumARXjRYpYhWKqLp1YOZzjWcNYS5cojDXNmbeFHkLnMRp5THKxXxSsXjml2vnyzOqCnvMvVZaJz4N8F4kYV4gYBTEgBRdMpigUQ5EwFWFy0Wy5Grlz8+d+LXR1Xx2p3RGsViVf5iVX6MWh6tkqOZQtWcsYk3KIrszKVcvXR4mDujd4xKHqdSxKsKHlPv+uOJ4vVVJRc62rCDCHLoTBUQ0jKhBEAUJxQ33Mx1CaCFIOi1IMwWyzdN176oOvfSN5polZyeGhTJISON7CymjhFFRYxKcfPSyE4IwBXFWJX8cc2uN08e+qrq/PlmA57IFH9EdN1igpQDgZskAKJ4kwDhcs8iwHqNfWbzN/prKbrSN88celi7M1ajiEWTgMux6qAtapaUD204Ha751L6nqCyIURaMWRRttDBOrUBT56jQ9qfFu/985vCW2vLzzfoekwm7huAgelZthtzaIwCiaI8K7AMCIxJgpRGN9G81br2o+0/pyeVH9sWo5XFqRZxKEacuiEctk8jilHg7SCC5OsfKIftxEWtqrFIeqyygzbZzKWdRJ9tD7PK/+Ba0CjJSjRpL1YpnDu//pOyU/FJNVVtzjxnkcMSShoOeRwBE0fPKHHLsIAID0tjff7mrQ9N4eXNd+ZunDz1WtDtWvTNOUxCnLliCTaXgeo2x1hEaOMBqIRvgLJpREKcsiKPPt9FOrItIOOklOOgtGl8Ro0JLM8apCuJVBXFKJMlIpJWKH2u/Xnn6UHpdxcGmq1e7Oth1EHGfGgchgWiAgMsTAFF0+SKEDEwuAbajpqW/v93UV95qLLx2eUNN2cunih85uCdGsytevSteVRBvFch4tSJOI4/RyOPU8iUqtI3SoO+RS2iHMkatiFUXxKl22lisemeMRhGlUURp5VFaebRGHquWx6Or5PF0JHHq/HhN3hJ1frw6L04tj1fueli59+HCPY8p9735zZHNuoqDDVer2prb6Z6lSBHpf5OLDu4OBJyQAIiiExYKJMn1CFhQLxw0NSg2Y29PRVvLwabvpPVVf/322BMH98RrUNNlHGpfRRarli9Ryx/RKJZoFDFFijhtwSO0bxetKYjW7IzR7IpV74rjWKx6V4ymIEqriCqSR2vlsRr5Eo3iYbX8EbXiETWKJF4tj9fkxWvy49CEpYrlxcp/nT2z40L9iaam6tbW1t5eZtwhjRZGH7peDYMUTxQBEMWJIg338RgCFloaLf395v7+tr7ey10dFa3Gw41X02vL3j975OlDe7A/F69GGhajzV9UnL+4SBGtLYjSFiwqKlhctCtauytGM0gUkUBqCuK0BbFqeZxGHqdRxGoLYot2oq2mIFateFiz89mjhf8sOS6rr/xG31DZ2nK1q7PTZGKHWIAQekwFhIzeFAEQxZvCBxcDgREIYHXEbZUmi6XD1NfU3Xmps62uveVQ49XsC5Wflp/84xntk8f3xh3cuaio4CHaFhftitJ+Ha39OlozYLGar2M1O+PUyCNcolb8uGj3L44WvvXt4dWV3+Ze1B1pulbV1ny5s13f093BDr3Hi1rAUsAjlBAcAgJDCIAoDkECO4CAowlgdTSZzSarRJkslm6zqd3U19zXo+/tbuzuutrVqWtvKWkxnDA0Hmm6drDpu+LGq8WN39F29UjTtROGhvMthpq2lu+6Opt6ug093S29Pe19fd1mEz3EkGm/RWHrXRydD4gPCLg/ARBF9y9jyKGzEWA9SBNuaLVqGGpxtVjM/ehv9vMkDuA9eAIBnB2bSJwtj5AeIOCiBEAUXbTgINnuRgB3B7XRQrt/4jPdLf+QHyDgHARAFJ2jHCAVQAAIAAEg4AQEQBSdoBAgCUAACAABIOAcBEAUnaMcIBVAAAgAASDgBARAFJ2gECAJQAAIAAEg4BwEQBSdoxwgFUAACAABIOAEBEAUnaAQIAlAAAgAASDgHARAFJ2jHCAVQAAIAAEg4AQEQBSdoBAgCUAACAABIOAcBEAUnaMcIBVAAAgAASDgBARAFJ2gECAJQAAIAAEg4BwEQBSdoxwgFUAACAABIOAEBEAUnaAQIAlAAAgAASDgHARAFJ2jHCAVQAAIAAEg4AQEQBSdoBAgCUAACAABIOAcBEAUnaMcIBVAAAgAASDgBARAFJ2gECAJQAAIAAEg4BwEQBSdoxwgFUAACAABIOAEBEAUnaAQIAlAAAgAASDgHARAFJ2jHCAVQAAIAAEg4AQEQBSdoBAgCUAACAABIOAcBEAUnaMcIBVAAAgAASDgBARAFJ2gECAJQAAIAAEg4BwEQBSdoxwgFUAACAABIOAEBEAUnaAQIAlAAAgAASDgHARAFJ2jHCAVQAAIAAEg4AQEQBSvUwgWe/+ucw0cBgJAAAh4EgF7r0m0zxUZgChep9TsFvZ1roHDQAAIAAEPI+A2r0oQxZFqbkNDw1dffLE2MfGLdZ8j+/zz9evWJSUmVlZWjnQZHAMCQAAIeAYBi8XS19d38ODBTz/59Iv167/4HL0nv1y/PnFNwo7t2xsbG13OXwRRHKnmlp4/v2D+PffNu3vh/HsXzr93wT333jd//j1331144EB/f7/LFfZIWYVjQAAIAIEbJ2AymTo7O1evWn333Hn33XPv/feg9yR6Vc6b/7uXXyk9f95sNrvWqxJEcaRacO7s2QiRWESQ4ZQojBJKKKGQpEg+f8/u3SCKI4FzvmMXL15c+c47v3/1d2+8/vrrr732xuuvv/aHP77+2utnzpxxvsRCioCAyxDAorjqs1UCkpKIxGIBek+GCUQSSvjSCy+WlZaCKLpMWY4moefOng0TCIV8QkIIRHxKyCcFBAGiOBp0znbOubPnwiVhYqFIIhJzbf++ffD7xtkKC9LjQgSwKK5ZvUZAUiKBEG0JSkwKxKTgpd/8FkTRhYpyVEllRVHMp0Q8EkRxVNSc8qSSc+fmhkWISQH+DRsmEIlIgZAg9+7ZA6LolCUGiXINAraiSKD3JIiiaxTeGFIJojgGaM55CRJFSbiIQD9jhXySDezdDaLonCUGqXINAiCKrlFOjkoliKKjSF43HpPJ1DPkX29vr6M+0YMoXrcI4AQgMAYCIIpjgObCl4AoTkDhWSwWk8lUoFDcd889Dy5cuGjhA2j74IPzIiOfefrp2tpah6QBRNEhGCESIGBDAETRBoib/8mKIm5zg2+K41HeeJxT/o48AY8v4PGFfAIbxefHx8ZWVlY6xFksOXcukm4+FZMC9puHkE9C8+l4lCnE6TkEQBQ9p6xRTkEUJ6C8saeoyJdjRRQRpIggwwRCAUE+/sMfVldXO0gUSyIl4bijjZgUSCghVse9e/ZCR5sJKGW4hbsSAFF015K1ny8QRftcHLrXRhRZf5HiE489+qijRLGiouLxRx597OFHH39kwB57+JHioiIQRYeWJ0TmWQRAFD2rvM+dPSsRonGKTPMpAeMUHV8BGFGUywXWhlMUIEiKIB571GGeYnt7++GDB4uLig4dPITtYPHB4qLipqYmx2cJYgQCHkPAKoqrKYIUCYQUnxDwCRGJhiq+9JsXS2HwvpvVhLNnz4qFQgGBRFHAJyn6TQ2D9x1byqwoUug3B54hgRSQlICkHv/hY47yFLE7OHTOYsfmBWIDAp5GgCOKhJBCE36RfL6AJAUk+dvf/AZE0d3qA4jiBJTohImi2d4/h3ywnABKcAsg4JwEQBSds1zGK1UgiuNFlhPvhIki554QBAJAwDEEQBQdw9FVYsGiSBGEkKTotlP0oQuaTx1bfDaiKEBt1OPSfOrYZENsQAAI9Pf3DxVFiscXEqSIJH/7AjSful0dYUVRAKI4boU7SBStnMfjm+K45QAiBgKeS8BGFCk+Gm2MB1a99MJvys7DKhnuVTdAFCegPEEUJwAy3AIIjBMBEMVxAuuk0YIoTkDBgChOAGS4BRAYJwIgiuMEdlTRWiwWs9nc19eHO9Zzr8EvVpPJ5NgFLcdVFHF2zGazyWTq6+vDKR/aGRJnlj2Bm+vxCLOQ7ZLEicGlgGkPl+zRp22QKBKUkF56RkRSQoJ6/JEfVldVDWUy+sgn+ExuPbS5NQuWy83mnDH/iSMfrv6zR/v6+thzJoAqS2PovfAhu8/ymCGMcCEmgJ+1EQiwZWS38o8Q/7geYlM1FOPo78vWAZPJZBMP96HGHbSHvmBHuBEWxYTVqwV8QkxSePKN6zafspmyi5p9w9gkdYRkOPDQFAfGNU5RYXxs5MNh4hYkrv3sJWMOOFAUuZVyaHqGyxR7JvcEu9WIPXNsgVFCZiPnpofdaaL/jUYmcWGxT6PJZJLn57PjFNmlnbAoshFyr7IbZlNiNzCGS+zGM3QnfpWw++3CwUeHHsJ1dWxlikuNjZMNsCmxCWAC3J1stbTJAvecGw1zUzX0jtzY2ATbVD/uOWMIczNlc/nI6cEn26SK/dMmqtH/ObaKx8U45kmXhkYyQnZsDrG/aUaunKwoCkchijZvZps7cpFyD5nNZu6h8Q47tShyufT393d0dBQXF2/cuPG9v7330ou/fWr5iqVPPLnsyaW//MWzr7/2+if//XhrTm5ZaVl3dzdLzWQyseExBG5eFG0qJTcNFovlypUr33zzjUKhSE5O/uTjj//y7p9/9+qrz//yuRXLli97cunSJ558avmKV156+f333t+4YWNxcXFHRwcbgw0cdv+NBnAKuVed/fasNFP6wQcf/P53v3/2mV8se3Iptuee/eXvXn31z+/++dP/frwpNW2nouDkiRNXr151SEr27N7DFUU8N+kTP/lZTU0NN23OFuZWMLPZfPXq1f3793/5xRfv/e1vr7788i9WPL38iaXLn1j6y2d+8drv//Dvf/zzf19+VSBXnDlzprm5+WbyYlNqHe3tp0+dykzP+M+//++13//+2aeeXvbzJ5c/sXTZE0t/9cvnf/fqq3/9818++/TTtNTUXbt24VLr7e29mQTYvdYmVY2NjcrCwi/Wr3/33XdfeOGF5cuW4Yr0q+eef+uNN1evWi3Pz9fpdGxUNpez+0cZGOFyU1/f5UuXjh49KpfLN27c+NGHH7278k+vvvzKc8/+ctlSVL2XPvHkM8ufeuXFl/71939sSkk9dvRoe3s7vu9odHSUKRzlaTgj3MeqtLQ0JTn5ySee2FlQMEI2ufFjSWP3dHV1lZSU5ObkfPbxJ++8+dZvnv/1iqXLlj+xdMWTS3/zq1+vfPudTz/5NDMjQ6PR6HS6np4e9sLrBkYjijZa2N/f39fXV1JSsjU395OPP37jtdefe/aXS+n3zNMrnnrpty+9/977ycnJR44cceDL/LoZYU9wXlFk62JLS0taWtqPHn9cIhKLRCKBQCCkBLh3IncrwrM8C4RzIyJfevG3KqWyr68P53PMPzRuXhRZ0G1tbaWlpTnZ2e+/9/6KFSsWLFggEomEQiHeCoVCAWU/XwKSEtKHxEKRRCT++c9+tn3bNvzAsIjYu9xogI2ht7e3QK745S+eDRNLRAKhSCAUCAQUhaaVsTEhJcCoJZRQIhBJKGGYQLTw3vuX/uyJlW+9nfy/DYcPHtI36e2mBBdEXl7ekrj4p596evny5SuWL1++dNnTTz39yJKHuaKIncVIcdiKpcueWrr8qWX2bOnyFUuXrVi6bNnSpU8tX/7DRx5ZvWpVQ0OD3eKu0emefeaZn//0pyuWW6/6+RMrnlx67MhRu0m97k7uXU6dPPmnlSsfWLAQo8PlJaQXNMarGeMtXo6c5iYUC0VhYsmSuPiXfvvSp59+um3btrKysuveFJ/A3tpoNObl5T37i1/Mi5wrEgrF9Czn3DviMFuFcPJEQpFIgBLwwIKFS5988k8rV6YkJx87dsxgMIwyAXZPY38fXL1y5fO16x6NX8LSEFB26hKqSAKhWCBceO99K99++/ixY2zuuHpg914j72xrazt79qxMKv3Ln95d8eTSBxYsFNNZFgnRE4cftKHvELaMcMWeFx7x7FNP7971NX6NsE/KyLfmHsWXFBUVPf/c80ufeHL5suX434oVKx579Ie4uNmixBfa+OtHjhxZ+c7KuRGRmOTciMjMjEy8qgz3RkPDbLTd3d0yqXT50mUSoUgiEOLfmkNrCK6xTPUQCCUi8T3z5z/xxBPvvvvuhg0blEplY2Pj0LvgPaMRRbZAq6uq1iWt/elPfsqUiEA4tCDQC4cS4HejSCRaunSpXC5n785Gxe5xeMAZRRFXJpPJdO3atf9+8OG9c+8WMlOsobn1wsQSsVCEmYrpYkaVmBKGC8VhAhGepBSPKbz/vvtyc3O7u7tH+dtqKNybFEWLxXLq1Kk//uGPC+9fgGYFpEfg2WzxqyFMLJGIxGxFYWsnfnnhFyg3hgcf+EFOdg5eg3dstYSFbDAY1iYk3T//XiGfxCYgKURYjH6CsClhUYcJROFCcYRIwi40wV7IDSx/Yumxo8dsGl7wN6SENWu4eWGBoIeB/qDIjQeHRTySNZuj1un30OjGN15/vb6+nn0jcAv02zNn8NcOm+2e3bvH0DaF6XV3d+fn5S968CE2SSKCwnzC6J8LuGbibZhAxB7CC3SwtZqk/61cuZL7u5ibeG4YewCXL19es3rN/ffexxITERR+BIa7NUqAUCyiX0Mscxxg0z8/Yi6uTmOoVKa+vvq6unfefJuNDS3RRb9hmd9/9I8tXKPCBCJchdhF2YR88qc/+vG+ffvGUKtxao8cOfLCr3698N77WbzclOBfBiKRSCIZeNbE9KvDppgiRBJuDI8/8iiWRlzo3LIYOYwVLjc3N2pxFAscJylcKMY/Ati6it9RZrO5t7e3Rlez+rNVC+9fgE/G10aGR8yNiMzNyR35bYZR9PX1tbW1vfe39yjOA4VqCCUKF4jDKVEYKWQN/66NEEkiROgHMZtUXC1JknzggQeys7OHy/5QURSG8sV8UsQjXn3xpbLSst7e3ksXL33x+frohxZhsPgW+D1j/70nQu8fgUDApmHevHl79+7FzRtjqJwjl5TNUacTRYy+o719a07Ow9GxIh56U0so5LuwpcUG8BuB+1xhD0MsFKGRhRRFkuRjjz1WVVU1tsaimxFFnJFtW7c+9IMHcYKZn8a0orO/j9i8jDKAZZIiyHBJ2Mp33jEYDMNVVpuS5v6JL2lva9uWu/XhmDgMEL8abN7UbKoEVsnkvmjYj394MSb83scv5aU/e+LI4cM2v3zxK2DDhg3cHzf4J46QEmBPkS1NHGC0hBKh55k29i44IKF5hoklQkrw7rvvXr58mX3RcLOMFhkOC8eLUkkoQZhAiDsFjG09xd7e3oqKiqVPPImrpYigRv6JYAONqaUk7SqhxgLU/vH+++9zE2w3bLFYWlpadu7ciSuVgKREKC/Mb8Ghd7HZw/6AwN4/WyExSXwyvu/o3zv4TINen7E5HacE00DPLIF+5aAqRL/bOIN9mZ9f+I7sel44ea/98bWSkhL8+8kuhKE7cd+ZTWlpP1j4gJCePhfHiauimBSglNBDYEkSJea6tRoXEPtERIrD/vvhR3q93uZH3tCUcPfgp6ygoCA+Ni5cEobf/vjXQLhQfPbbb/v7+3GEuF9Ja2vr0SNH3/jj6/Mj5mJuWK7woyERia8rirgsWltbMzMyUGMP3cyDIeCnif1lyQ1wKwkmwzQtCIUSiUQsFj/66KP79u0b7j1jVxRFPELEI158/lc7FQUr33jr7rBI9i6oktj7ZcYWCkWQJMGqIYl/UZEkKZFI/va3v7W2to7hVyy3XK4bdi5RxD+CDHr9Jx/9957IeSIeGUaiR4t9U+NiRj9/6BZFESXATVJMkdNnopNpz1JA/6Moat68eQqFgvtB7rpc8Ak3L4qFBwp/9NjjYqEI12y2zuGMcLdsneDutAmzl+PXmZASvPbH1xobGoarr3aziSE3XLv273/8Y25YuJBP4PcXW2uRONE/KXDzKXNT3Cl0SJMgfn2w17Kv+2eWrzh96pRNwrBc/e9//2Olnc01c5fhpPd6niKuD3/6058uXbo0nChGiiV4+WJ2KWMBjz8GT7Gjo0OhUCx+aBEuHXRrTrLZqsg2UtkcZfeLCHqaJBq1UCj8+9//bre82J34I/QHH3xAotmWmUZ11lNkCwIngHtTfAjtx3cc0mKBV13Gp7G3G00Av4WvXLnyzlvIQcS/jbgJwC93JEUUk2DmyaUfVe6ZIoIS0+9KkiB/+tOfKpXKnp6eUWozFsWdO3fGREeHiyQ20WLguLDQL2WKnZ2KFPBJtjhYSngPBohSRaKXjIigPvy/D5oaG0evi7jyy+XyuJhY5mc6/RCJSUG4UHzm9P9r7zv8mkje/3//yJdkWxJ67wIiIAIqoFhAUAQpYgOx4Nn7id07e/fsvYso4OkpdqWICopKlSodCST8bvZJxjUJIUBQvM/y2lfYbHZnn3nmmef9PM/MPPMCAqEdHR1famvv3bsXGx2DbDsAdZYVcA5dQyISawdF4FVFRcXMmTPFjIgUEvBSLAmMgBAJSIBDkYCEA7wOXFmuwkHdn0JhTF9f3/T09K4qrg6KgIj0/wkYA/RGeKlEuYMpKPPvXqQUSHwRGS6sS4OxEbxGQ0PDhISE+vp6XYSz1/cMIFAEGar4/Pm3pCQxMuQpkZBkBAgR2S3vkdUJAUaK1doiihHTjIRmRCSNhBvvHIt7PmuhMgxDkqSVpeXx48dbWlp6xKk+gqJMJrt79+7I4SPAMsJNDpCGI5NwAsoCe5D4ZsAPuI6sARjkQyeUiKJNDI3WrFrd2NioY72AyZ8/f54/bx6bigkpSuh7oEpAUyMKaTQCA5SjryQlIik0LMEJWasMUYBaASUSMnZ8Tna2RlDcsWMHw0bVAH2RfmcPpN9Z0MXqCZ8g3QS9Sx2VWQ8A0UnRuoAiIyQg4wYtEPYCFFtbW8+cOu06yAW8NEQ8R7FiDQvwAPwBhsAnN1InJtGACjooSiQSLVu6VHsjVldXJyYmsr4OiQMniHWIb0i5d/XSb9eVAUwsZtAEtJBkO5HQWCzRTgP3V9DCxcXFE8PCKAK1nYikQJZQnwWSwCdgR4nQqCcOkygRFAcqKQEB/RoNPxKEp4fnrVu3dMRFAMVbt24NGewuZv1mlYYQ4YqzUo37GkMitMMHtA58xc1KCwkUZaVoCSPat3dfc3OzjlCtHRSzXr6Uy+WNjY1PHj1etGChsaERdASGBWCS5QYtRLANbSQRiU27C59+Li+Pjo4Wi8WgPQBNsYkAnUgspL4FToWUWKjwKxQGjZJRMKsAQDEgIOD+/fvAZK4AwPn3oEjRBgL6/9DBQiMCRUOCRrgoUPAZKXMCCTA+vjUHexEJJ2u6ACIq0FGInEeapi0tLbdv394ulerYCuoEd3tlYIFiTU3N76vXGNIibjAKGhU6j6W5hY/3sOAx4yImhsfFxM6YNn1a3LToqKiwCaGjA0a5u7gaiiWKQBwnYRioAGdHp2tXr6moae0M6jsoPszMHBUYSCMzmYS8qRRBGEkMzU3NbKysnRwcB7u5eXl6+Q7zGTlixKiAwKDRo8cGjRk3ZiwcY4PGjBg+3NnRSeEacvQvdFoRQXl7eKXcuKFjvSD+tnnjRono2/ASklFWNcCOaBRBGhsaOdjbe3l4DvfzC/QPgCNgpP9wP79hQ7093Ye4OQ1ysLa1NrMwFklwrwNZB8NlQkjImzdvVKgCH+6PbX+gKQ9svBT6LTZU4UTjJ1KaHIcMdS3lSDPSGuxUjoSEBC2eoonYkKvvKNZ4unH9ho7RGKhLRlq6j9dQQCBsRiiCUUqvQkTSpsYmzg6OQ4d4jvDxCxzpHzgCHQHDR/h5+3h7eLq7uDnY2VtZWpoYGYM5byiWrFqxsitphFevT07GZgRX64HXSBGkicTIyc7ey91jpO9weCP7OdLPx9fba+iQwe7Ojo42VlZmJiYSkQgN1wgEpFBIEQRDUSKaJoVCMxOTrmjQeL2ysnJKZCSUA7ShTyFyGWl2ZNrOxtbP1y94fHDk5IhpU+Omx02bMW36lMgpE0JCAkaOdHZ0FLH7ldJCIak4FBhAConhfsOfPnmCp8tpJAAughNz7+49L08vblRGRFDGYkMLM3NbaxtnR6fBrsq+NlxDXxsXNGakr5+zvSM0rgIUWRsUh6Z8vIc9fPhQfamfRtqg1S597ylCw4kZUV5e3ofCwj27drs4OMEbsX3wTf4JxYxCmqSMRRIzQ+PjR491NaZYV1e3eOEiExMTNEVOmT0YgsYAt+DvGtIiW0srdxc336HeAcNHKCQTde3hw4Z6e7gPcXEeZGdja2FmbmhoCP5ZUFDQ48ePuwPFDRA2R3xjHUTGgBALSImQgkOkNNrQDRRtaW7h7OjkOcTD18fXf8TIgJH+ASP9/Xz9hgx2t7GyRhv2KeVTKV1IQmBTquG+vq9yc1V0i8Ym6N3FAQSKzU3Nfx0+YseOk2P5wFrM2d4hJjJq29Ztjx8//vLli4qZ0NbW9unTp2tXri5etChgpL+hWIK1BpyAMTJy+Ig3b97ozqm+gCIMp+VmHY8TAAAgAElEQVTk5MTPmjVyxIiQ8eMjJk+Omzo1fubMJYuXrE9ev2vXrpMnTly7evXu33efPX0KnaSstKyysrKa/aupqamoqMjNzT154kRCfPyQwe5c8ADOwOeyxUt0GVyEORppt28PcXdnNzxDcSToNuCikULCzcU1asqUpUuWHDl8OD0tPTs7u6Cg4B37l/82PysrK/NBZurN1LOnz+zbs3fzho1LFy2OnzFz+tS4iEnhY0YH+Q7zcXVxtTAznxgalp+fryK4AIoXL1yIjoqOiY6JiY5hT6KnRsf4+w0HNYTryAhJSxOziInhsVHR+P6Y6JipUYojNgqVgI+oqKjdu3dXsQEu9SZGY4p9A8XOzs7i4uKoiEjMeUwwBIhEBGVhbDraP3DW9Jm/r1174tjxOxkZ2VlZ75QMfJ33+vnTZ/f+vnvl8uWjf/31x7Zta1avmT9v/ozpM+Kmxp04fkKdbAzYWS9fgmoGecbKjiJIMSNydxscMXnyyuXLjx45kpGensNptbdv3rx88fL+/fspKSmnT53as3v3+uTkxYsWxc+aFRsTM2nixKDRo328vV0GDTIxMrK1sdFIg/pFCP2tXbNGae0Jv5EkJCQU4+7iOj1u2r69e7OyshobG1Vi2l+/fn3//v3p06cTExL8hnqLFCYjKgTKAWtp+rRp1dXVKp1dIzFyufzF8xdTIiID/QNCgoOnREROj5uWOCth2ZIlGzds3LN7z6mTp65fu37v7r1nz569znv98cNHlb5WWVmZm5Nz9MjR6bFxQ1zcFI3LDkYq+gg76X3b1m3/wo9KddRJgoaTy+XqoAiBzf379sVPnwFvwVqOK/wIKZVjbxZm5t4eXpMmhKXfTsMigV8KvezUyZPOjk7gV3GFBFwCEc24DXIND5342/ykndu3X7l0+WHmw9d5r6FrFxQU5GTnPMx8eCv11tmzZ/ft3btp48YlS5bMnj07NjZ27dq1+fn53YVPVUFRJCDF7GFI0MhZJChHG7vAEf4xkVFzEhM3b9p08sTJtLS0ly9evn379t27dwUFBdlZ2ampqbt27kycPXu4n59EJAJTCXARPmmSNDEyWr1qlY6mCeaS7icDAhTB9nn+7NmokQFgzqgIR8jY8YcPHoIgoYqeharCReg8T588XbRwkamxCVjQ2GiiScrEyHjxwkVNjY0aC1HnWl9AEWS3oaHhyZMnTx4/Lnz/vra2Fk9bx30GU679pLOz88qVK+OCxgBnsDoGG3OEj9+9v+92WymZTFZdXb161WqserAiYwjSWCSZNjXu/LnzsIROOz34V2CaTCarqqrKy8v7+87fZ86c2bp168EDB6qqqjSSJJVK6+rqmjl/ra2tZ0+fxpWC0SkRQfkOHfb+3buWlpampibO7ZpPGxoaYKaxejt2dnb2HRTb29v37Npta2HFtdgQqUIKxYhIJnR88NZNm1++fAnLvDCLtJxg7kEFNVIO+jdsQij243GrUQRpY2U9NSb20sWLtTVoQYWWd+Gf8FukUimyunJy7mRknD1zZsP69du2bsW/ajmBjpaRkWFmYgKgyCovZGBRBGluYjo5bNKFc+fBeIX3qpcG11tbW//OyIiNijY3NWXd1m8DfhBLuHjhIsxHVS9B5Up9ff2DBw+ePXv28eNHrt2MK67LiUwma2trO3fm7Gj/QNTXlMNd2Fn08/XNZd0Ulberf4XXqYAiNkONDY3UHURAR9CBIoJydnCcEBIyb+7crVu23kxJefvmbUe76sJreEtJScmEkBAceOR2cJqk7Gxs586Zc+7s2fKyMh2FBBsibW1tjY2NWvx1Zfi0S1B0tLQJHTt+wdx5h/YfePrkCcyU0UIGrGLMzMz8LSnJxMhIBRcBGv+1e0pKSqDu6pzv45WBAoq1NbUb1iUzAlIkVExbwPb41KiYly9e4tloGg0WFXGvq6vbsH6DkcQQCweSRXZAztd72N8Zd3TkJgZFNJLHltCLraMA8jGF0GBwEbxJ/Inv4Z5AfZV4/2SYpxe2LjGKmIgNDx881K3pJJfLnzx+4u01FPxmMMaBRSKKXrFsObhZ8C5MlZYT3HOwiGtsHXUZhQdxNWUy2dXLV3B1uKD47t07fFu3J+ovwlf6Aorw3vz8/CmTI7iIyAgIJLEoRkQvW7g4OysbzyfU2L4qnORyD9OpcgKIWFRUBNNrobHwp621zcoVKz4UfgAKoRVU3qLyFd8JL4KvOrYafqSzs7O2tnb8uHEwLgCbrYM4WZiZz5szNzcnB0rGnyr14l6Xy+WfPn1akJRkZmKKq4bdYp9hPro4i1A+VBYKx2/U2BaYAO4JPN7Z2dnW1paelu7t6UUpp61i21pEM6mpqVgd4beon0DJKqD4zaBhx1y/ReA5Q5v2VjbhoRNXLF1+6sTJV69e4XUIGgUG3nJg3z47G1tkRrDTa7Fry1C0h/uQI4eP1NSgpcO436lIhfpX/C4oX712+IoWUHSytk2YNuPw/oPZL7NguRG3NPWXwhW4Ry6Xf/nyZc3q1YZisTK0jsKnEEF1c3E5f+4ctzRMT99Pfj4ogsg+ffJksJOLSIjGvbGbSAuIyRPD37x+AyKI20l7taHA5ubmBUkLYF6yQqDZoQ5TidHKZSt0HMAHUKSEQkwV1fP9FFVaWjvxXf0KzS+TyS5fvAiYgV1GwJK1q9d8+fJFi3aD2OmVy5fFjAhUDxcUY6NjqqqqYNhARz5zScXkaSFA/X78FKR544IimER6TPPWd1A8fuyYnbUNWPHIxmcn8sHn8oWL65TM15EDXG5oOQdQPHzoMJ6vi2FDIhJPmxr36eNHEPhetFpPTRmgE1508uRJSwsLGPgB450iSCOJ4fS4ae/evcMla6ka/gk49qGwcOaMGbh2IJwQ+rt65Sp0IvxIVyd66WtAfFNT0/59+1Toga87tm9vaGjgRn000gPi3SUoslO0QObBZTQSSUb4+C1bvOTk8ROvcnLxAmtgOJSm8iK4+O9gy/SpcYopeOxcCky2vZ399avXwFbDoKhSiPavGt/LfUQjKKL5OwJyUvCEnKxs3Ci6SwW8VCaT1dbWTggOZsd6FHvZwii4oVi8amWXY/Bc8npx/vNBUSaT1dfX/7ntD9ZNJBl2MgXoRE839zsZGVKpVJcIPrfycP+nT59g3rxi6o1yhl7o+OC8V3ndNnZnZ2dOdraYpilBn0CRS1hfzoHgf2dvw8pCHGeGk6nRMQVdx/2hVzQ1Ne3ZvQc6DLZ8SSFhYmR8586drgbS+0KzLs8CWl9iwR4bHyAAPl7e71lPUZdytN/DgqIY8hTTbIPqONFGwfYvX5YuXoKT1CBdJiDFBEUbEGP8A8HD7qmUaicYfgWFOGPadJhphe0YhqIHu7pdvHABEFGXovRyD9DT3Nw8MTSURgmPvs3WoUnKy9ML3GW4Tfc3gt5Mu5021GsoVug4XBwyPljHCKrub+z2Trlcnp2V7THEgxtWgcnYs2bOLC8r7x0o4hZES9fZiaYwFD15Yvjunbvu3b1XW1MDIsf97IpauCft9m0/bx+GHfKEfg1+NkPR+/buxdGLrgrp43V1UKQN2MU5BBUdMeXN6ze9NrWhQ6WlpTEoixmpDEgo5mRNj4urr68HDvSxCiqP/3xQlMvl79698x06DMwl7CYyQvKPLVvr6up62sGghsDQrVu2gnwgWWEDFCKCcrKzP/7XUV2KzcnOllA06FAgrBeeogrH+/K1o6Ojualp2ZKleKIXjjQGjvB//OixFjdFJpNVVlauXL6C28nh3H+kf2FhYX/odF0q+2NBUcgIhT0FRZlM9uzZs/HjxjHsNF3so0Mo9cG9f7Alrkt9e3GPr48vHiAHrUeTVNiE0LKysv5QClooBAG7d/eu66BBFFoFr5gTSJOkuanZH9v+6B1Iw1NfWMsDG21YvxtJDMvLy3vn6Gipi/afUCbbsvKk+Unq/SWA7S/dKhBoGnVPEUdQRQRlZmgcFxN74dz5vLy8lpYW3Jr4RDuRQMO2LVtNJUZcUIQVO74+vg0NDToWpf1FWn7VAIrsehsRQUWGR7zO6/0mw1C71tZWJwcHiJpCTAKcxfFjx+bk5OgYQtBCv/pPPxkUQSHeycgQ0wwlZNerKf05Dzd3SInSrfCp1wr3n8rKSgSK3y/FE5P02lWrtQwd4wLVQZEWCMlerfjGZfblpKOjQyqVnjt7DgE8SaGV0ewCTRFBebgNvpORoYVXMpmspKRkTmKieidPiE8oL+/e8u0L5Vqe/RmgiHYGp4VCSiDUZfG+XC4/f+48GrNh11Oi1BCQZUlIjvD1a21t7W+9g2YVsgkrsJ9BConYmNhunRUtbO/dTyBgy5YsMTY0BOMdj/e4ubhWVFT0mhXwIGSAgqgpVBb0++VLl/rb8lBhiEwma2pqOrB/P5ABn0CYk4OjLpPYoUbqoAhgL6KZ8LCJVy9fef/uPXd4SEsXVqEQyq+vr0+aN581+pGig2wJwLTjR4/9AKYBKG5Yv4Fip8vCuilYldtHUMTEJ8YnkAYCMUWTBgLSQADRVC9Pzxs3bvwHQbGjo6OhoSF53TpsCGN/bvFvC8vLyrS4Pioiov4VxMt/+AhIFMcN38+aNqOstLTbDqwRFHux4ludtt5dgWTz9+/fx0Y00pWs++JgY3czJUVLsTKZrKioKH7WLHVQXLRwEQwoanm8/376SaAILqMgpbvcp0Devr37FEF45ZoBSAO0f+9e2DCr//jT2dnpYGevDopxU6f260vVC4f+0tzUFBoSAjPOIKIFyxznzZ2LtZj6s91eAWcxJydnYmgYYA94VCKaIYVE/Kz4vhTe7dvVbwB6rl65wu1r4MWaGBnn5uSoP6JyRSMoQjuKaGZ9cnJhYSEXDlUe7/Yr4MHrvNeTJ4WjuC4bCVMkQGBHFiHzi+4o2+0bNd7wDRTZJfmQYklfoAhm3/mz5ygDAeRlRLjILq61tbY+dPCgRpL6ePHne4rl5eUBAQGw7hvkD6Z6Hjt6VBdnTkv9FRHUTZshVzIOzIoIakzgqMcPH3U7ijbQQBE6alZWFrejgvtiZWF5jR1R74oh4CkmxCeog2LCrPjP/xOeIsMIDRhCQAsMGDR5SkgLugFFYHhtTe2qFStVwnowJPmuQDE5tiu26+U6ZDoFVMZNPzU2tr/1nQrxYKG+fPHCx9sbT7EhBAKaJM1MTNLT0oFdKk/p+BUgpKmp6bcFv3GdM3B6Bjk561iOvm4D3ip2NONkAgFNBUOn2t/VFShCWp9bqalyubx3OZnhvVB+amoqzCdnCDRvHwZiSSHhP2IkDphpp7OPv6qAImo7AUrDyZBURHhEXh/Cp9gMKiwsxKkZARRJoVAiEm3csKGPxGt8/GeCIojdhw8fYD4k1xJ3dnS6deuWRop1vwhWxr2797jTNcGEcR/keuXiJZAqLQUOTFDMzsrGmhEMT4ogdQHFz58/L1m8RAUUKYL0GeYDKx+0sKL/fvpxnqKEYQgDhjCghT0AxY6OjoKCgrjYqep8s7WxgZnu/cccKNnTwxNbjQrDkaRCgkOKior6I3zUVXWgv/x15IiDvb1yzT4y20mh0NrSUi+ZmuVy+fp1ydwJ0qAWGIrGqz+7Ik+/1/sbFG9cvw6S30eyjxw+YmlugYSTnbdPCVG+GFJIrE9OhgV/fSy/28c1gKIyN3XE5L6CIrRCe3s7bG4DqRlxxL6fJqD+TFCE/vz48WOk2ZWTTiGJw797Tma9zOpL7BRbSVWVlbhwyD8kFlLWJuaHD3TvemNQhJn37MzY3iTM7FawdLwBLPFeg2JdXd3WzVu4yh1Mcoai026nwYCljpTo8bYBDooymezpkyejAkdBqkbMMYogwydOamho6NcJSqAUwtiIIig7AEWGou1sbPfv2wfWNNymx0bRUtTSxYuNJBLsKQI6ent59Z0GAN39e/fZWljhRI+KtOlCori4GLsOWsjT109QnZTrN9BEaHaEAkcmGYruu6eYcgPlF+y78Pyx7Q+INnNBkRYQdzLu6KX8bvnZr6CI325lagYpiyk2fApx+0ULF2rJ14Gf7enJzwTFjo6Otra2o38dhdnJCugiUIrkxNmJsDFe33va169fMSji3PAiAblt05ZumaUKimgfq58DiqAvYHXKs6fPeucptrW1nTxxEsemIB4IPcrW2ubTp0/AEBgk6zvnu2Uv3DCQQRFMq4z0DDcXV274FBKWrlq5srm5uS8RsG5ZBEpz9apVsNkWbjs4CRjp/+DBAygETMwf0GpxsbF40ikhEECayqjIyL6rYBDyC+fOu7u44hVHKMzDDis+fvS4s7PzB8wtAjLAIr9x7TrMiodtsEAGBggoyuXytq9fk39fB8IAoEizkV5aQHz+/LnvLdKtfEKLtLS0oIk27Jiighg2033fPUVMwNAhHuqgOCcxEWdNwnf2/eRngqJUKm1ubl65YgVFoK1ZFWu32TTNq1et1iWZpy71b2trs7W0Vki2MlMtY0AAKGpXIj8YFMERBO3W0dHR3t6uogLghoL8/F6AIvDq9u3bqol+lKt9RTRziM2l19bWBu/FW9to55IuraDlngEOip2dnVevXrUwN8dzwXDI+tDBQ1+/flVpIy017cVPAIppt9NgIAranQvPLoNcDh08VF1djVsNZmP1McqiTipARUNDQ8TkyTAzHs+yoUly9apVfVfB8IqMtDQ/bx91ULx4AW2/ri9u474GJqDGvtbR0XH92rWBCYq4OZYvWw5SwQVFRkjiDDLqTanfK/3tKUIXCB4z9ttcG2X6+FkzZnwuL9e7qP9MUOzo6GhsbIyJjvkeFNFY8R/btrW2tvaxtiA3bW1tHm5oH13UzRAoKvZwX7d6DUym1yIiqqCIYrx68xRBeXFzs0FHbW9vb21tbW5qbmhoqPvypaa6prKy8nN5eXlZ2YvnL+7e+Tt5HbINYW4eKGhahzFFKDwvLy90QiiOoOJCsJ4VM6I5iXNu3bpV8flzbU1tU2MTniDXf9q2o6MDFu+jjq3cuJEWkvpevA9jimiijUi3iTYgG2fPnFHMh2QtNhxGS7lxo729ve8RMC0SCOaIVCq1MDPHjY4aC7ZBUGbmdLC1nz93XnpaWnFxcW1NTXNTc7u0HYoFpd/HrgQes1wuLy4uDmEzjODZpwxFMRR16ODBvo+QgTn46OGj0f6B6qB4YP/+XoOiuugCtYq+1txcX1//pba2pkbR10pLS188f3H71u3FCxdBHomB5ilCd66oqEiaNx86r2IPGdbGtTazgCFYLaKlr5/6GxTBDIqJnAKgSBqgTG+QJndqbCwMq+vXav+ZoCiXy+vq6kYFBqJM/ySt8BTZwcU9u3ZDZ+7LZzv7J5VKR/j4ASjSAgHMOaQFgpXLljV2t7IVgyLOtNJHUARRhiZsa2urr6+vqKgoKir68OHD+3fvXr/Ke/zo0Y3r1w8fPJS8dl1ifEJYyAQ/bx97NrsYd3NObhiNZvNi2JhbQj4nLbIul8tbWlr279snZhi0GFYgxMtUoOeDJoLKGjHi0f6Ba1auunHt2quc3I8fPn4uL//y5QsYK6Ce+q5qQdsCKGKlDycUQQ4b6q2vGUDKjDaKSacioRDhog6zTzs7O0+fOg0kKYxxdgMvUkg8fvQI9LgWnvf9J5CW5UuX4W1j0WQK5Sa9MHEM9x0zQ+OxgaPXrlqdmnIz/23+xw8fy8vL6+rqYOgFxK93rQYmZk52zqjAUWAiwFQA2Nj9MjttTSqV9qXDSqXS9vb2ly9ejA8KEhEE7qoQRtq6aXOPQJFb2a9fv9bV1X3+/Bn62rt3717lvsrMzLx29dqB/QfWrlkbP3NW6PgQHy9vBxs7Lh5Dv4DxF2wM9Sh8evHCBe4mw9CIIprp45gi1O7Tx48zZ8zANi6OYbi5uP5nQBGGJxLi4/HEWkVnJKmoKVHv37/vnTxr6Zg/ExQhrbC722A8poixZ/PGTSUlJcX6+Cv69GnUSH9lCphvoLh00aJu49F6BEUQ4s7Ozrq6unfv3j1//vzChQvJ69ZFR0QO8/Sys7I2QvvCI08UUpFxPr9tzqnwC9mdCLGTpzsoghxkZ2VNCAlBBj67ZTw2hKHniwhK8v02rYwQBbed7BzCJoSuXrX61KlTDx48ePXqVVFRUaNyvxHwlnpnr+Hw6cAERZlMdvzYcY2g+Oa16oaRWnpar38CNKqrq3NzdVVoPSUi4v4C4o1tGqzKnRwcJ4ZN/H3t2rNnzjx69OjVq1fFxcWwkRMIpO5NBmTc/+e+n48vTilMCwjY/fT61WtlpWVFRUV97LIlJSWPHj6cMG6cmCRVQHHTejT/vtvwKdAJAvlv5syCgoInj5+cO3N27Zq1kRGRQ72G2lrb4K3lAE7gkyG+bbf7bRYCu84B+DwAQfHt27fRUdFcUITRbt9hPr3Ijtk7Ee1vTxEW5i1ISuKCImQ9nBIRWVBQ0O3Kup7W6yeDYk1Nja21DdqzmyN8tIDw8/aZGh0TGxUdOyUKjuioKHzgizFTvl2MUd6Jf4WTmdOmW5iYKU3pb6C4bPFiyCGnRS/oCxSho5aVlT148GDLli2B/v44aSSN3LVvBwwmMyh3OSkmKRGbIBG8ARTAYVeO40/FmLbOniKekXv71q1hQ4caMiJcMvY8QB3AIpbvNiJn345dBGdHpymRU3bt2JmWlpabkwMrE8Bk08JPjdI5wEFRKpX+deTId3MZlJ5iYWEhZqnGqunrIrA0Iz3di12bgWZoK7ebxuobn3BbDYsKTIJwdnSMjoratRO12qtXr2pra3X3dEGGU1NTvTy9uKAIADwmYNSs6TNiItneGhkVC4eyS8ZwOq+yF0+JjkJHTNSU2CmKIyYycnpsbHhoqJ2lJV5ISgsE4Cmu/32dLqAIcFhUVPT333+vX79+hN9wMB8VAfDve5ACDilaRDMw31XFsOD2iwEIiq9evZocHs4FRWiaoFGjwWvXlwRqKae/QRHMoBXs0CmegA2gODl88tu3b/9rnmJ1dbWpoTGKbeLNMQRolwyIdoLKVgSI0F7eigNfR+tVlQfX0ENb3OGDxQy2TIIbPl2zalVzczN09a6aXF+g+OXLl3v37iUlJZmbm5OoWyoyvtMkKUKzvQmcqJoLkMhrVOYiB9UDcz2gk4O+Q65DT0ARlLhMJktPT48Mn2xtbonnvqtEjTA6KuwJggRBxHoWA6T/iJHrk9ffTEn5UPihFyDxs0ARqV0dwqdtbW0HDhxAniLkC1SuHSKFxA8DRZBP1GppaRNDwyzMzBVj5Mr9hnBjQT59DJDQZBgPWH8XyZ6RRBIYELBxw4abKSlFRUV42LirjgDNKpfLr165MmSwuwooKjqssseJhZRYgA7UB1n3C3VSdjoi55OgSfYgCJHagX1EWiDAoLhrx05dQLG2tvb2rdsJ8QngM+G6Qy5vTAAWY3zCKBUFVAdzGH9Fg3ZoNBft/av7kox+DZ9mvcwKDZmgAEUBElFkMBHkhOCQ/xgorlm9muspgiacGBqWm5v7HwRFCNYpFgIaoM0HQBzB4O3dp4SkJYTigHRcrGR/A0VKINi4YQN3kotGdaAXUCwqKtq1c5ebiyv0T/bz2zYoKAknO3mHNhAwBkLGQCgSoNlA3w7WhwY1J2ZEVhaWdja24LgoTOAegiLGrXcFBTv+3B4eOtEOz85VxuVAl3EjqxSbLAO/FzwPUChQL2NDo5kzZly6eKm0tBS/QiNXVS7+RFDUJaPN169f0RZCePrPzwNFmN5ZXFy8edOm8NCJ9lY2KopbJKTE7OZrOKwK7YU/8RY8kCiLFAptra0TZ8++cB5tCKx9xhCYj5cvXXZ3G8wFRZBMFHVX9jgJQRsJ0Wbr6ApJI6uLomGVJ+eTZCh0iChSTCoOCUlKSFJMEHjElxEIGKWneO7s2W5B8UPhh21bt8FidtCbIJwQ/QZx5cowxkgaRWW+27fOiBHbWFjaWFhigwOjo5gcMKCY9Q0UYaINqLvQ/xworl61iguK0HD/TVCsqqoCUeOCouIKJ8SP5JVzcD1FjddFrOup+EQRSNYhIwiGIBgSHZRQuHULGrfX/qcOilQPE4IXFRWtWb3GzsaW6+QpMzIQFLKRkaeIOp6BUCQkTcWGdhZWg50HDff2CQ4aGz05cvas+IVJv61ctnzdmrWbN23ev2/fH1u3QSeH7t1TTxGqDDpOLpfnv317+OChJQsXjQ8aC+jIHaDCbcHdrQ0rWSADgz1NUpbmFksWLX727JnuuDjwQRGyQqNpsUqjAVaU/2BPEbtr7e3tb9+8PXLo8KIFC8cFjbG1sMI9QkxQEHRRDKIrtxPCTYb33wGAhKCFrQ3arFj7nKauQFERYGS3B4fwjFhASbCniEZG2ET/JAk7Eis/tXmK3/mOQqEhjdZr/X0HrUbXMqZYWFi4aOFCc1Mz0Jh40B2jIziLcJ2haFNjE1trGzcX1+G+fsHjxsdMiUqMT1j028JVy1ck/75u2+YtB/cfWLJwEQzz0wICPEU01jNwPEUeFP9HPEW8HRLu6mjEEUdgWHQEmPx2kUSoyblfU0yGUPZDNm6zbetW7YgI+yn2buso0CB1dXU7tm8Hxw53UWy00iQlEYkDR/jHz5i5ZuWqbZu37Nqx49D+AyePn7hy6fKdjIxnT58W5OeXl5XV19fjuWRyuTwvL6/voIg1LIxX1dfXP33y5OTxE39s2Tovcc64oDEujs6GtAhAEZmfLP+5rqF6jcCBMJIYRkZEPn/+vFv2Ynj+8bNP8ZCV9oTgaH10W9uhgwcV9sfPBkVsaoCANTQ0PHn8+OTxE5s3bJqTMHvs6KBB9o4wkVtEUOiEDVri+Vk4DQ1AI3cjHkIgiI2J0bIXVTegyE4LQB2QDaKiPWbhYEOj9PddTxE47Tp8+h0oEoSYHUPNzsrSCIq4r61ds8bS3AIgEPcyjIimxiajR41KiE9Yu2bNtq3bdu3cdejgwd6P1KkAACAASURBVJMnTl65cuXvO3eePXtWUFDw+fNnbl/7NxV7yvXreMyFQnmo0bj+wJl9mp2VBfnTkWHKxjDAUwwZN/4/Fj79H/IUq6urzY1MUBSI3cecQeFT5DaZGRrbW9nYWVrbWljZWKLDGg4rK2v2+O4i+xNcsbG0ZA8LG0sNh7WlhY2VpaWFuaO9/dG//upWa3M9RYoN2cPyLB33G0q7neblibJWooPdzoIWEgw7OEcKicTZiSdOnHj4IPPTx4/cjbyhk8MMCPiEK/h6VlYWlNkXTxHXHUART47t6OgoKy199vTpjevXjx89tnf3nlXLV0yNjvEb5mtuagYqBlvcMO4N6IgxkiJIEyPjpPnz/021CjTjd2k8+WGeopFYTAuFNCGk2JU5MHDVLSj+m3fxryN/IY2j9BTBUCCFxPv37zFKaaxa/13EIgEDKm1tbSUlJU+fPLlx7fqJY8d279i5cvmK2KjoYUO9zUxMMSiyAiPk7oOIHUfYBypx9uyuagRvvPL9mCKae8Ie5qZmjrb2NuaWthZWthZWduynLQo/om5obWlhbfX9ARfZz29d1cLCVtNhY2llamT88QMasVaP8QJh586ec3VxwUaAotOxfc3U2GTe3Lln2Pm3MGUau5sg9hr7GrRdyvXryH4i0DEAQTEvLy8yfLKIdQkAFNGYopAc7R/Ag2Kve9/Pnn1aXWNrYYVCPUJYWU8CKC6YN/926q1bN1PRkdrTv5upqdqOmzdvpt2+XVRU1C3XVEARdAohEGgHReil1dXVK1esAPxAWonjZJgam5w6eRLSqqnAHpCEVR4+wddlMll2drYeQRGXzEVHPNoqbZNWV1W/Kyh4+PBhyo0bx44dW71qdfD4YAszcxyk4sIh4DRFkM6OjqdOnoQytfP5x4GiREwRQnQI0SRkHUFRLpefOnESgBCP1UH4NDc3FxpIewX771csHli5A8O/fv1aXV2dn5+fmZl5/dr148eOrV65atzYsZbmFng0URnDV+wSDNFUEU0/foyyqXWFPSqzT2GYh6HoNavXpN9OS025qeiz0HNv3ryltSeq9NNbqTdv3dRwpKamXr92vaWlRZ2TwIHKysqZM2aIaIa7qQBE9a0sLM+fO1dcXMxlEbfVuDxUuY48xRvXGUIoIgkWFFHGjAHlKb4rKJgaHQMRMsXgLkWjFP9e3v+ZJRlgwfwPeYpfamuHuLipg+L2P/5sa2tTl1c9XlHvYOpX1EGREAqFAsF1HTbhy8zM9PP1+2axsguuQaueO3sOEguoxDDVCVC5Ah27P0CR+yIV1YBhu7OzUyqVVlVVvX79+t69e4cOHAwNmQBz/FRwETTsgqSkbhe9AAe0hE8LCgp0QVYu/RrPc3NyjJSgSAoFyF8UInTUbt9AUWdOndYIipkPHuh9jZRG4nW5qKXV2tvbq6qqXr16defOnX17944fO9ZQLIaYB4ZG2AGKEAimxsRodBah/H/u/cNdpwhL0RmaOXz4MBg3XJHWY2/tSgbgFSk3bgz18sJzarBlJqKZq1eu4BRuXBZ1y1J4Y8qN6zQhRPFehadIUISQoSiI5WovBF7Xr7NPP336FD9j5ndThNhRZFenQXjARTuRff/1xyzJ+F8BRchoEzgCrayXEDRsYSFiZ5lvSF7f2NCo97m2PZUAjaAo6A4UoTOcO3dOIhJjl44WEhDunxk3rb6+HrtiPSLpx4CiCklcVQIEgL5obmoqLCy8mZJiZWEJYVVcWfaEGBsU9PTp024bUaOnCG6ofjPacEERXEZSN1A8f/YcTmgA9jisGb129SpWuCpM++lf1VsNGqKxsfHdu3dHDh/29vLCsVMMkIRAYGluDj6ZCg5BgS9fvgz0D+DCj4hmGIretnUbBsUfWXcgcuOGjYZiCVAF9hkE9mfNnAkpYVXqoguF8MiNG9cpFhQpQkgKBSA2DEUOEFCsrKxcMC8J52pAphub2cPS1BxAsRcV14U53Ht4UORyo6/nHR0dDQ0N0RFTMCgCLtICYsXS5dVV1d3q075S0N3zCBRJhjZA6yaVaxKE2sOnABsNDQ3btm6llMvIFDP02AiqLpsbd0XXTwFFjcQAJTKZrL29/bVy4g/HX0QTax3s7E6fOqXxce7FrkCRIkgvT8+CggLuzb0+V/EUewSK169esza35KoeMYmCVPv37uvvhOC9rm9XD4Lf39zcfPbMGQ93d+5+FyjzH0GIaPrly5fqEVQAxY8fPgaPD1YHxWVLl6k/0hUN+roOJDU2Ni5IWoC9Q+7J69eve03VwAdFuVzeUN+wYulybKhBPIMSECKCam1t1ejx64v5uBweFDEr9HCCdsloalrCptyVkAyaZWNAwEKrxPiEok+feudO6YEyZREsKIpoA7R0skegWFJSMn/uPIakIVMPzKdlhKSLo3OxDmOZyver/h84oIgpk0qlaGPY5GTuKiKYyiFmmB3bt+M7uzrRCIrgdLq5uua/ze/qwR5d7zUoyuXyOxkZHq6KnPKggCQUQxHksqVL+3vrqB7VUcebAUtaW1vnzZ0LuyFys3vTJHns6FF1LIGnvnz5Mjk8nDv5WcyIaJKKjNDD1lE60o9vg+5QWFgYHRWNoxSYNktzCzyhBj+i+8kAB0UAPKlUumFdMje2j4e9y8rK1BtR9+rrficPirrzqvs7Ozo6vn79umfnbjymiECRQEAyMSQ0Jzt7YHiKvQHFt2/eoPRL7CoRUKMQO50UGlZRUdHrvjoAQRF0R3lZGVZGYKqDnt24YUO3jajQPtdvcEsAHTfIyfntm7fdS5IOd/QOFIHhT588CQpA+zbAagdagCLhFEGGhYbW19erz0nRgZyffAv4i+fOnnUZNAhwEUKpDEXRJAkbmqvUC5pJJpNNRfspftukBdbh+Azz+fFVgr0vnj17Nm7sODyjDadNnxAS0hdXaeCDIjD8z63bQLdgOARDPP12msYVLHpvJh4U9clSJNPt7elpacjSYd1E8BRFBDXEbfCdjAx9vqxXZfXaU8zOyhoTFKQOivNmJ9bW1P6XQBH4KpVKuUvESCEBSnbtGsX+XKBiNDaCFlC0sbLOy8vT+FRPL/YaFDs6Ogry81Xn+BEURZDWllaQ9LWnxPz0+8FSycnJGR0YqAKKFEEkzJqlxcmYN3cueIfcQKWttc0PG8TC3ANQvP/PPwEj/bmgCAOKcxLn9AUVfhVQPHzwkJWZhUpsnxYQG35PhplxmF39dMKDoj4ZC2JXWFjITScG52KSPnv6tBZNqk86ui4rOzsbbSyOpu+jjKwoq4WwmzFFME6fP3s20tePO1UarLklCxfVffnSV1DMyuaa6jDAY2Vhee3qta6r0r+/SKVSD/chKuumSSGxasVKvJNGVxRoAUUjiWFuTk5XD/boOt46SkRCtj+UVFOXNG8ymay6unr5smVoMQObkI8yEFAGAlIghKWKEFfsETE//Wagubi4OCw4BMs2LSBQ6m2SiomO1giK8NSff/xpZWEJDiKOglibWbx4/hwc6x9WO3hdenq6r48vd5hTzIgoglyyaHHfQTHl+g2cS29AJQQHPSOXy2+mpAxFi6HROlqK3WuQJknKQBAUEPhjGoIHRf3zubi42M1pEEge9DHAxY3rN3Sbj1H/1HxfYu9AUSaTvXj+fKTfcHVQnD9nbm1NzX8MFGUymVQqhQ0cuAvFKIJctWJlU2OTdtgAUEy5kQIhU5itg4eIYNLH983Sm2+9A0VQPR0dHXt272ZBUQAZ29FmJuyCsMOHD8MOgr2h6ec9Ay1SVloaFjIBOh18agdF8C/Tbt/2cB+iSLfNWoqGtMhEbLh+3boBBYrz5s79b4MiOMo5OTmhEyagRVCsxUays6UgnfLXr1/7EkDWUTx5UNSRUbre1tHRUVNTM2v6DC4oApYEBQRmvczqdkRK1zf16r5egCLohZzs7PFBY9VBcUp4RGVlJewQ1guKoPDsAekpOto7cD1FiK39vnZta2urdlAEPqTdTjMxMsZYiE8ePnyoFxnoNSgCeWdOn7Y0N0cJcZTOIoDi6MBRbW1tKsNvvWjZH/wItEhBfj5IKXYWARRnJyRo8RRLS0tHBY6C9oUHQc6He3trXMvRf1UDVHhw/36gf4B6+HTypHCNtdCRHoWtNuA9xdra2jmJiShjnwGy2CCUxbBe46ULF/rCAR0ZxYOijozS9TaZTPb169czJ09xY+IYIE8cOw47hutanL7v0wCKgm7Cp4BbBfn50RFTuKAIC2yHeXqVlpb2OiwMhWe9zPoufIoSw5LWPyl8CnWpra1FMCZEqZ8RbcqtHzdt3KSjW/zPvX8c7R1wmi7YEosUEpcuXdIL6vQaFIHnmZmZgf7+DIG2NAFcxE0Ao56/Fi4CKKbduj3M0wsC+9hTZCj697VrtSvT2JhYSB8D8x5hcrWdpeWVS5d+5GpFAMWXL1+GBIdwQRHCFS7Og/qiDwY+KGIvcH1yMozy0Kx2IgQCEYEiqKNG+v+AhRk8KPZFzDQ8C5L3KjfX0sQMYyGeYTx+7Ljc3Nz29vafpXHUQREUopY0KKBDS0tKf5u/gAuKgPrGIkleXp4unpMGZrHJt2QymTooMkLSxtzyxrXrGp/q14vQNGfOnEGz/vAuVywoGhsa7d2zt9u3A8eePX3qx44MgUZDpbELWrZu2tzY2Kgjsmp5V19AUS6Xo1XSSUmUcjtoGFMEUqMipzQ3N//05UNa6q7yE4hfu1S6MXm9hbEpSCb4fGibJ5q5cL5LDwOePXTgoK21DcIh5V7H7NRcMnjMmM/l5Sqv67+vIDkfP36cGhsLoQWV2PuXL18wcvSUDBDsgTymCFWTy+VXLl8eMngwTmmL4vys1ygmqetXr4GZ0mtDvFu+8aDYLYt6fINcLi8rLZs+NU4BimyaUNjQFc3UWLmyRjkI13/t2hXRvQBFMLGbGhu3//EH1/3F6mP/PrTiu0cwj0EUNG9OTg52U8CjYoSkpan51ctXuqqI+nUoE5esfkO3V3BzfPz4cainF8mm7FEMUAnRjsTuboOvXr3a7Sug07598yYifDLXU0RpjoVkaHBIZUVFj9ilkfJegyLWqvv37TM1MoL9L5FtBD4x+3nwwAHInIJv1khD3y8CDOC260WBUIJMJnv5/MW4oDE4cIqhUSISd5V6G2vhjx8++HgPQzsYf0tPgfalsTY335CcXFtTg+/sBYW6PwJ8aGpq+m3Bb9ypsJAA/d8p0IcPHdbu8qq/C4sr2GG/BCgWFxdHRkRAbkVYCkWhzcnR1uWeboNfvnjJFRv1Knd7Bfd0jXfyoKiRLX26CBHUi+cvGIkkqIuyWgaUPk1SYka0IXl9UVERHljCGqEXJz0ltHegCBrhwrnzphIjjIV4/b63h2dBfj4mXp0k/BOWRVhV1tnZWVtbm5mZuXXLVlABCkXAKqZ/85Ad++svyAKMH1QvHF/ByhG/DisyfKWrEygEgCovL292wmwImX6bssGC4pSISMhcqp0eoKSiomLF8uXcOYSQQt3C2PTxo8egobqih3sdV1DlpI+gKJfLnzx+PHb0aLwpNJ6LCBmiDx44WFJSAnWBV3Op6uqce6cKwRq/ggEBfYHL1a7KV7kOTdze3v4qNzcuJtaY7XHYdINVmINd3bglq5MBv86fN99IYgiPKJEVpVl3trfftWMHjBGAhHBp0F3G4Cm4X50GfAWI2bpli7GhERYePLbt5eFZUlKCX4qf4p5g8vBt0N0qKyvv/3N/+dKlGPhxi5NCIj0traO9XXsAA0rup9ynuArwlo0bNpgaG8PWYKRy5JsWCEUEGTxm3N937uChfVxf7SdQPr4Hv079hAdFdZ7o4YpcLn9XUIAmwilBEZvh4DrMTph99coVWBMGIotbS+MJ3MP9hNtA7nV3O/oCio8ePhzpNxxtFEWQoN8BIGkBMTs+oaS4GMO8CgeBVCAeCK6oqLj/zz+HDh5asXRZ4Eh/I5EE9rGihWhHKkoZwoqJjCrIzwdvEteXW7hcLm9sbLyTkfHX4SPXr13PfPDg7Zs3lZWV0GFUlALmHpceuAiq/0Phh9MnT0ZFRDIEhUYTOXvTMwRpbGiUvG4dZHXn0qDxHLYtPHDgAIxKAsdwveJiYgFc8ds1kqSxyvh1fQFF4ExTU9Pva9aYSAwhhA4qEltvhmLJ/HnzLpy/gA04zECMYfgKkIqxRyaTtba2wlxBTLDKyZnTpw8eOJhyIyUzMzP/7duqqiqVVsNWDvct3HO5XC6VSgsKCk6fPBUxcZKJ2BCre0A1iH5v27pNu3cFxGdnZTs5OIpIGp5li0IbjzBCoYO19cKkpPS0tC+1tbjH4Sqrn2Ai8Qm+B5igpcPCnampqd5eQwEU8RQtiiBFJL0waUFpCRrFx9zmMhauw3vhellZ2d07fx/ct3/xb4tG+g43EkuwXYtBkSLIuNipVVVVMGNOe+E/BhRfvngR6O+PFmMQBAZFHET19vDc8eefDx9k1tfX4xaBWnM5wL2CudTe3t7S0qIF/nlQxLzS54lcLm9tbT175oy1pRXX3IMwCADkYFe3pPnzd+7YcfPmzby8vLKysrq6uqamptbW1sYGxV9tbW1VVVV5WVlRUdH79+/z8vKePXt2/5/7qampFy9cOHb06O5duzZv2nTm9On6+nqNnUSlVr0DRZCzmpqaVStX4qEO7tZRhEAwa+bMa1evVldXq7yxs7Ozvb29tqYmPz//zp07fx05smH9hjmJcwJG+iNbmM1qqDTMUUbWb86ZgDARGybMnPXo4SOYnaRSQXAyiouK5s6eY2Zo7OE6eLR/YFRE5LzEOSuWLlufnLz9z+2HDh66eOFiRnr6v15RXl5eYWFhSUlJeXl5ZWVlaWnpxw8fcnJyMjIyjh09umn9hriYWNjzHYM99jkYgvIfMfLB/fsqNKhXlnsl5cYNOysbXAgulhYQcTGxfx06kp2VVVlZ2djY2FDfUPG54tOnT2/evHn+/Pm9e/dSb948ffr01StXIHbHLRbO+wiKoEoeP3o02j9A4SxysrqA0NIk5eTgOH3a9I0bNh47ejQjPT0nJ+fjhw9lpaWfP38uKip68/r1kydP7mRkXL1y5dTJk/v37duxffvmTZt+X7t2xfLlF9m5guqUwxU3FxdDscTDfciogMCoyCnz5s5dsXz5+uT12//88/ChwxcvXExPS3vy+PHr168L37+HVquqqiorLfvw4UNuTk5GevrRv/5KXrsudkq0o609d/weRAgQ0cnWvrwMDQpqbzj4dcXyFcYiCTwIoIj34zViGL+hQxcmJR3Yty8jPf3NmzcVFRX19fUt7F99fT302OrqahCtT58+FRQU5ObmPn369N7duzdTUi6cP3f48KHdu3auT1536eLFrta9QF+rqqqKi52qDoqMkDQWSeYlzkm9eVOjYEilaGe0t2/epKelHT54aP3v6xJnJYzw8QWL4bvdJ8AAhb1RCVJEM4sWLszOygICNLILfupvUITGam9v37hhg4WZGeyLCXAIC2ohjmoilowa6b94wW87/9h+6cLFRw8f5r99W1RUVF5eXl5WVvi+MCc7+8H9+7dSUy+cP3/0yJHdu3Zt27p1w/r1q1et2v7nn2/fvoXqqMsnD4rqPNHPFblcXl5evnjxYpLdFxQvd8PDA3DFxMjY22voxNCwuNips+MT5s6ZM3/uvMTZs2cnzE5MmB0/a9aM6TPiYqdGR0VHTJ4cNiF03JixASP9hw31dnN1tbOxNTU2FtH0lIiIEnZ/NY2izK1P70ARxFQul6fcuDHY1U2hMdmto0DRU2zCFw939xnTpy9ZvHh9cvKWzZvXJyevXrV66ZIlSfOTZs2cGT5p0nC/4XY2tjSFkqcoClGCIiAHNtIxfohpZvSo0YsXLTpy+Mi9u/e4JrZcLm9vby98Xzhj6jQRQUkoBuYBKZCVoIwNjawtrdxc3Xx9fINGjw6bEBo5OSI2Jmba1Ljp06ZPjY2NipwyITjEz9fP0dYezcgg0JASnlyDwYwRkrZW1tu2bmtubu6Ww8Bt6G9v37yNjozilgP1AgrtrW0njA+eGTd9TsLsxPiEGXHToiMjJ4WFjQ0KGjl8uLeXl7Ojo5+vL+gpbiPCuTooUgKBjltHYSK/fv26b88eBxtb5CwqQRFHNcAAoklKRDP2tnZ+vn4TgkOiIqdMjYmdFhcXPWXKxNDQoFGj/Hx9hwwe7Ghvb2lubiSRMBQFexwumD9fnWx8xcLMDBKYYdUPyWaNJIY2VtZuLq5+0GqhYVMiIqHVZkyfMTUGtVpocMgIHz97a1uYaKpiSwGTIRB68sTJbhER31BcXDwmcBTK0Yj8RQJvUUmj2Y+Kr1ZmZsOHDQufGDYtbmpCfMK8uXPnzZ07Oz5hdgI6Zs6YMT1u2tSYqVGRU8InTZoQEhI0evQIP7+hXh4ug5xsrCxMjQ0pQjA9Lg5vtYYZgk9AeI4dO+bs6ATMwSPuIEsSivHxGho/Y8aKpcs2rV+/ddPmTes3rFm5aumixb/NT5o1fcbksEnDh/nCxq4g0sAikHAskNwWhy4ZPH780iVLjh87/ujRI0wPPvlhoAhv/FBYGBIcLKJp5C+yC4fwTGmIbYiEBGMgNBUbDhnkGhQQGB4aFhM5ZVpsbFxM7JTwyRPGjQ8cMdLby8vNxcXW2trU2FgiEoHf6ePtnZaW1lVkiwdF3OJ6PoHgz6tXryImTwaB43Z+LjRCQBU0EXdoDfcErJtgljbcr3yKoCkqYvLkoqKirgwfbsV6DYqgOGqqa5YvWy4RidGUBHZmJnQ2GAwHm44UCo0kElNjYyOJBDJx4Iickma0r6miUiwoYjSC0nCnRV+Vm6A62DuM8PGTSqW4Ong+C9qqmwVFeBAKgQe5vALu4VfjRkFKn6RUfFaMXoyQNDM0nhM/u7i4GL9alxOIFuzesdNEbIgtdFxBeB3odLB/kS0sFNIkCSEj+LQ0N3/y+LFGJNYAikKBjltHcekvLy9flLTAXLmkEiMinuihMF9ICjOTvQft5QtEwoQIOIdNKkD1JM2bx30RnOO6GEkkAIq4RUBOoF2wqHNbDW5gSJSylWsAKVqcXXcPjAXLZuWy5WDH4Jeq04OvwD1PnzxxsrNXZoVFY4qQJwhcRkYoFBFoAg5DEiTiNsoBBAdkAWQ/haSApAiUc1XJHyFFCOAQ0SQpNIiOitKyRRdQUlVVNXP6DEOxBNaPKjoRO7IAdYQBNhOxxNzYxFRiZEiLsHQBc7gQCD/hK3BCscTjFld0SZJydnQKDZmgzrQfCYrw9oeZmW6urmirE3ZJBmChItpvIGAEQsYAHSIBISZIEUHiGxg0dZxEqxsJQtkKKAwLX708PW+mpHSlMHlQxJ1C/ycw5vH0yZOJYROxClYBP7gO4og7GD7B+gLLq8oJyTZ5+MSJhe/fd9XG3IoBKCJ1hhbhEewhJAU67UwL5f8bowCYF1E0WwgqBzQCHhXHWhLbASoVAZsA6Tu2k4tJ2sLEFLt63AgqBGkRaAlJWwsrlY1GZTLZq9zckLHjxSSNc1tDmejB7w+E4twrSmBG80pQ//kucqt0F1hETJhdWFjIZaMu58AuZBWFs1aRciAWay4M4QCKqD+jRGuKA3hobGj48OFDja/DoMiQBIU2GUaI2AtQ7Ozs/PTxY9K8+WYmpjDFBvQvFkKMVdxGJFhSv5s0z479YPoJgWDunDlczx5qAcpOLpdLRCItL1IgMbQLt9XYc4yI3FajBAQau0UHRQmJ1StXlZWW6dIpMHuBtkcPHzrYObCFCEUUSQmR/608hGiHXkKo3KhLgYioIgIBJUBmDevToC1okInDfqWFAlpoQAnQISIJSmAwaWKY9n3kgezXr1+PGD4CPHXgFe4arPCg4QYV/IMbsGhhLMQTiCQUY2ZoDAgKWxXihsa6hRQSbi6umC34BKj6AeFTLCodHR337t51HTSIJkjCQMCQJCkQ4APZkQZCml2twSgXF6F+hHbbZiMfbG9SkVKKINxcXK5cvtyVbPCgiFu8v06kUunbN2/mzpkD+U2Qj0XReO0alkgdT7BignJENC2i6QkhIa9fv+6qjbkVy8nJMRSL2U3mUE5I1ghFkKZlnSL3cYhYZmdnB48fD5SAGcsxk8F8xsqdozXYkCnX8EcqWEj6+w3fv2/fi+fPDx04aG5kAv0cXCisAuDrEFc3FVCUy+VoOaC3j5ikJRQDBzaH8eMaT5Q7ZyEKkQpjD8BCXIK1ueX+PXtLS0txhI3LDV3OpVJp6s2bw3392FkSFJSsQg/2FEk20yMwE6PLP//8o/HtuTk5poaGDEGIGZomCYZCW6iTQkHKjRsa7++KWkCCstLSPbt3w+7KEMbEDopGyeS2OD4HmsEYJwSC2fHxKu2FCautrZWIxPAi2NQX20/c1+F2UeGYyldoNYgNUATp4jzo5IkTVVVVULWuKq7xOjzy8uXLyZPCuXvwAm/B7OB8fvMUcSPSBkLq/wjq/9DSOhgJY71MASMUiAihEUPTAoPgcWNhhzKNNMBFCDW9ePECZtwAr9QrjvFP/SdsKcI9Rox47Oigvw4fefH8+aYNGy1NzJCNqFACKEMFHNDunkM81GkDDXPp4kV3t8FiRgR9GWbUi2gmJSVF+4Qm9QK7vQLRoNzcXNYQR64eKRQyaPwFaS2UAY5lssonFkjuCbiJDEUxFOXs6Hj+3LmuxAODIlQNAiQgpZERka9fv+4q7tptdeAGmOPz+9q1FEFCJnqwe0Q0Myls4qtXr/pYvjoZ/0/90s+9AsJdXV197uw5n2E+GNWAIwxFY9nC4Sk4gZ/gU0QzkHEDDEZOISg+EDRq9NOnT3UBxeysLFae0KI0OIjuMtqocA9wsaSk5LcFC8C3YN0+HClC9CgPElcBqzx46b9TwF0HuaxeuerZ06f/zpRpbmrq7Oxsbmq6nXpr7Kgg6MM4wCgmaUMGhYZGZhBSPAAACm9JREFU+g5XUSVyufzpk6e+Q4dh1YBPwF80pEWgGnDA7ZtlrYwHMhQtYh1Nrg8nJullixa/f/euqRHR1lX/UWGOxq8tLS0ZGRkBI/1p5Ro4IAlDL61cg4UmvLAxNxyKJASC1Js3Ozo61F2u7KwsEUqarNg8nRQKCKEBQQhu3EAZD3pEMNzc1NT05s2bOYmJoBaxhID6U5FS9tdv1KL8I6CnlJ4uIUAjZ3V1dSpiCRUp+lQkEYlx+AQEHt6IFQRuF9xk3BNsBgEYwP6gdja2a1avyc7Kbm1tVeeYxtZRvwgqqaSk5OSJE66DnAEa4ZOhSDhokmCPbyFlmP0hJpHdIxLSIiGFo3kor6xQcYgIFI/19PDQZRozQMKnT5+mT5sOIxGwyZe6MEO8F3iCDS/cFzwHD9mwLvnpkyelpaUtzc2dnZ319fWXLlwY7uOL+yOgI0PR8KIRfsPVpQgmc545c8Zl0CAsHnAiopnLbPafXmd8VG8IuALtWF5efuXKFS8PD4SFShljSJJlOAqTcg+aVUG4K+FdU/CDxoaGe/fs6eqNHR0dzc3Na1avUVO25MTQsNycnD6CFrBo8aLF6uVPCAnpj1SgAw4UQbZgjn5VVVVKSkp0VJSRxJDLEWymcU9UxI4bdxUzIne3wWGhoQsX/LZ71+6///67sbGxqzbmXs/Pzx82dKiri4unh6fnEA/PIR5D3N3dXF3v3LnDvU37Oai5hoaGf+79MyUi0lAsAWnj2mXsObKjca8jhYSFmfmE4JAd23fk5uZWVFQ0NTWBxMMnwG1lZeW1K1eDx4wzYsSKQKhyHCVwhL8KKHZ2dra1tX0uL896mXXuzNnVK1eFh4a5ODjhUCrWC9w4G6hR7Cki1czCFWyqEDJu/PGjx8pKy4ClPUKXrvgmlUorKip2/rndwcYOVwqb9tjOBU9RhZmXL11Sr3VnZ2dBfv7wYcPcXVy8PIZ4DnH3cB882M1lyBD3e/fudkWG9uvQrPX19SUlJdv/3O47zAekEcshVzjBlsJaBm/qSwqFpsbGI0eMmBYXd+b0aWlbm0YGdrR3lJeXZ2dnnz51asXyFWETQp0dnbBvit+IXBmlE69ygluWFhAWxqaTJoSdPnXqw4cPIFQaX6q9+txfgRVfv34tLi6+eOH8hOBgQ7EYO45aPEWYCUIbkLQByp+ndBYF5kZG3h4ekZMmrVi6dP/evZmZmTpiNujfurq6e3fvjh83HoRHXZjxdfyTlZnF5ImT9u/dl//2bWVlZTPb18BAh9q1tbVVVVWdOX06wN9fzChC2ZjzGkERHky7fdt/5Mghg9093Id4DvHw8vAc6ulla23zN6tDdKwXl9vdnkNrSqXSysrKe/fuzZo508rCgkDTylCGQsxn3I9AEakLJ0NRg5yc/t2WcumSJc+fPevqvbCgaPeu3bbWNl4enlBNzyEeg5ycE2bFv3/3DvjQ1ePdXgcW7dixw8rCcqinF7f8uNipeM13t+XofsNABEWgHuS7o6OjtbW1qanp2bNnBw4cSExMHDNmjJubmwP75+jg4Gjv4OI8yMvDc1RAYPjESbMTZq9ZtXrvnr2XL116cP9+fn5+Q0NDY2Njc1NTS0vL169ftYzYq3NNJpM1Nzc3NzUpPpvQX3NTU0/tOxALqEtVZdXVK1cWL1w4ZnSQi/MgBzt7R3sHJwdHTw+PcWPHzk6Y/ce2P1JSUj58+NDQ0NDS0oJVvLoDBMXCQqLS0tKbN2/+vmbNxLCwoV5eRmLJnITZXWXIQzZ1e3tbW1tLS0tzU3NjY+OnT58yMzPPnTu3dcvW+fPmR06O8B+BerKTgyNQ6GjvMMh5kJ+vX0T45BXLlp88cTLrZdaXL19aWlqAG3rMcwb1kkqlzc3Njx893rJ5M4IBJyczE1NDsUQiEhtJDK0trdwHD54QHLIgKWnf3r3paWmF79/X1dV11TQymayFbUr4RG3KtmZX96sLg/oVUJqwa11zc3NNTc3du3d37twZHx8fFBQ0ePBgO/bP1tbWycHRy9Nz3NixM6ZNX7tmzZEjR9LZhQr19fVIopqbW1tbu6UEPCFFqzU319XVffr06f79+2fPnN2yecu8uXMnh4f7jxjh7ubmaG/vYGfnYGdnb2s7yNnZ18cnMiJixfLlJ0+ezMnJqaurg5VnWOmrV60XV0B5gTRWVFRkPniwe9fO+JmzAgMC3FxdHe1RV4XDdZCL55AhowMDIydPnpOYuO733w8eOHDt6rXHjx4VFhb+m+G6qampheVJW1tbVzLcFYUACRDTq6qqOnf23IKkBaMCAl2cFH3N2d7Re4jnhPHB8xLn7Nq5M+327ZKSksbGRpBk/LiKoYC7cHNzc3Fx8dWrV1euXBkaGurh4WFkZDSPnSSl8ghQ2NHejrUH0kLoCxK9bpu7qwrqeB2ijpAapaGh4V1Bwfnz59esXj0lMtLP13eQszNIiIOdnYuz83A/v8nh4Unz5m3/888L5y88fvSouLgYq02crUnLq6VSKUgy9Cy2lyGp1hfqq5TPvkWf5XOrNnBBEajso+vNrSq4VtDHNIov9+b+OO9FXSDlsXZqe1EsqNeeqhuNPNGFQo0Par+oX32t/V19/BWY2ZdCoAQt66MhfAKs1j7lREcy+o+93IXwOhKj8TagUCqV9s7Y6kWn6FaS+49pGjmgl4tQqb4U1S1b+lL4wHx2oIMicA1rDZxzgctNEFb4CRb54s9e9A1uyf1xzq0LF+1wLYD4nlpY8Dh4k9xidakCfpbLN42s497ZUwp1oUTlHvw6je+CX6HTqrvRKkX9gK+4ZdVbAZOKqVW/pxcUYv5Aadp7B5arnopHXwjTTpJKn9Uocr14O34Et4hKybg5gCc9ZUhXxeL3DsAToBkYrp0bP1JOBiCjOjs7fw1QHJi846n68RyAKFZPtdiPp5N/I88BngO/KAd4UPxFG44nm+cAzwGeAzwH9M8BHhT1z1O+RJ4DPAd4DvAc+EU5wIPiL9pwPNk8B3gO8BzgOaB/DvCgqH+e8iXyHOA5wHOA58AvygEeFH/RhuPJ5jnAc4DnAM8B/XOAB0X985QvkecAzwGeAzwHflEO8KD4izYcTzbPAZ4DPAd4DuifAzwo6p+nfIk8B3gO8BzgOfCLcoAHxV+04XiyeQ7wHOA5wHNA/xzgQVH/POVL5DnAc4DnAM+BX5QDPCj+og3Hk81zgOcAzwGeA/rnAA+K+ucpXyLPAZ4DPAd4DvyiHOBB8RdtOJ5sngM8B3gO8BzQPwd4UNQ/T/kSeQ7wHOA5wHPgF+UAD4q/aMPxZPMc4DnAc4DngP45wIOi/nnKl8hzgOcAzwGeA78oB3hQ/EUbjieb5wDPAZ4DPAf0zwEeFPXPU75EngM8B3gO8Bz4RTnAg+Iv2nA82TwHeA7wHOA5oH8O8KCof57yJfIc4DnAc4DnwC/KAR4Uf9GG48nmOcBzgOcAzwH9c4AHRf3zlC+R5wDPAZ4DPAd+UQ7woPiLNhxPNs8BngM8B3gO6J8DPCjqn6d8iTwHeA7wHOA58ItygAfFX7TheLJ5DvAc4DnAc0D/HPj/jmY9CEtwHMQAAAAASUVORK5CYII=;" vertex="1" parent="n1cjui-AUTv7zVWOq074-310">
          <mxGeometry x="115.5" y="501" width="75.5" height="43.12" as="geometry" />
        </mxCell>
        <mxCell id="n1cjui-AUTv7zVWOq074-260" value="" style="shape=image;verticalLabelPosition=bottom;labelBackgroundColor=default;verticalAlign=top;aspect=fixed;imageAspect=0;image=https://blog.dsacademy.com.br/wp-content/uploads/2023/08/Google-BigQuery.png;" vertex="1" parent="n1cjui-AUTv7zVWOq074-310">
          <mxGeometry x="61.5" y="390.34000000000003" width="113" height="59.33" as="geometry" />
        </mxCell>
        <mxCell id="n1cjui-AUTv7zVWOq074-262" value="" style="shape=image;verticalLabelPosition=bottom;labelBackgroundColor=default;verticalAlign=top;aspect=fixed;imageAspect=0;image=https://dist.neo4j.com/wp-content/uploads/20170726233003/hello-world-neo4j-inc-company-name-change.png;" vertex="1" parent="n1cjui-AUTv7zVWOq074-310">
          <mxGeometry x="35" y="584" width="145.4" height="72.7" as="geometry" />
        </mxCell>
        <mxCell id="n1cjui-AUTv7zVWOq074-245" value="process &lt;br&gt;message" style="image;aspect=fixed;html=1;points=[];align=center;fontSize=12;image=img/lib/azure2/iot/Event_Hubs.svg;" vertex="1" parent="n1cjui-AUTv7zVWOq074-310">
          <mxGeometry x="493" y="290.6" width="44" height="39.4" as="geometry" />
        </mxCell>
        <mxCell id="n1cjui-AUTv7zVWOq074-171" value="Schedule Bach Jobs" style="verticalLabelPosition=bottom;html=1;verticalAlign=top;align=center;strokeColor=none;fillColor=#00BEF2;shape=mxgraph.azure.scheduler;pointerEvents=1;" vertex="1" parent="n1cjui-AUTv7zVWOq074-310">
          <mxGeometry x="361.79" y="204.99" width="28.21" height="27" as="geometry" />
        </mxCell>
        <mxCell id="n1cjui-AUTv7zVWOq074-293" style="edgeStyle=orthogonalEdgeStyle;rounded=0;orthogonalLoop=1;jettySize=auto;html=1;entryX=0.614;entryY=-0.077;entryDx=0;entryDy=0;entryPerimeter=0;" edge="1" parent="n1cjui-AUTv7zVWOq074-310" source="n1cjui-AUTv7zVWOq074-208" target="n1cjui-AUTv7zVWOq074-290">
          <mxGeometry relative="1" as="geometry" />
        </mxCell>
        <mxCell id="n1cjui-AUTv7zVWOq074-294" value="" style="group" vertex="1" connectable="0" parent="n1cjui-AUTv7zVWOq074-310">
          <mxGeometry x="1053" y="254.25" width="261" height="112.75" as="geometry" />
        </mxCell>
        <mxCell id="n1cjui-AUTv7zVWOq074-276" value="" style="rounded=1;whiteSpace=wrap;html=1;" vertex="1" parent="n1cjui-AUTv7zVWOq074-294">
          <mxGeometry x="1" y="18.75" width="260" height="94" as="geometry" />
        </mxCell>
        <mxCell id="n1cjui-AUTv7zVWOq074-282" value="&amp;nbsp; &amp;nbsp; &amp;nbsp; &amp;nbsp; &amp;nbsp; &amp;nbsp; Enterprise Data WareHouse" style="text;html=1;align=left;verticalAlign=middle;whiteSpace=wrap;rounded=0;labelBackgroundColor=default;" vertex="1" parent="n1cjui-AUTv7zVWOq074-294">
          <mxGeometry width="210" height="33" as="geometry" />
        </mxCell>
        <mxCell id="n1cjui-AUTv7zVWOq074-277" value="" style="image;aspect=fixed;html=1;points=[];align=center;fontSize=12;image=img/lib/azure2/analytics/Azure_Synapse_Analytics.svg;labelBackgroundColor=#FFFFFF;" vertex="1" parent="n1cjui-AUTv7zVWOq074-294">
          <mxGeometry y="7.079999999999984" width="36.23" height="41.67" as="geometry" />
        </mxCell>
        <mxCell id="n1cjui-AUTv7zVWOq074-284" value="" style="verticalLabelPosition=bottom;verticalAlign=top;html=1;shape=mxgraph.basic.diag_snip_rect;dx=6;whiteSpace=wrap;" vertex="1" parent="n1cjui-AUTv7zVWOq074-294">
          <mxGeometry x="50" y="33" width="180" height="75.75" as="geometry" />
        </mxCell>
        <mxCell id="n1cjui-AUTv7zVWOq074-285" value="Sales" style="image;aspect=fixed;html=1;points=[];align=center;fontSize=12;image=img/lib/azure2/analytics/Azure_Synapse_Analytics.svg;labelBackgroundColor=#FFFFFF;" vertex="1" parent="n1cjui-AUTv7zVWOq074-294">
          <mxGeometry x="69" y="50.85000000000002" width="26.23" height="30.17" as="geometry" />
        </mxCell>
        <mxCell id="n1cjui-AUTv7zVWOq074-286" value="Clients" style="image;aspect=fixed;html=1;points=[];align=center;fontSize=12;image=img/lib/azure2/analytics/Azure_Synapse_Analytics.svg;labelBackgroundColor=#FFFFFF;" vertex="1" parent="n1cjui-AUTv7zVWOq074-294">
          <mxGeometry x="121" y="52.85000000000002" width="26.23" height="30.17" as="geometry" />
        </mxCell>
        <mxCell id="n1cjui-AUTv7zVWOq074-289" value="Products" style="image;aspect=fixed;html=1;points=[];align=center;fontSize=12;image=img/lib/azure2/analytics/Azure_Synapse_Analytics.svg;labelBackgroundColor=#FFFFFF;" vertex="1" parent="n1cjui-AUTv7zVWOq074-294">
          <mxGeometry x="176" y="53.85000000000002" width="26.23" height="30.17" as="geometry" />
        </mxCell>
        <mxCell id="n1cjui-AUTv7zVWOq074-290" value="Data Marts Schemas" style="text;html=1;align=left;verticalAlign=middle;whiteSpace=wrap;rounded=0;labelBackgroundColor=default;" vertex="1" parent="n1cjui-AUTv7zVWOq074-294">
          <mxGeometry x="62.5" y="15.410000000000025" width="117.5" height="33" as="geometry" />
        </mxCell>
        <mxCell id="n1cjui-AUTv7zVWOq074-295" value="" style="rounded=1;whiteSpace=wrap;html=1;" vertex="1" parent="n1cjui-AUTv7zVWOq074-310">
          <mxGeometry x="910" y="430" width="450" height="130" as="geometry" />
        </mxCell>
        <mxCell id="n1cjui-AUTv7zVWOq074-296" value="Delivery" style="text;html=1;align=left;verticalAlign=middle;whiteSpace=wrap;rounded=0;" vertex="1" parent="n1cjui-AUTv7zVWOq074-310">
          <mxGeometry x="919.5" y="405" width="146" height="30" as="geometry" />
        </mxCell>
        <mxCell id="n1cjui-AUTv7zVWOq074-297" value="" style="verticalLabelPosition=bottom;verticalAlign=top;html=1;shape=mxgraph.basic.diag_snip_rect;dx=6;whiteSpace=wrap;" vertex="1" parent="n1cjui-AUTv7zVWOq074-310">
          <mxGeometry x="930" y="453" width="200" height="100" as="geometry" />
        </mxCell>
        <mxCell id="n1cjui-AUTv7zVWOq074-298" value="Data Base Marketing and Mesh" style="text;html=1;align=left;verticalAlign=middle;whiteSpace=wrap;rounded=0;labelBackgroundColor=default;" vertex="1" parent="n1cjui-AUTv7zVWOq074-310">
          <mxGeometry x="942.5" y="435" width="177.5" height="33" as="geometry" />
        </mxCell>
        <mxCell id="n1cjui-AUTv7zVWOq074-299" value="DBMM&amp;nbsp;&lt;br&gt;Schema" style="image;aspect=fixed;html=1;points=[];align=center;fontSize=12;image=img/lib/azure2/analytics/Azure_Synapse_Analytics.svg;" vertex="1" parent="n1cjui-AUTv7zVWOq074-310">
          <mxGeometry x="950" y="475.45000000000005" width="34" height="39.1" as="geometry" />
        </mxCell>
        <mxCell id="n1cjui-AUTv7zVWOq074-301" value="Blob Explorer Client" style="image;aspect=fixed;html=1;points=[];align=center;fontSize=12;image=img/lib/azure2/general/Blob_Block.svg;" vertex="1" parent="n1cjui-AUTv7zVWOq074-310">
          <mxGeometry x="1030" y="472.77" width="65" height="52" as="geometry" />
        </mxCell>
        <mxCell id="n1cjui-AUTv7zVWOq074-302" value="" style="verticalLabelPosition=bottom;verticalAlign=top;html=1;shape=mxgraph.basic.diag_snip_rect;dx=6;whiteSpace=wrap;" vertex="1" parent="n1cjui-AUTv7zVWOq074-310">
          <mxGeometry x="1150" y="448" width="120" height="100" as="geometry" />
        </mxCell>
        <mxCell id="n1cjui-AUTv7zVWOq074-303" value="Self Service" style="text;html=1;align=left;verticalAlign=middle;whiteSpace=wrap;rounded=0;labelBackgroundColor=default;" vertex="1" parent="n1cjui-AUTv7zVWOq074-310">
          <mxGeometry x="1162.5" y="430" width="177.5" height="33" as="geometry" />
        </mxCell>
        <mxCell id="n1cjui-AUTv7zVWOq074-304" value="Analysis Services" style="image;aspect=fixed;html=1;points=[];align=center;fontSize=12;image=img/lib/azure2/analytics/Analysis_Services.svg;" vertex="1" parent="n1cjui-AUTv7zVWOq074-310">
          <mxGeometry x="1168" y="471" width="63" height="48" as="geometry" />
        </mxCell>
        <mxCell id="n1cjui-AUTv7zVWOq074-305" value="DashBoards" style="image;aspect=fixed;html=1;points=[];align=center;fontSize=12;image=img/lib/azure2/analytics/Power_BI_Embedded.svg;" vertex="1" parent="n1cjui-AUTv7zVWOq074-310">
          <mxGeometry x="1289" y="448" width="51" height="68" as="geometry" />
        </mxCell>
        <mxCell id="n1cjui-AUTv7zVWOq074-309" style="edgeStyle=orthogonalEdgeStyle;rounded=0;orthogonalLoop=1;jettySize=auto;html=1;entryX=0.615;entryY=0.936;entryDx=0;entryDy=0;entryPerimeter=0;" edge="1" parent="n1cjui-AUTv7zVWOq074-310" source="n1cjui-AUTv7zVWOq074-249" target="n1cjui-AUTv7zVWOq074-198">
          <mxGeometry relative="1" as="geometry" />
        </mxCell>
        <mxCell id="n1cjui-AUTv7zVWOq074-232" value="Azure Cost&amp;nbsp;&lt;br&gt;and Billing" style="image;aspect=fixed;html=1;points=[];align=center;fontSize=12;image=img/lib/azure2/general/Cost_Management_and_Billing.svg;" vertex="1" parent="n1cjui-AUTv7zVWOq074-310">
          <mxGeometry x="785" y="622" width="68" height="68" as="geometry" />
        </mxCell>
        <mxCell id="n1cjui-AUTv7zVWOq074-231" value="Azure Entra ID (AD)" style="image;aspect=fixed;html=1;points=[];align=center;fontSize=12;image=img/lib/azure2/other/Entra_Identity.svg;" vertex="1" parent="n1cjui-AUTv7zVWOq074-310">
          <mxGeometry x="633" y="626" width="68" height="60.440000000000005" as="geometry" />
        </mxCell>
        <mxCell id="n1cjui-AUTv7zVWOq074-229" value="azure keyvaults" style="image;aspect=fixed;html=1;points=[];align=center;fontSize=12;image=img/lib/azure2/security/Key_Vaults.svg;" vertex="1" parent="n1cjui-AUTv7zVWOq074-310">
          <mxGeometry x="481" y="626" width="68" height="68" as="geometry" />
        </mxCell>
        <mxCell id="n1cjui-AUTv7zVWOq074-228" value="azure devops" style="image;aspect=fixed;html=1;points=[];align=center;fontSize=12;image=img/lib/azure2/devops/Azure_DevOps.svg;" vertex="1" parent="n1cjui-AUTv7zVWOq074-310">
          <mxGeometry x="319" y="626" width="64" height="64" as="geometry" />
        </mxCell>
      </root>
    </mxGraphModel>
  </diagram>
</mxfile>
